<svg width="232" height="96" viewBox="0 0 232 96" fill="none" xmlns="http://www.w3.org/2000/svg">
<path fill-rule="evenodd" clip-rule="evenodd" d="M102.917 16.2012C99.1831 16.8599 95.2372 19.2781 92.2691 22.7263C88.0289 27.6524 85.3623 34.1635 84.234 42.3458C83.922 44.6076 83.922 51.3861 84.234 53.6479C84.9799 59.0573 86.2867 63.4192 88.362 67.4277C91.9212 74.3017 97.2565 78.7989 103.051 79.8094C104.54 80.0688 127.46 80.0611 128.994 79.8005C137.546 78.3478 144.926 69.0867 147.246 56.8968C147.906 53.4291 148 52.3154 148 47.9969C148 43.6783 147.906 42.5646 147.246 39.0969C144.926 26.907 137.546 17.6459 128.994 16.1932C127.45 15.9308 104.409 15.9379 102.917 16.2012ZM106.444 18.6062C106.377 18.6607 105.862 19.0403 105.299 19.4497C103.035 21.095 100.507 23.9861 98.7524 26.9351C98.636 27.1309 98.3874 27.0262 96.3503 25.923C95.1007 25.2462 94.0768 24.6538 94.0751 24.6067C94.0677 24.3985 96.6751 21.9637 97.6607 21.2584C99.4274 19.9944 101.509 19.0701 103.436 18.6934C104.353 18.5144 106.639 18.448 106.444 18.6062ZM116.508 19.2851C115.084 20.3128 113.083 22.2772 111.929 23.7791C111.417 24.4451 110.898 25.0204 110.777 25.0576C110.192 25.2367 101.967 26.9892 101.921 26.9445C101.83 26.8556 103.077 25.1903 104.078 24.0651C106.201 21.6769 108.858 19.8933 111.504 19.0804C113.002 18.6201 113.622 18.5384 115.738 18.5216L117.585 18.507L116.508 19.2851ZM129.412 18.8736C129.977 19.0216 131.076 19.4448 131.856 19.8142C137.955 22.7031 142.705 29.9401 144.612 39.2499C145.272 42.4704 145.437 44.2149 145.437 47.9969C145.437 51.7788 145.272 53.5233 144.612 56.7438C142.513 66.9899 136.912 74.7484 130.054 76.9084C122.81 79.19 115.327 74.7332 110.81 65.4472C109.087 61.9037 107.91 57.7388 107.329 53.1201C107.014 50.6216 107.015 45.403 107.331 42.8736C108.366 34.5785 111.416 27.6345 116.007 23.1202C118.36 20.8067 121.117 19.2696 123.96 18.6864C125.209 18.4305 128.101 18.5297 129.412 18.8736ZM124.345 21.4374C118.914 22.5715 114.098 28.1831 111.584 36.3076C110.466 39.9181 109.934 43.6905 109.934 47.9969C109.934 51.285 110.142 53.4267 110.748 56.3747C112.426 64.5375 116.66 71.197 121.716 73.6228C123.503 74.4807 124.325 74.6697 126.269 74.6697C128.215 74.6697 129.038 74.4802 130.823 73.621C135.489 71.3751 139.385 65.7001 141.345 58.2931C142.252 54.8642 142.608 51.963 142.608 47.9969C142.608 45.071 142.469 43.3075 142.044 40.8743C140.756 33.4995 137.514 27.2589 133.196 23.8485C132.005 22.9071 130.017 21.879 128.771 21.559C127.699 21.2838 125.385 21.2202 124.345 21.4374ZM128.684 24.2395C130.09 24.7395 131.361 25.5776 132.683 26.8774C134.158 28.3269 135.312 29.9477 136.466 32.1898C138.885 36.8911 140.009 41.9046 140.01 47.9985C140.01 51.71 139.651 54.5616 138.767 57.8541C138.155 60.1374 137.589 61.5957 136.46 63.8039C135.312 66.0479 134.157 67.6726 132.683 69.114C131.358 70.4106 130.088 71.2515 128.678 71.7669C127.761 72.1019 127.442 72.156 126.334 72.1637C124.921 72.1735 124.281 72.0156 122.789 71.2896C118.851 69.3734 115.227 63.7973 113.574 57.1137C112.764 53.8367 112.493 51.0852 112.58 47.0147C112.649 43.8129 112.778 42.5837 113.321 39.9996C115.131 31.3797 119.962 24.8293 125.243 23.8333C126.048 23.6815 127.644 23.8699 128.684 24.2395ZM124.829 26.6723C120.976 27.9514 117.272 33.8117 115.882 40.8258C114.994 45.3089 114.994 50.6848 115.882 55.1679C117.074 61.1832 119.988 66.428 123.356 68.6186C124.191 69.1621 125.515 69.6144 126.269 69.6144C127.593 69.6144 129.332 68.7377 130.749 67.3562C138.21 60.0842 139.603 42.7417 133.563 32.3148C131.829 29.3219 129.65 27.2501 127.58 26.6273C126.519 26.3082 125.895 26.3183 124.829 26.6723ZM95.0255 28.1247C96.3387 28.8441 97.3851 29.4907 97.3509 29.5617C96.9135 30.4664 95.8782 33.1377 95.5023 34.3311L95.0227 35.8545L92.2062 34.2875C90.6573 33.4255 89.3741 32.7074 89.3549 32.6916C89.3026 32.6489 90.1185 30.8241 90.669 29.7531C91.3531 28.4216 92.4107 26.7347 92.5336 26.779C92.5908 26.7998 93.7122 27.4052 95.0255 28.1247ZM108.323 29.7004C107.908 30.5885 107.408 31.7649 107.212 32.3148C107.016 32.8646 106.847 33.3282 106.836 33.345C106.807 33.3888 98.2715 35.2482 98.0925 35.2499C97.8507 35.2521 98.5227 33.3192 99.5402 31.0861L100.031 30.009L100.675 29.8775C101.03 29.8051 103.051 29.3643 105.168 28.8978C107.285 28.4315 109.03 28.0578 109.048 28.0677C109.065 28.0776 108.739 28.8123 108.323 29.7004ZM127.464 29.3559C128.757 30.0275 130.628 32.245 131.752 34.439C132.966 36.8102 133.945 39.9569 134.433 43.0611C134.769 45.2037 134.769 50.79 134.433 52.9327C133.938 56.0817 132.958 59.2119 131.714 61.6172C130.185 64.5763 127.725 67.0244 126.281 67.0244C125.591 67.0244 124.781 66.563 123.724 65.5666C121.335 63.3158 119.444 59.4467 118.465 54.807C117.512 50.2881 117.605 44.5308 118.703 40.1246C119.717 36.0582 121.374 32.7821 123.494 30.652C124.452 29.689 124.98 29.3142 125.741 29.0539C126.292 28.8657 126.636 28.9259 127.464 29.3559ZM91.8272 37.0188L94.3927 38.4376L94.1138 40.0626C93.9604 40.9564 93.7584 42.4273 93.6649 43.3315L93.4948 44.9753L90.2326 43.6728C88.4384 42.9565 86.9465 42.3469 86.9171 42.3184C86.7617 42.1669 87.6492 37.7879 88.2434 35.7754L88.4391 35.1127L88.8504 35.3563C89.0765 35.4903 90.4161 36.2385 91.8272 37.0188ZM105.736 37.0319C105.488 37.9692 104.929 41.0781 104.754 42.4945L104.655 43.3025L100.55 44.2067C98.2923 44.704 96.368 45.1136 96.2739 45.1168C96.1382 45.1216 96.1202 44.9217 96.1878 44.1544C96.3692 42.0915 97.0056 38.3521 97.2097 38.1495C97.2576 38.1018 99.2412 37.6319 101.617 37.1054C103.993 36.5787 105.946 36.1429 105.957 36.1369C105.967 36.1308 105.868 36.5336 105.736 37.0319ZM90.5444 46.5562L93.3665 47.6902L93.4496 49.4367C93.4954 50.3973 93.5717 51.6215 93.6193 52.1572L93.7058 53.131L93.2797 52.9608C93.0452 52.8672 91.4259 52.2322 89.6812 51.5496L86.5092 50.3086L86.5064 48.233C86.505 47.0914 86.54 45.8998 86.5843 45.5851L86.6648 45.0126L87.1936 45.2174C87.4844 45.3302 88.9923 45.9326 90.5444 46.5562ZM104.464 48.1531C104.464 49.3386 104.5 50.593 104.543 50.9405L104.621 51.5724L100.533 52.4588C98.2846 52.9465 96.4247 53.3264 96.3999 53.3032C96.3148 53.2239 96.1495 51.4367 96.0585 49.6167L95.9678 47.8002L99.9907 46.9121C102.203 46.4236 104.114 46.018 104.238 46.0108C104.444 45.9987 104.463 46.1789 104.464 48.1531ZM94.0556 56.0613C94.0911 56.0961 94.2519 56.7558 94.4125 57.5276C94.5732 58.2992 94.9033 59.6335 95.146 60.4926C95.3887 61.3516 95.5698 62.0721 95.5485 62.0936C95.5271 62.1151 93.9018 61.3957 91.9367 60.4951C89.9715 59.5944 88.2338 58.8256 88.0751 58.7868C87.9164 58.7479 87.7865 58.6858 87.7865 58.6487C87.7865 58.6117 87.6413 57.9008 87.4637 57.0691C87.2862 56.2373 87.0653 55.0167 86.9729 54.3567L86.805 53.1566L90.3979 54.5775C92.374 55.3589 94.0199 56.0267 94.0556 56.0613ZM104.847 54.2135C104.847 54.6912 105.47 57.841 105.887 59.4719C106.174 60.5944 106.389 61.5288 106.365 61.5484C106.33 61.5779 99.2418 63.112 98.905 63.1631C98.7635 63.1845 98.2772 61.8897 97.7378 60.0552C97.2542 58.4104 96.7059 56.0109 96.794 55.9249C96.8413 55.8789 104.472 54.157 104.751 54.1292C104.804 54.124 104.847 54.1619 104.847 54.2135ZM95.6848 65.0409L96.977 65.6327L97.609 66.8942C97.9566 67.588 98.544 68.6585 98.9143 69.2732C99.2845 69.8878 99.5154 70.364 99.4274 70.3314C99.2986 70.2837 95.379 69.0526 92.1227 68.0372C91.533 67.8534 91.5052 67.8208 90.8165 66.5092C90.1878 65.3119 89.1116 62.8859 88.8846 62.1541C88.8111 61.9173 89.1899 62.0584 91.596 63.1639C93.1342 63.8706 94.9742 64.7152 95.6848 65.0409ZM108.165 65.9282C108.638 66.9591 109.262 68.1962 109.553 68.6772L110.083 69.5519L109.421 69.6999C109.057 69.7812 107.532 70.1137 106.031 70.4388C103.365 71.0163 103.298 71.0243 103.106 70.7906C102.317 69.8347 99.6986 65.644 99.8661 65.6062C105.239 64.3948 106.997 64.0141 107.135 64.0318C107.229 64.044 107.693 64.8973 108.165 65.9282ZM103.372 74.9221C103.936 75.4622 104.86 76.2379 105.424 76.6459C105.989 77.054 106.48 77.4169 106.515 77.4523C106.692 77.6299 103.64 77.3664 102.667 77.1201C99.9296 76.4276 96.914 74.5361 94.7496 72.1547L93.952 71.277L98.1489 72.6086L102.346 73.9403L103.372 74.9221ZM112.713 73.1656C113.896 74.5518 115.199 75.7561 116.692 76.8431L117.611 77.5116L115.366 77.4545C113.411 77.4047 112.972 77.3543 111.967 77.063C110.519 76.6435 108.992 75.9411 107.776 75.1354C106.881 74.5423 105.461 73.4214 105.393 73.254C105.364 73.1836 110.91 71.913 111.399 71.878C111.511 71.8701 112.102 72.4494 112.713 73.1656Z" fill="#EB595A"/>
<path fill-rule="evenodd" clip-rule="evenodd" d="M102.917 16.2012C99.1831 16.8599 95.2372 19.2781 92.2691 22.7263C88.0289 27.6524 85.3623 34.1635 84.234 42.3458C83.922 44.6076 83.922 51.3861 84.234 53.6479C84.9799 59.0573 86.2867 63.4192 88.362 67.4277C91.9212 74.3017 97.2565 78.7989 103.051 79.8094C104.54 80.0688 127.46 80.0611 128.994 79.8005C137.546 78.3478 144.926 69.0867 147.246 56.8968C147.906 53.4291 148 52.3154 148 47.9969C148 43.6783 147.906 42.5646 147.246 39.0969C144.926 26.907 137.546 17.6459 128.994 16.1932C127.45 15.9308 104.409 15.9379 102.917 16.2012ZM106.444 18.6062C106.377 18.6607 105.862 19.0403 105.299 19.4497C103.035 21.095 100.507 23.9861 98.7524 26.9351C98.636 27.1309 98.3874 27.0262 96.3503 25.923C95.1007 25.2462 94.0768 24.6538 94.0751 24.6067C94.0677 24.3985 96.6751 21.9637 97.6607 21.2584C99.4274 19.9944 101.509 19.0701 103.436 18.6934C104.353 18.5144 106.639 18.448 106.444 18.6062ZM116.508 19.2851C115.084 20.3128 113.083 22.2772 111.929 23.7791C111.417 24.4451 110.898 25.0204 110.777 25.0576C110.192 25.2367 101.967 26.9892 101.921 26.9445C101.83 26.8556 103.077 25.1903 104.078 24.0651C106.201 21.6769 108.858 19.8933 111.504 19.0804C113.002 18.6201 113.622 18.5384 115.738 18.5216L117.585 18.507L116.508 19.2851ZM129.412 18.8736C129.977 19.0216 131.076 19.4448 131.856 19.8142C137.955 22.7031 142.705 29.9401 144.612 39.2499C145.272 42.4704 145.437 44.2149 145.437 47.9969C145.437 51.7788 145.272 53.5233 144.612 56.7438C142.513 66.9899 136.912 74.7484 130.054 76.9084C122.81 79.19 115.327 74.7332 110.81 65.4472C109.087 61.9037 107.91 57.7388 107.329 53.1201C107.014 50.6216 107.015 45.403 107.331 42.8736C108.366 34.5785 111.416 27.6345 116.007 23.1202C118.36 20.8067 121.117 19.2696 123.96 18.6864C125.209 18.4305 128.101 18.5297 129.412 18.8736ZM124.345 21.4374C118.914 22.5715 114.098 28.1831 111.584 36.3076C110.466 39.9181 109.934 43.6905 109.934 47.9969C109.934 51.285 110.142 53.4267 110.748 56.3747C112.426 64.5375 116.66 71.197 121.716 73.6228C123.503 74.4807 124.325 74.6697 126.269 74.6697C128.215 74.6697 129.038 74.4802 130.823 73.621C135.489 71.3751 139.385 65.7001 141.345 58.2931C142.252 54.8642 142.608 51.963 142.608 47.9969C142.608 45.071 142.469 43.3075 142.044 40.8743C140.756 33.4995 137.514 27.2589 133.196 23.8485C132.005 22.9071 130.017 21.879 128.771 21.559C127.699 21.2838 125.385 21.2202 124.345 21.4374ZM128.684 24.2395C130.09 24.7395 131.361 25.5776 132.683 26.8774C134.158 28.3269 135.312 29.9477 136.466 32.1898C138.885 36.8911 140.009 41.9046 140.01 47.9985C140.01 51.71 139.651 54.5616 138.767 57.8541C138.155 60.1374 137.589 61.5957 136.46 63.8039C135.312 66.0479 134.157 67.6726 132.683 69.114C131.358 70.4106 130.088 71.2515 128.678 71.7669C127.761 72.1019 127.442 72.156 126.334 72.1637C124.921 72.1735 124.281 72.0156 122.789 71.2896C118.851 69.3734 115.227 63.7973 113.574 57.1137C112.764 53.8367 112.493 51.0852 112.58 47.0147C112.649 43.8129 112.778 42.5837 113.321 39.9996C115.131 31.3797 119.962 24.8293 125.243 23.8333C126.048 23.6815 127.644 23.8699 128.684 24.2395ZM124.829 26.6723C120.976 27.9514 117.272 33.8117 115.882 40.8258C114.994 45.3089 114.994 50.6848 115.882 55.1679C117.074 61.1832 119.988 66.428 123.356 68.6186C124.191 69.1621 125.515 69.6144 126.269 69.6144C127.593 69.6144 129.332 68.7377 130.749 67.3562C138.21 60.0842 139.603 42.7417 133.563 32.3148C131.829 29.3219 129.65 27.2501 127.58 26.6273C126.519 26.3082 125.895 26.3183 124.829 26.6723ZM95.0255 28.1247C96.3387 28.8441 97.3851 29.4907 97.3509 29.5617C96.9135 30.4664 95.8782 33.1377 95.5023 34.3311L95.0227 35.8545L92.2062 34.2875C90.6573 33.4255 89.3741 32.7074 89.3549 32.6916C89.3026 32.6489 90.1185 30.8241 90.669 29.7531C91.3531 28.4216 92.4107 26.7347 92.5336 26.779C92.5908 26.7998 93.7122 27.4052 95.0255 28.1247ZM108.323 29.7004C107.908 30.5885 107.408 31.7649 107.212 32.3148C107.016 32.8646 106.847 33.3282 106.836 33.345C106.807 33.3888 98.2715 35.2482 98.0925 35.2499C97.8507 35.2521 98.5227 33.3192 99.5402 31.0861L100.031 30.009L100.675 29.8775C101.03 29.8051 103.051 29.3643 105.168 28.8978C107.285 28.4315 109.03 28.0578 109.048 28.0677C109.065 28.0776 108.739 28.8123 108.323 29.7004ZM127.464 29.3559C128.757 30.0275 130.628 32.245 131.752 34.439C132.966 36.8102 133.945 39.9569 134.433 43.0611C134.769 45.2037 134.769 50.79 134.433 52.9327C133.938 56.0817 132.958 59.2119 131.714 61.6172C130.185 64.5763 127.725 67.0244 126.281 67.0244C125.591 67.0244 124.781 66.563 123.724 65.5666C121.335 63.3158 119.444 59.4467 118.465 54.807C117.512 50.2881 117.605 44.5308 118.703 40.1246C119.717 36.0582 121.374 32.7821 123.494 30.652C124.452 29.689 124.98 29.3142 125.741 29.0539C126.292 28.8657 126.636 28.9259 127.464 29.3559ZM91.8272 37.0188L94.3927 38.4376L94.1138 40.0626C93.9604 40.9564 93.7584 42.4273 93.6649 43.3315L93.4948 44.9753L90.2326 43.6728C88.4384 42.9565 86.9465 42.3469 86.9171 42.3184C86.7617 42.1669 87.6492 37.7879 88.2434 35.7754L88.4391 35.1127L88.8504 35.3563C89.0765 35.4903 90.4161 36.2385 91.8272 37.0188ZM105.736 37.0319C105.488 37.9692 104.929 41.0781 104.754 42.4945L104.655 43.3025L100.55 44.2067C98.2923 44.704 96.368 45.1136 96.2739 45.1168C96.1382 45.1216 96.1202 44.9217 96.1878 44.1544C96.3692 42.0915 97.0056 38.3521 97.2097 38.1495C97.2576 38.1018 99.2412 37.6319 101.617 37.1054C103.993 36.5787 105.946 36.1429 105.957 36.1369C105.967 36.1308 105.868 36.5336 105.736 37.0319ZM90.5444 46.5562L93.3665 47.6902L93.4496 49.4367C93.4954 50.3973 93.5717 51.6215 93.6193 52.1572L93.7058 53.131L93.2797 52.9608C93.0452 52.8672 91.4259 52.2322 89.6812 51.5496L86.5092 50.3086L86.5064 48.233C86.505 47.0914 86.54 45.8998 86.5843 45.5851L86.6648 45.0126L87.1936 45.2174C87.4844 45.3302 88.9923 45.9326 90.5444 46.5562ZM104.464 48.1531C104.464 49.3386 104.5 50.593 104.543 50.9405L104.621 51.5724L100.533 52.4588C98.2846 52.9465 96.4247 53.3264 96.3999 53.3032C96.3148 53.2239 96.1495 51.4367 96.0585 49.6167L95.9678 47.8002L99.9907 46.9121C102.203 46.4236 104.114 46.018 104.238 46.0108C104.444 45.9987 104.463 46.1789 104.464 48.1531ZM94.0556 56.0613C94.0911 56.0961 94.2519 56.7558 94.4125 57.5276C94.5732 58.2992 94.9033 59.6335 95.146 60.4926C95.3887 61.3516 95.5698 62.0721 95.5485 62.0936C95.5271 62.1151 93.9018 61.3957 91.9367 60.4951C89.9715 59.5944 88.2338 58.8256 88.0751 58.7868C87.9164 58.7479 87.7865 58.6858 87.7865 58.6487C87.7865 58.6117 87.6413 57.9008 87.4637 57.0691C87.2862 56.2373 87.0653 55.0167 86.9729 54.3567L86.805 53.1566L90.3979 54.5775C92.374 55.3589 94.0199 56.0267 94.0556 56.0613ZM104.847 54.2135C104.847 54.6912 105.47 57.841 105.887 59.4719C106.174 60.5944 106.389 61.5288 106.365 61.5484C106.33 61.5779 99.2418 63.112 98.905 63.1631C98.7635 63.1845 98.2772 61.8897 97.7378 60.0552C97.2542 58.4104 96.7059 56.0109 96.794 55.9249C96.8413 55.8789 104.472 54.157 104.751 54.1292C104.804 54.124 104.847 54.1619 104.847 54.2135ZM95.6848 65.0409L96.977 65.6327L97.609 66.8942C97.9566 67.588 98.544 68.6585 98.9143 69.2732C99.2845 69.8878 99.5154 70.364 99.4274 70.3314C99.2986 70.2837 95.379 69.0526 92.1227 68.0372C91.533 67.8534 91.5052 67.8208 90.8165 66.5092C90.1878 65.3119 89.1116 62.8859 88.8846 62.1541C88.8111 61.9173 89.1899 62.0584 91.596 63.1639C93.1342 63.8706 94.9742 64.7152 95.6848 65.0409ZM108.165 65.9282C108.638 66.9591 109.262 68.1962 109.553 68.6772L110.083 69.5519L109.421 69.6999C109.057 69.7812 107.532 70.1137 106.031 70.4388C103.365 71.0163 103.298 71.0243 103.106 70.7906C102.317 69.8347 99.6986 65.644 99.8661 65.6062C105.239 64.3948 106.997 64.0141 107.135 64.0318C107.229 64.044 107.693 64.8973 108.165 65.9282ZM103.372 74.9221C103.936 75.4622 104.86 76.2379 105.424 76.6459C105.989 77.054 106.48 77.4169 106.515 77.4523C106.692 77.6299 103.64 77.3664 102.667 77.1201C99.9296 76.4276 96.914 74.5361 94.7496 72.1547L93.952 71.277L98.1489 72.6086L102.346 73.9403L103.372 74.9221ZM112.713 73.1656C113.896 74.5518 115.199 75.7561 116.692 76.8431L117.611 77.5116L115.366 77.4545C113.411 77.4047 112.972 77.3543 111.967 77.063C110.519 76.6435 108.992 75.9411 107.776 75.1354C106.881 74.5423 105.461 73.4214 105.393 73.254C105.364 73.1836 110.91 71.913 111.399 71.878C111.511 71.8701 112.102 72.4494 112.713 73.1656Z" fill="#EB595A"/>
<path fill-rule="evenodd" clip-rule="evenodd" d="M102.917 16.2012C99.1831 16.8599 95.2372 19.2781 92.2691 22.7263C88.0289 27.6524 85.3623 34.1635 84.234 42.3458C83.922 44.6076 83.922 51.3861 84.234 53.6479C84.9799 59.0573 86.2867 63.4192 88.362 67.4277C91.9212 74.3017 97.2565 78.7989 103.051 79.8094C104.54 80.0688 127.46 80.0611 128.994 79.8005C137.546 78.3478 144.926 69.0867 147.246 56.8968C147.906 53.4291 148 52.3154 148 47.9969C148 43.6783 147.906 42.5646 147.246 39.0969C144.926 26.907 137.546 17.6459 128.994 16.1932C127.45 15.9308 104.409 15.9379 102.917 16.2012ZM106.444 18.6062C106.377 18.6607 105.862 19.0403 105.299 19.4497C103.035 21.095 100.507 23.9861 98.7524 26.9351C98.636 27.1309 98.3874 27.0262 96.3503 25.923C95.1007 25.2462 94.0768 24.6538 94.0751 24.6067C94.0677 24.3985 96.6751 21.9637 97.6607 21.2584C99.4274 19.9944 101.509 19.0701 103.436 18.6934C104.353 18.5144 106.639 18.448 106.444 18.6062ZM116.508 19.2851C115.084 20.3128 113.083 22.2772 111.929 23.7791C111.417 24.4451 110.898 25.0204 110.777 25.0576C110.192 25.2367 101.967 26.9892 101.921 26.9445C101.83 26.8556 103.077 25.1903 104.078 24.0651C106.201 21.6769 108.858 19.8933 111.504 19.0804C113.002 18.6201 113.622 18.5384 115.738 18.5216L117.585 18.507L116.508 19.2851ZM129.412 18.8736C129.977 19.0216 131.076 19.4448 131.856 19.8142C137.955 22.7031 142.705 29.9401 144.612 39.2499C145.272 42.4704 145.437 44.2149 145.437 47.9969C145.437 51.7788 145.272 53.5233 144.612 56.7438C142.513 66.9899 136.912 74.7484 130.054 76.9084C122.81 79.19 115.327 74.7332 110.81 65.4472C109.087 61.9037 107.91 57.7388 107.329 53.1201C107.014 50.6216 107.015 45.403 107.331 42.8736C108.366 34.5785 111.416 27.6345 116.007 23.1202C118.36 20.8067 121.117 19.2696 123.96 18.6864C125.209 18.4305 128.101 18.5297 129.412 18.8736ZM124.345 21.4374C118.914 22.5715 114.098 28.1831 111.584 36.3076C110.466 39.9181 109.934 43.6905 109.934 47.9969C109.934 51.285 110.142 53.4267 110.748 56.3747C112.426 64.5375 116.66 71.197 121.716 73.6228C123.503 74.4807 124.325 74.6697 126.269 74.6697C128.215 74.6697 129.038 74.4802 130.823 73.621C135.489 71.3751 139.385 65.7001 141.345 58.2931C142.252 54.8642 142.608 51.963 142.608 47.9969C142.608 45.071 142.469 43.3075 142.044 40.8743C140.756 33.4995 137.514 27.2589 133.196 23.8485C132.005 22.9071 130.017 21.879 128.771 21.559C127.699 21.2838 125.385 21.2202 124.345 21.4374ZM128.684 24.2395C130.09 24.7395 131.361 25.5776 132.683 26.8774C134.158 28.3269 135.312 29.9477 136.466 32.1898C138.885 36.8911 140.009 41.9046 140.01 47.9985C140.01 51.71 139.651 54.5616 138.767 57.8541C138.155 60.1374 137.589 61.5957 136.46 63.8039C135.312 66.0479 134.157 67.6726 132.683 69.114C131.358 70.4106 130.088 71.2515 128.678 71.7669C127.761 72.1019 127.442 72.156 126.334 72.1637C124.921 72.1735 124.281 72.0156 122.789 71.2896C118.851 69.3734 115.227 63.7973 113.574 57.1137C112.764 53.8367 112.493 51.0852 112.58 47.0147C112.649 43.8129 112.778 42.5837 113.321 39.9996C115.131 31.3797 119.962 24.8293 125.243 23.8333C126.048 23.6815 127.644 23.8699 128.684 24.2395ZM124.829 26.6723C120.976 27.9514 117.272 33.8117 115.882 40.8258C114.994 45.3089 114.994 50.6848 115.882 55.1679C117.074 61.1832 119.988 66.428 123.356 68.6186C124.191 69.1621 125.515 69.6144 126.269 69.6144C127.593 69.6144 129.332 68.7377 130.749 67.3562C138.21 60.0842 139.603 42.7417 133.563 32.3148C131.829 29.3219 129.65 27.2501 127.58 26.6273C126.519 26.3082 125.895 26.3183 124.829 26.6723ZM95.0255 28.1247C96.3387 28.8441 97.3851 29.4907 97.3509 29.5617C96.9135 30.4664 95.8782 33.1377 95.5023 34.3311L95.0227 35.8545L92.2062 34.2875C90.6573 33.4255 89.3741 32.7074 89.3549 32.6916C89.3026 32.6489 90.1185 30.8241 90.669 29.7531C91.3531 28.4216 92.4107 26.7347 92.5336 26.779C92.5908 26.7998 93.7122 27.4052 95.0255 28.1247ZM108.323 29.7004C107.908 30.5885 107.408 31.7649 107.212 32.3148C107.016 32.8646 106.847 33.3282 106.836 33.345C106.807 33.3888 98.2715 35.2482 98.0925 35.2499C97.8507 35.2521 98.5227 33.3192 99.5402 31.0861L100.031 30.009L100.675 29.8775C101.03 29.8051 103.051 29.3643 105.168 28.8978C107.285 28.4315 109.03 28.0578 109.048 28.0677C109.065 28.0776 108.739 28.8123 108.323 29.7004ZM127.464 29.3559C128.757 30.0275 130.628 32.245 131.752 34.439C132.966 36.8102 133.945 39.9569 134.433 43.0611C134.769 45.2037 134.769 50.79 134.433 52.9327C133.938 56.0817 132.958 59.2119 131.714 61.6172C130.185 64.5763 127.725 67.0244 126.281 67.0244C125.591 67.0244 124.781 66.563 123.724 65.5666C121.335 63.3158 119.444 59.4467 118.465 54.807C117.512 50.2881 117.605 44.5308 118.703 40.1246C119.717 36.0582 121.374 32.7821 123.494 30.652C124.452 29.689 124.98 29.3142 125.741 29.0539C126.292 28.8657 126.636 28.9259 127.464 29.3559ZM91.8272 37.0188L94.3927 38.4376L94.1138 40.0626C93.9604 40.9564 93.7584 42.4273 93.6649 43.3315L93.4948 44.9753L90.2326 43.6728C88.4384 42.9565 86.9465 42.3469 86.9171 42.3184C86.7617 42.1669 87.6492 37.7879 88.2434 35.7754L88.4391 35.1127L88.8504 35.3563C89.0765 35.4903 90.4161 36.2385 91.8272 37.0188ZM105.736 37.0319C105.488 37.9692 104.929 41.0781 104.754 42.4945L104.655 43.3025L100.55 44.2067C98.2923 44.704 96.368 45.1136 96.2739 45.1168C96.1382 45.1216 96.1202 44.9217 96.1878 44.1544C96.3692 42.0915 97.0056 38.3521 97.2097 38.1495C97.2576 38.1018 99.2412 37.6319 101.617 37.1054C103.993 36.5787 105.946 36.1429 105.957 36.1369C105.967 36.1308 105.868 36.5336 105.736 37.0319ZM90.5444 46.5562L93.3665 47.6902L93.4496 49.4367C93.4954 50.3973 93.5717 51.6215 93.6193 52.1572L93.7058 53.131L93.2797 52.9608C93.0452 52.8672 91.4259 52.2322 89.6812 51.5496L86.5092 50.3086L86.5064 48.233C86.505 47.0914 86.54 45.8998 86.5843 45.5851L86.6648 45.0126L87.1936 45.2174C87.4844 45.3302 88.9923 45.9326 90.5444 46.5562ZM104.464 48.1531C104.464 49.3386 104.5 50.593 104.543 50.9405L104.621 51.5724L100.533 52.4588C98.2846 52.9465 96.4247 53.3264 96.3999 53.3032C96.3148 53.2239 96.1495 51.4367 96.0585 49.6167L95.9678 47.8002L99.9907 46.9121C102.203 46.4236 104.114 46.018 104.238 46.0108C104.444 45.9987 104.463 46.1789 104.464 48.1531ZM94.0556 56.0613C94.0911 56.0961 94.2519 56.7558 94.4125 57.5276C94.5732 58.2992 94.9033 59.6335 95.146 60.4926C95.3887 61.3516 95.5698 62.0721 95.5485 62.0936C95.5271 62.1151 93.9018 61.3957 91.9367 60.4951C89.9715 59.5944 88.2338 58.8256 88.0751 58.7868C87.9164 58.7479 87.7865 58.6858 87.7865 58.6487C87.7865 58.6117 87.6413 57.9008 87.4637 57.0691C87.2862 56.2373 87.0653 55.0167 86.9729 54.3567L86.805 53.1566L90.3979 54.5775C92.374 55.3589 94.0199 56.0267 94.0556 56.0613ZM104.847 54.2135C104.847 54.6912 105.47 57.841 105.887 59.4719C106.174 60.5944 106.389 61.5288 106.365 61.5484C106.33 61.5779 99.2418 63.112 98.905 63.1631C98.7635 63.1845 98.2772 61.8897 97.7378 60.0552C97.2542 58.4104 96.7059 56.0109 96.794 55.9249C96.8413 55.8789 104.472 54.157 104.751 54.1292C104.804 54.124 104.847 54.1619 104.847 54.2135ZM95.6848 65.0409L96.977 65.6327L97.609 66.8942C97.9566 67.588 98.544 68.6585 98.9143 69.2732C99.2845 69.8878 99.5154 70.364 99.4274 70.3314C99.2986 70.2837 95.379 69.0526 92.1227 68.0372C91.533 67.8534 91.5052 67.8208 90.8165 66.5092C90.1878 65.3119 89.1116 62.8859 88.8846 62.1541C88.8111 61.9173 89.1899 62.0584 91.596 63.1639C93.1342 63.8706 94.9742 64.7152 95.6848 65.0409ZM108.165 65.9282C108.638 66.9591 109.262 68.1962 109.553 68.6772L110.083 69.5519L109.421 69.6999C109.057 69.7812 107.532 70.1137 106.031 70.4388C103.365 71.0163 103.298 71.0243 103.106 70.7906C102.317 69.8347 99.6986 65.644 99.8661 65.6062C105.239 64.3948 106.997 64.0141 107.135 64.0318C107.229 64.044 107.693 64.8973 108.165 65.9282ZM103.372 74.9221C103.936 75.4622 104.86 76.2379 105.424 76.6459C105.989 77.054 106.48 77.4169 106.515 77.4523C106.692 77.6299 103.64 77.3664 102.667 77.1201C99.9296 76.4276 96.914 74.5361 94.7496 72.1547L93.952 71.277L98.1489 72.6086L102.346 73.9403L103.372 74.9221ZM112.713 73.1656C113.896 74.5518 115.199 75.7561 116.692 76.8431L117.611 77.5116L115.366 77.4545C113.411 77.4047 112.972 77.3543 111.967 77.063C110.519 76.6435 108.992 75.9411 107.776 75.1354C106.881 74.5423 105.461 73.4214 105.393 73.254C105.364 73.1836 110.91 71.913 111.399 71.878C111.511 71.8701 112.102 72.4494 112.713 73.1656Z" fill="#EB595A"/>
<path fill-rule="evenodd" clip-rule="evenodd" d="M102.917 16.2012C99.1831 16.8599 95.2372 19.2781 92.2691 22.7263C88.0289 27.6524 85.3623 34.1635 84.234 42.3458C83.922 44.6076 83.922 51.3861 84.234 53.6479C84.9799 59.0573 86.2867 63.4192 88.362 67.4277C91.9212 74.3017 97.2565 78.7989 103.051 79.8094C104.54 80.0688 127.46 80.0611 128.994 79.8005C137.546 78.3478 144.926 69.0867 147.246 56.8968C147.906 53.4291 148 52.3154 148 47.9969C148 43.6783 147.906 42.5646 147.246 39.0969C144.926 26.907 137.546 17.6459 128.994 16.1932C127.45 15.9308 104.409 15.9379 102.917 16.2012ZM106.444 18.6062C106.377 18.6607 105.862 19.0403 105.299 19.4497C103.035 21.095 100.507 23.9861 98.7524 26.9351C98.636 27.1309 98.3874 27.0262 96.3503 25.923C95.1007 25.2462 94.0768 24.6538 94.0751 24.6067C94.0677 24.3985 96.6751 21.9637 97.6607 21.2584C99.4274 19.9944 101.509 19.0701 103.436 18.6934C104.353 18.5144 106.639 18.448 106.444 18.6062ZM116.508 19.2851C115.084 20.3128 113.083 22.2772 111.929 23.7791C111.417 24.4451 110.898 25.0204 110.777 25.0576C110.192 25.2367 101.967 26.9892 101.921 26.9445C101.83 26.8556 103.077 25.1903 104.078 24.0651C106.201 21.6769 108.858 19.8933 111.504 19.0804C113.002 18.6201 113.622 18.5384 115.738 18.5216L117.585 18.507L116.508 19.2851ZM129.412 18.8736C129.977 19.0216 131.076 19.4448 131.856 19.8142C137.955 22.7031 142.705 29.9401 144.612 39.2499C145.272 42.4704 145.437 44.2149 145.437 47.9969C145.437 51.7788 145.272 53.5233 144.612 56.7438C142.513 66.9899 136.912 74.7484 130.054 76.9084C122.81 79.19 115.327 74.7332 110.81 65.4472C109.087 61.9037 107.91 57.7388 107.329 53.1201C107.014 50.6216 107.015 45.403 107.331 42.8736C108.366 34.5785 111.416 27.6345 116.007 23.1202C118.36 20.8067 121.117 19.2696 123.96 18.6864C125.209 18.4305 128.101 18.5297 129.412 18.8736ZM124.345 21.4374C118.914 22.5715 114.098 28.1831 111.584 36.3076C110.466 39.9181 109.934 43.6905 109.934 47.9969C109.934 51.285 110.142 53.4267 110.748 56.3747C112.426 64.5375 116.66 71.197 121.716 73.6228C123.503 74.4807 124.325 74.6697 126.269 74.6697C128.215 74.6697 129.038 74.4802 130.823 73.621C135.489 71.3751 139.385 65.7001 141.345 58.2931C142.252 54.8642 142.608 51.963 142.608 47.9969C142.608 45.071 142.469 43.3075 142.044 40.8743C140.756 33.4995 137.514 27.2589 133.196 23.8485C132.005 22.9071 130.017 21.879 128.771 21.559C127.699 21.2838 125.385 21.2202 124.345 21.4374ZM128.684 24.2395C130.09 24.7395 131.361 25.5776 132.683 26.8774C134.158 28.3269 135.312 29.9477 136.466 32.1898C138.885 36.8911 140.009 41.9046 140.01 47.9985C140.01 51.71 139.651 54.5616 138.767 57.8541C138.155 60.1374 137.589 61.5957 136.46 63.8039C135.312 66.0479 134.157 67.6726 132.683 69.114C131.358 70.4106 130.088 71.2515 128.678 71.7669C127.761 72.1019 127.442 72.156 126.334 72.1637C124.921 72.1735 124.281 72.0156 122.789 71.2896C118.851 69.3734 115.227 63.7973 113.574 57.1137C112.764 53.8367 112.493 51.0852 112.58 47.0147C112.649 43.8129 112.778 42.5837 113.321 39.9996C115.131 31.3797 119.962 24.8293 125.243 23.8333C126.048 23.6815 127.644 23.8699 128.684 24.2395ZM124.829 26.6723C120.976 27.9514 117.272 33.8117 115.882 40.8258C114.994 45.3089 114.994 50.6848 115.882 55.1679C117.074 61.1832 119.988 66.428 123.356 68.6186C124.191 69.1621 125.515 69.6144 126.269 69.6144C127.593 69.6144 129.332 68.7377 130.749 67.3562C138.21 60.0842 139.603 42.7417 133.563 32.3148C131.829 29.3219 129.65 27.2501 127.58 26.6273C126.519 26.3082 125.895 26.3183 124.829 26.6723ZM95.0255 28.1247C96.3387 28.8441 97.3851 29.4907 97.3509 29.5617C96.9135 30.4664 95.8782 33.1377 95.5023 34.3311L95.0227 35.8545L92.2062 34.2875C90.6573 33.4255 89.3741 32.7074 89.3549 32.6916C89.3026 32.6489 90.1185 30.8241 90.669 29.7531C91.3531 28.4216 92.4107 26.7347 92.5336 26.779C92.5908 26.7998 93.7122 27.4052 95.0255 28.1247ZM108.323 29.7004C107.908 30.5885 107.408 31.7649 107.212 32.3148C107.016 32.8646 106.847 33.3282 106.836 33.345C106.807 33.3888 98.2715 35.2482 98.0925 35.2499C97.8507 35.2521 98.5227 33.3192 99.5402 31.0861L100.031 30.009L100.675 29.8775C101.03 29.8051 103.051 29.3643 105.168 28.8978C107.285 28.4315 109.03 28.0578 109.048 28.0677C109.065 28.0776 108.739 28.8123 108.323 29.7004ZM127.464 29.3559C128.757 30.0275 130.628 32.245 131.752 34.439C132.966 36.8102 133.945 39.9569 134.433 43.0611C134.769 45.2037 134.769 50.79 134.433 52.9327C133.938 56.0817 132.958 59.2119 131.714 61.6172C130.185 64.5763 127.725 67.0244 126.281 67.0244C125.591 67.0244 124.781 66.563 123.724 65.5666C121.335 63.3158 119.444 59.4467 118.465 54.807C117.512 50.2881 117.605 44.5308 118.703 40.1246C119.717 36.0582 121.374 32.7821 123.494 30.652C124.452 29.689 124.98 29.3142 125.741 29.0539C126.292 28.8657 126.636 28.9259 127.464 29.3559ZM91.8272 37.0188L94.3927 38.4376L94.1138 40.0626C93.9604 40.9564 93.7584 42.4273 93.6649 43.3315L93.4948 44.9753L90.2326 43.6728C88.4384 42.9565 86.9465 42.3469 86.9171 42.3184C86.7617 42.1669 87.6492 37.7879 88.2434 35.7754L88.4391 35.1127L88.8504 35.3563C89.0765 35.4903 90.4161 36.2385 91.8272 37.0188ZM105.736 37.0319C105.488 37.9692 104.929 41.0781 104.754 42.4945L104.655 43.3025L100.55 44.2067C98.2923 44.704 96.368 45.1136 96.2739 45.1168C96.1382 45.1216 96.1202 44.9217 96.1878 44.1544C96.3692 42.0915 97.0056 38.3521 97.2097 38.1495C97.2576 38.1018 99.2412 37.6319 101.617 37.1054C103.993 36.5787 105.946 36.1429 105.957 36.1369C105.967 36.1308 105.868 36.5336 105.736 37.0319ZM90.5444 46.5562L93.3665 47.6902L93.4496 49.4367C93.4954 50.3973 93.5717 51.6215 93.6193 52.1572L93.7058 53.131L93.2797 52.9608C93.0452 52.8672 91.4259 52.2322 89.6812 51.5496L86.5092 50.3086L86.5064 48.233C86.505 47.0914 86.54 45.8998 86.5843 45.5851L86.6648 45.0126L87.1936 45.2174C87.4844 45.3302 88.9923 45.9326 90.5444 46.5562ZM104.464 48.1531C104.464 49.3386 104.5 50.593 104.543 50.9405L104.621 51.5724L100.533 52.4588C98.2846 52.9465 96.4247 53.3264 96.3999 53.3032C96.3148 53.2239 96.1495 51.4367 96.0585 49.6167L95.9678 47.8002L99.9907 46.9121C102.203 46.4236 104.114 46.018 104.238 46.0108C104.444 45.9987 104.463 46.1789 104.464 48.1531ZM94.0556 56.0613C94.0911 56.0961 94.2519 56.7558 94.4125 57.5276C94.5732 58.2992 94.9033 59.6335 95.146 60.4926C95.3887 61.3516 95.5698 62.0721 95.5485 62.0936C95.5271 62.1151 93.9018 61.3957 91.9367 60.4951C89.9715 59.5944 88.2338 58.8256 88.0751 58.7868C87.9164 58.7479 87.7865 58.6858 87.7865 58.6487C87.7865 58.6117 87.6413 57.9008 87.4637 57.0691C87.2862 56.2373 87.0653 55.0167 86.9729 54.3567L86.805 53.1566L90.3979 54.5775C92.374 55.3589 94.0199 56.0267 94.0556 56.0613ZM104.847 54.2135C104.847 54.6912 105.47 57.841 105.887 59.4719C106.174 60.5944 106.389 61.5288 106.365 61.5484C106.33 61.5779 99.2418 63.112 98.905 63.1631C98.7635 63.1845 98.2772 61.8897 97.7378 60.0552C97.2542 58.4104 96.7059 56.0109 96.794 55.9249C96.8413 55.8789 104.472 54.157 104.751 54.1292C104.804 54.124 104.847 54.1619 104.847 54.2135ZM95.6848 65.0409L96.977 65.6327L97.609 66.8942C97.9566 67.588 98.544 68.6585 98.9143 69.2732C99.2845 69.8878 99.5154 70.364 99.4274 70.3314C99.2986 70.2837 95.379 69.0526 92.1227 68.0372C91.533 67.8534 91.5052 67.8208 90.8165 66.5092C90.1878 65.3119 89.1116 62.8859 88.8846 62.1541C88.8111 61.9173 89.1899 62.0584 91.596 63.1639C93.1342 63.8706 94.9742 64.7152 95.6848 65.0409ZM108.165 65.9282C108.638 66.9591 109.262 68.1962 109.553 68.6772L110.083 69.5519L109.421 69.6999C109.057 69.7812 107.532 70.1137 106.031 70.4388C103.365 71.0163 103.298 71.0243 103.106 70.7906C102.317 69.8347 99.6986 65.644 99.8661 65.6062C105.239 64.3948 106.997 64.0141 107.135 64.0318C107.229 64.044 107.693 64.8973 108.165 65.9282ZM103.372 74.9221C103.936 75.4622 104.86 76.2379 105.424 76.6459C105.989 77.054 106.48 77.4169 106.515 77.4523C106.692 77.6299 103.64 77.3664 102.667 77.1201C99.9296 76.4276 96.914 74.5361 94.7496 72.1547L93.952 71.277L98.1489 72.6086L102.346 73.9403L103.372 74.9221ZM112.713 73.1656C113.896 74.5518 115.199 75.7561 116.692 76.8431L117.611 77.5116L115.366 77.4545C113.411 77.4047 112.972 77.3543 111.967 77.063C110.519 76.6435 108.992 75.9411 107.776 75.1354C106.881 74.5423 105.461 73.4214 105.393 73.254C105.364 73.1836 110.91 71.913 111.399 71.878C111.511 71.8701 112.102 72.4494 112.713 73.1656Z" fill="#EB595A"/>
<path fill-rule="evenodd" clip-rule="evenodd" d="M102.917 16.2012C99.1831 16.8599 95.2372 19.2781 92.2691 22.7263C88.0289 27.6524 85.3623 34.1635 84.234 42.3458C83.922 44.6076 83.922 51.3861 84.234 53.6479C84.9799 59.0573 86.2867 63.4192 88.362 67.4277C91.9212 74.3017 97.2565 78.7989 103.051 79.8094C104.54 80.0688 127.46 80.0611 128.994 79.8005C137.546 78.3478 144.926 69.0867 147.246 56.8968C147.906 53.4291 148 52.3154 148 47.9969C148 43.6783 147.906 42.5646 147.246 39.0969C144.926 26.907 137.546 17.6459 128.994 16.1932C127.45 15.9308 104.409 15.9379 102.917 16.2012ZM106.444 18.6062C106.377 18.6607 105.862 19.0403 105.299 19.4497C103.035 21.095 100.507 23.9861 98.7524 26.9351C98.636 27.1309 98.3874 27.0262 96.3503 25.923C95.1007 25.2462 94.0768 24.6538 94.0751 24.6067C94.0677 24.3985 96.6751 21.9637 97.6607 21.2584C99.4274 19.9944 101.509 19.0701 103.436 18.6934C104.353 18.5144 106.639 18.448 106.444 18.6062ZM116.508 19.2851C115.084 20.3128 113.083 22.2772 111.929 23.7791C111.417 24.4451 110.898 25.0204 110.777 25.0576C110.192 25.2367 101.967 26.9892 101.921 26.9445C101.83 26.8556 103.077 25.1903 104.078 24.0651C106.201 21.6769 108.858 19.8933 111.504 19.0804C113.002 18.6201 113.622 18.5384 115.738 18.5216L117.585 18.507L116.508 19.2851ZM129.412 18.8736C129.977 19.0216 131.076 19.4448 131.856 19.8142C137.955 22.7031 142.705 29.9401 144.612 39.2499C145.272 42.4704 145.437 44.2149 145.437 47.9969C145.437 51.7788 145.272 53.5233 144.612 56.7438C142.513 66.9899 136.912 74.7484 130.054 76.9084C122.81 79.19 115.327 74.7332 110.81 65.4472C109.087 61.9037 107.91 57.7388 107.329 53.1201C107.014 50.6216 107.015 45.403 107.331 42.8736C108.366 34.5785 111.416 27.6345 116.007 23.1202C118.36 20.8067 121.117 19.2696 123.96 18.6864C125.209 18.4305 128.101 18.5297 129.412 18.8736ZM124.345 21.4374C118.914 22.5715 114.098 28.1831 111.584 36.3076C110.466 39.9181 109.934 43.6905 109.934 47.9969C109.934 51.285 110.142 53.4267 110.748 56.3747C112.426 64.5375 116.66 71.197 121.716 73.6228C123.503 74.4807 124.325 74.6697 126.269 74.6697C128.215 74.6697 129.038 74.4802 130.823 73.621C135.489 71.3751 139.385 65.7001 141.345 58.2931C142.252 54.8642 142.608 51.963 142.608 47.9969C142.608 45.071 142.469 43.3075 142.044 40.8743C140.756 33.4995 137.514 27.2589 133.196 23.8485C132.005 22.9071 130.017 21.879 128.771 21.559C127.699 21.2838 125.385 21.2202 124.345 21.4374ZM128.684 24.2395C130.09 24.7395 131.361 25.5776 132.683 26.8774C134.158 28.3269 135.312 29.9477 136.466 32.1898C138.885 36.8911 140.009 41.9046 140.01 47.9985C140.01 51.71 139.651 54.5616 138.767 57.8541C138.155 60.1374 137.589 61.5957 136.46 63.8039C135.312 66.0479 134.157 67.6726 132.683 69.114C131.358 70.4106 130.088 71.2515 128.678 71.7669C127.761 72.1019 127.442 72.156 126.334 72.1637C124.921 72.1735 124.281 72.0156 122.789 71.2896C118.851 69.3734 115.227 63.7973 113.574 57.1137C112.764 53.8367 112.493 51.0852 112.58 47.0147C112.649 43.8129 112.778 42.5837 113.321 39.9996C115.131 31.3797 119.962 24.8293 125.243 23.8333C126.048 23.6815 127.644 23.8699 128.684 24.2395ZM124.829 26.6723C120.976 27.9514 117.272 33.8117 115.882 40.8258C114.994 45.3089 114.994 50.6848 115.882 55.1679C117.074 61.1832 119.988 66.428 123.356 68.6186C124.191 69.1621 125.515 69.6144 126.269 69.6144C127.593 69.6144 129.332 68.7377 130.749 67.3562C138.21 60.0842 139.603 42.7417 133.563 32.3148C131.829 29.3219 129.65 27.2501 127.58 26.6273C126.519 26.3082 125.895 26.3183 124.829 26.6723ZM95.0255 28.1247C96.3387 28.8441 97.3851 29.4907 97.3509 29.5617C96.9135 30.4664 95.8782 33.1377 95.5023 34.3311L95.0227 35.8545L92.2062 34.2875C90.6573 33.4255 89.3741 32.7074 89.3549 32.6916C89.3026 32.6489 90.1185 30.8241 90.669 29.7531C91.3531 28.4216 92.4107 26.7347 92.5336 26.779C92.5908 26.7998 93.7122 27.4052 95.0255 28.1247ZM108.323 29.7004C107.908 30.5885 107.408 31.7649 107.212 32.3148C107.016 32.8646 106.847 33.3282 106.836 33.345C106.807 33.3888 98.2715 35.2482 98.0925 35.2499C97.8507 35.2521 98.5227 33.3192 99.5402 31.0861L100.031 30.009L100.675 29.8775C101.03 29.8051 103.051 29.3643 105.168 28.8978C107.285 28.4315 109.03 28.0578 109.048 28.0677C109.065 28.0776 108.739 28.8123 108.323 29.7004ZM127.464 29.3559C128.757 30.0275 130.628 32.245 131.752 34.439C132.966 36.8102 133.945 39.9569 134.433 43.0611C134.769 45.2037 134.769 50.79 134.433 52.9327C133.938 56.0817 132.958 59.2119 131.714 61.6172C130.185 64.5763 127.725 67.0244 126.281 67.0244C125.591 67.0244 124.781 66.563 123.724 65.5666C121.335 63.3158 119.444 59.4467 118.465 54.807C117.512 50.2881 117.605 44.5308 118.703 40.1246C119.717 36.0582 121.374 32.7821 123.494 30.652C124.452 29.689 124.98 29.3142 125.741 29.0539C126.292 28.8657 126.636 28.9259 127.464 29.3559ZM91.8272 37.0188L94.3927 38.4376L94.1138 40.0626C93.9604 40.9564 93.7584 42.4273 93.6649 43.3315L93.4948 44.9753L90.2326 43.6728C88.4384 42.9565 86.9465 42.3469 86.9171 42.3184C86.7617 42.1669 87.6492 37.7879 88.2434 35.7754L88.4391 35.1127L88.8504 35.3563C89.0765 35.4903 90.4161 36.2385 91.8272 37.0188ZM105.736 37.0319C105.488 37.9692 104.929 41.0781 104.754 42.4945L104.655 43.3025L100.55 44.2067C98.2923 44.704 96.368 45.1136 96.2739 45.1168C96.1382 45.1216 96.1202 44.9217 96.1878 44.1544C96.3692 42.0915 97.0056 38.3521 97.2097 38.1495C97.2576 38.1018 99.2412 37.6319 101.617 37.1054C103.993 36.5787 105.946 36.1429 105.957 36.1369C105.967 36.1308 105.868 36.5336 105.736 37.0319ZM90.5444 46.5562L93.3665 47.6902L93.4496 49.4367C93.4954 50.3973 93.5717 51.6215 93.6193 52.1572L93.7058 53.131L93.2797 52.9608C93.0452 52.8672 91.4259 52.2322 89.6812 51.5496L86.5092 50.3086L86.5064 48.233C86.505 47.0914 86.54 45.8998 86.5843 45.5851L86.6648 45.0126L87.1936 45.2174C87.4844 45.3302 88.9923 45.9326 90.5444 46.5562ZM104.464 48.1531C104.464 49.3386 104.5 50.593 104.543 50.9405L104.621 51.5724L100.533 52.4588C98.2846 52.9465 96.4247 53.3264 96.3999 53.3032C96.3148 53.2239 96.1495 51.4367 96.0585 49.6167L95.9678 47.8002L99.9907 46.9121C102.203 46.4236 104.114 46.018 104.238 46.0108C104.444 45.9987 104.463 46.1789 104.464 48.1531ZM94.0556 56.0613C94.0911 56.0961 94.2519 56.7558 94.4125 57.5276C94.5732 58.2992 94.9033 59.6335 95.146 60.4926C95.3887 61.3516 95.5698 62.0721 95.5485 62.0936C95.5271 62.1151 93.9018 61.3957 91.9367 60.4951C89.9715 59.5944 88.2338 58.8256 88.0751 58.7868C87.9164 58.7479 87.7865 58.6858 87.7865 58.6487C87.7865 58.6117 87.6413 57.9008 87.4637 57.0691C87.2862 56.2373 87.0653 55.0167 86.9729 54.3567L86.805 53.1566L90.3979 54.5775C92.374 55.3589 94.0199 56.0267 94.0556 56.0613ZM104.847 54.2135C104.847 54.6912 105.47 57.841 105.887 59.4719C106.174 60.5944 106.389 61.5288 106.365 61.5484C106.33 61.5779 99.2418 63.112 98.905 63.1631C98.7635 63.1845 98.2772 61.8897 97.7378 60.0552C97.2542 58.4104 96.7059 56.0109 96.794 55.9249C96.8413 55.8789 104.472 54.157 104.751 54.1292C104.804 54.124 104.847 54.1619 104.847 54.2135ZM95.6848 65.0409L96.977 65.6327L97.609 66.8942C97.9566 67.588 98.544 68.6585 98.9143 69.2732C99.2845 69.8878 99.5154 70.364 99.4274 70.3314C99.2986 70.2837 95.379 69.0526 92.1227 68.0372C91.533 67.8534 91.5052 67.8208 90.8165 66.5092C90.1878 65.3119 89.1116 62.8859 88.8846 62.1541C88.8111 61.9173 89.1899 62.0584 91.596 63.1639C93.1342 63.8706 94.9742 64.7152 95.6848 65.0409ZM108.165 65.9282C108.638 66.9591 109.262 68.1962 109.553 68.6772L110.083 69.5519L109.421 69.6999C109.057 69.7812 107.532 70.1137 106.031 70.4388C103.365 71.0163 103.298 71.0243 103.106 70.7906C102.317 69.8347 99.6986 65.644 99.8661 65.6062C105.239 64.3948 106.997 64.0141 107.135 64.0318C107.229 64.044 107.693 64.8973 108.165 65.9282ZM103.372 74.9221C103.936 75.4622 104.86 76.2379 105.424 76.6459C105.989 77.054 106.48 77.4169 106.515 77.4523C106.692 77.6299 103.64 77.3664 102.667 77.1201C99.9296 76.4276 96.914 74.5361 94.7496 72.1547L93.952 71.277L98.1489 72.6086L102.346 73.9403L103.372 74.9221ZM112.713 73.1656C113.896 74.5518 115.199 75.7561 116.692 76.8431L117.611 77.5116L115.366 77.4545C113.411 77.4047 112.972 77.3543 111.967 77.063C110.519 76.6435 108.992 75.9411 107.776 75.1354C106.881 74.5423 105.461 73.4214 105.393 73.254C105.364 73.1836 110.91 71.913 111.399 71.878C111.511 71.8701 112.102 72.4494 112.713 73.1656Z" fill="#EB595A"/>
<path fill-rule="evenodd" clip-rule="evenodd" d="M102.917 16.2012C99.1831 16.8599 95.2372 19.2781 92.2691 22.7263C88.0289 27.6524 85.3623 34.1635 84.234 42.3458C83.922 44.6076 83.922 51.3861 84.234 53.6479C84.9799 59.0573 86.2867 63.4192 88.362 67.4277C91.9212 74.3017 97.2565 78.7989 103.051 79.8094C104.54 80.0688 127.46 80.0611 128.994 79.8005C137.546 78.3478 144.926 69.0867 147.246 56.8968C147.906 53.4291 148 52.3154 148 47.9969C148 43.6783 147.906 42.5646 147.246 39.0969C144.926 26.907 137.546 17.6459 128.994 16.1932C127.45 15.9308 104.409 15.9379 102.917 16.2012ZM106.444 18.6062C106.377 18.6607 105.862 19.0403 105.299 19.4497C103.035 21.095 100.507 23.9861 98.7524 26.9351C98.636 27.1309 98.3874 27.0262 96.3503 25.923C95.1007 25.2462 94.0768 24.6538 94.0751 24.6067C94.0677 24.3985 96.6751 21.9637 97.6607 21.2584C99.4274 19.9944 101.509 19.0701 103.436 18.6934C104.353 18.5144 106.639 18.448 106.444 18.6062ZM116.508 19.2851C115.084 20.3128 113.083 22.2772 111.929 23.7791C111.417 24.4451 110.898 25.0204 110.777 25.0576C110.192 25.2367 101.967 26.9892 101.921 26.9445C101.83 26.8556 103.077 25.1903 104.078 24.0651C106.201 21.6769 108.858 19.8933 111.504 19.0804C113.002 18.6201 113.622 18.5384 115.738 18.5216L117.585 18.507L116.508 19.2851ZM129.412 18.8736C129.977 19.0216 131.076 19.4448 131.856 19.8142C137.955 22.7031 142.705 29.9401 144.612 39.2499C145.272 42.4704 145.437 44.2149 145.437 47.9969C145.437 51.7788 145.272 53.5233 144.612 56.7438C142.513 66.9899 136.912 74.7484 130.054 76.9084C122.81 79.19 115.327 74.7332 110.81 65.4472C109.087 61.9037 107.91 57.7388 107.329 53.1201C107.014 50.6216 107.015 45.403 107.331 42.8736C108.366 34.5785 111.416 27.6345 116.007 23.1202C118.36 20.8067 121.117 19.2696 123.96 18.6864C125.209 18.4305 128.101 18.5297 129.412 18.8736ZM124.345 21.4374C118.914 22.5715 114.098 28.1831 111.584 36.3076C110.466 39.9181 109.934 43.6905 109.934 47.9969C109.934 51.285 110.142 53.4267 110.748 56.3747C112.426 64.5375 116.66 71.197 121.716 73.6228C123.503 74.4807 124.325 74.6697 126.269 74.6697C128.215 74.6697 129.038 74.4802 130.823 73.621C135.489 71.3751 139.385 65.7001 141.345 58.2931C142.252 54.8642 142.608 51.963 142.608 47.9969C142.608 45.071 142.469 43.3075 142.044 40.8743C140.756 33.4995 137.514 27.2589 133.196 23.8485C132.005 22.9071 130.017 21.879 128.771 21.559C127.699 21.2838 125.385 21.2202 124.345 21.4374ZM128.684 24.2395C130.09 24.7395 131.361 25.5776 132.683 26.8774C134.158 28.3269 135.312 29.9477 136.466 32.1898C138.885 36.8911 140.009 41.9046 140.01 47.9985C140.01 51.71 139.651 54.5616 138.767 57.8541C138.155 60.1374 137.589 61.5957 136.46 63.8039C135.312 66.0479 134.157 67.6726 132.683 69.114C131.358 70.4106 130.088 71.2515 128.678 71.7669C127.761 72.1019 127.442 72.156 126.334 72.1637C124.921 72.1735 124.281 72.0156 122.789 71.2896C118.851 69.3734 115.227 63.7973 113.574 57.1137C112.764 53.8367 112.493 51.0852 112.58 47.0147C112.649 43.8129 112.778 42.5837 113.321 39.9996C115.131 31.3797 119.962 24.8293 125.243 23.8333C126.048 23.6815 127.644 23.8699 128.684 24.2395ZM124.829 26.6723C120.976 27.9514 117.272 33.8117 115.882 40.8258C114.994 45.3089 114.994 50.6848 115.882 55.1679C117.074 61.1832 119.988 66.428 123.356 68.6186C124.191 69.1621 125.515 69.6144 126.269 69.6144C127.593 69.6144 129.332 68.7377 130.749 67.3562C138.21 60.0842 139.603 42.7417 133.563 32.3148C131.829 29.3219 129.65 27.2501 127.58 26.6273C126.519 26.3082 125.895 26.3183 124.829 26.6723ZM95.0255 28.1247C96.3387 28.8441 97.3851 29.4907 97.3509 29.5617C96.9135 30.4664 95.8782 33.1377 95.5023 34.3311L95.0227 35.8545L92.2062 34.2875C90.6573 33.4255 89.3741 32.7074 89.3549 32.6916C89.3026 32.6489 90.1185 30.8241 90.669 29.7531C91.3531 28.4216 92.4107 26.7347 92.5336 26.779C92.5908 26.7998 93.7122 27.4052 95.0255 28.1247ZM108.323 29.7004C107.908 30.5885 107.408 31.7649 107.212 32.3148C107.016 32.8646 106.847 33.3282 106.836 33.345C106.807 33.3888 98.2715 35.2482 98.0925 35.2499C97.8507 35.2521 98.5227 33.3192 99.5402 31.0861L100.031 30.009L100.675 29.8775C101.03 29.8051 103.051 29.3643 105.168 28.8978C107.285 28.4315 109.03 28.0578 109.048 28.0677C109.065 28.0776 108.739 28.8123 108.323 29.7004ZM127.464 29.3559C128.757 30.0275 130.628 32.245 131.752 34.439C132.966 36.8102 133.945 39.9569 134.433 43.0611C134.769 45.2037 134.769 50.79 134.433 52.9327C133.938 56.0817 132.958 59.2119 131.714 61.6172C130.185 64.5763 127.725 67.0244 126.281 67.0244C125.591 67.0244 124.781 66.563 123.724 65.5666C121.335 63.3158 119.444 59.4467 118.465 54.807C117.512 50.2881 117.605 44.5308 118.703 40.1246C119.717 36.0582 121.374 32.7821 123.494 30.652C124.452 29.689 124.98 29.3142 125.741 29.0539C126.292 28.8657 126.636 28.9259 127.464 29.3559ZM91.8272 37.0188L94.3927 38.4376L94.1138 40.0626C93.9604 40.9564 93.7584 42.4273 93.6649 43.3315L93.4948 44.9753L90.2326 43.6728C88.4384 42.9565 86.9465 42.3469 86.9171 42.3184C86.7617 42.1669 87.6492 37.7879 88.2434 35.7754L88.4391 35.1127L88.8504 35.3563C89.0765 35.4903 90.4161 36.2385 91.8272 37.0188ZM105.736 37.0319C105.488 37.9692 104.929 41.0781 104.754 42.4945L104.655 43.3025L100.55 44.2067C98.2923 44.704 96.368 45.1136 96.2739 45.1168C96.1382 45.1216 96.1202 44.9217 96.1878 44.1544C96.3692 42.0915 97.0056 38.3521 97.2097 38.1495C97.2576 38.1018 99.2412 37.6319 101.617 37.1054C103.993 36.5787 105.946 36.1429 105.957 36.1369C105.967 36.1308 105.868 36.5336 105.736 37.0319ZM90.5444 46.5562L93.3665 47.6902L93.4496 49.4367C93.4954 50.3973 93.5717 51.6215 93.6193 52.1572L93.7058 53.131L93.2797 52.9608C93.0452 52.8672 91.4259 52.2322 89.6812 51.5496L86.5092 50.3086L86.5064 48.233C86.505 47.0914 86.54 45.8998 86.5843 45.5851L86.6648 45.0126L87.1936 45.2174C87.4844 45.3302 88.9923 45.9326 90.5444 46.5562ZM104.464 48.1531C104.464 49.3386 104.5 50.593 104.543 50.9405L104.621 51.5724L100.533 52.4588C98.2846 52.9465 96.4247 53.3264 96.3999 53.3032C96.3148 53.2239 96.1495 51.4367 96.0585 49.6167L95.9678 47.8002L99.9907 46.9121C102.203 46.4236 104.114 46.018 104.238 46.0108C104.444 45.9987 104.463 46.1789 104.464 48.1531ZM94.0556 56.0613C94.0911 56.0961 94.2519 56.7558 94.4125 57.5276C94.5732 58.2992 94.9033 59.6335 95.146 60.4926C95.3887 61.3516 95.5698 62.0721 95.5485 62.0936C95.5271 62.1151 93.9018 61.3957 91.9367 60.4951C89.9715 59.5944 88.2338 58.8256 88.0751 58.7868C87.9164 58.7479 87.7865 58.6858 87.7865 58.6487C87.7865 58.6117 87.6413 57.9008 87.4637 57.0691C87.2862 56.2373 87.0653 55.0167 86.9729 54.3567L86.805 53.1566L90.3979 54.5775C92.374 55.3589 94.0199 56.0267 94.0556 56.0613ZM104.847 54.2135C104.847 54.6912 105.47 57.841 105.887 59.4719C106.174 60.5944 106.389 61.5288 106.365 61.5484C106.33 61.5779 99.2418 63.112 98.905 63.1631C98.7635 63.1845 98.2772 61.8897 97.7378 60.0552C97.2542 58.4104 96.7059 56.0109 96.794 55.9249C96.8413 55.8789 104.472 54.157 104.751 54.1292C104.804 54.124 104.847 54.1619 104.847 54.2135ZM95.6848 65.0409L96.977 65.6327L97.609 66.8942C97.9566 67.588 98.544 68.6585 98.9143 69.2732C99.2845 69.8878 99.5154 70.364 99.4274 70.3314C99.2986 70.2837 95.379 69.0526 92.1227 68.0372C91.533 67.8534 91.5052 67.8208 90.8165 66.5092C90.1878 65.3119 89.1116 62.8859 88.8846 62.1541C88.8111 61.9173 89.1899 62.0584 91.596 63.1639C93.1342 63.8706 94.9742 64.7152 95.6848 65.0409ZM108.165 65.9282C108.638 66.9591 109.262 68.1962 109.553 68.6772L110.083 69.5519L109.421 69.6999C109.057 69.7812 107.532 70.1137 106.031 70.4388C103.365 71.0163 103.298 71.0243 103.106 70.7906C102.317 69.8347 99.6986 65.644 99.8661 65.6062C105.239 64.3948 106.997 64.0141 107.135 64.0318C107.229 64.044 107.693 64.8973 108.165 65.9282ZM103.372 74.9221C103.936 75.4622 104.86 76.2379 105.424 76.6459C105.989 77.054 106.48 77.4169 106.515 77.4523C106.692 77.6299 103.64 77.3664 102.667 77.1201C99.9296 76.4276 96.914 74.5361 94.7496 72.1547L93.952 71.277L98.1489 72.6086L102.346 73.9403L103.372 74.9221ZM112.713 73.1656C113.896 74.5518 115.199 75.7561 116.692 76.8431L117.611 77.5116L115.366 77.4545C113.411 77.4047 112.972 77.3543 111.967 77.063C110.519 76.6435 108.992 75.9411 107.776 75.1354C106.881 74.5423 105.461 73.4214 105.393 73.254C105.364 73.1836 110.91 71.913 111.399 71.878C111.511 71.8701 112.102 72.4494 112.713 73.1656Z" fill="#EB595A"/>
<path fill-rule="evenodd" clip-rule="evenodd" d="M102.917 16.2012C99.1831 16.8599 95.2372 19.2781 92.2691 22.7263C88.0289 27.6524 85.3623 34.1635 84.234 42.3458C83.922 44.6076 83.922 51.3861 84.234 53.6479C84.9799 59.0573 86.2867 63.4192 88.362 67.4277C91.9212 74.3017 97.2565 78.7989 103.051 79.8094C104.54 80.0688 127.46 80.0611 128.994 79.8005C137.546 78.3478 144.926 69.0867 147.246 56.8968C147.906 53.4291 148 52.3154 148 47.9969C148 43.6783 147.906 42.5646 147.246 39.0969C144.926 26.907 137.546 17.6459 128.994 16.1932C127.45 15.9308 104.409 15.9379 102.917 16.2012ZM106.444 18.6062C106.377 18.6607 105.862 19.0403 105.299 19.4497C103.035 21.095 100.507 23.9861 98.7524 26.9351C98.636 27.1309 98.3874 27.0262 96.3503 25.923C95.1007 25.2462 94.0768 24.6538 94.0751 24.6067C94.0677 24.3985 96.6751 21.9637 97.6607 21.2584C99.4274 19.9944 101.509 19.0701 103.436 18.6934C104.353 18.5144 106.639 18.448 106.444 18.6062ZM116.508 19.2851C115.084 20.3128 113.083 22.2772 111.929 23.7791C111.417 24.4451 110.898 25.0204 110.777 25.0576C110.192 25.2367 101.967 26.9892 101.921 26.9445C101.83 26.8556 103.077 25.1903 104.078 24.0651C106.201 21.6769 108.858 19.8933 111.504 19.0804C113.002 18.6201 113.622 18.5384 115.738 18.5216L117.585 18.507L116.508 19.2851ZM129.412 18.8736C129.977 19.0216 131.076 19.4448 131.856 19.8142C137.955 22.7031 142.705 29.9401 144.612 39.2499C145.272 42.4704 145.437 44.2149 145.437 47.9969C145.437 51.7788 145.272 53.5233 144.612 56.7438C142.513 66.9899 136.912 74.7484 130.054 76.9084C122.81 79.19 115.327 74.7332 110.81 65.4472C109.087 61.9037 107.91 57.7388 107.329 53.1201C107.014 50.6216 107.015 45.403 107.331 42.8736C108.366 34.5785 111.416 27.6345 116.007 23.1202C118.36 20.8067 121.117 19.2696 123.96 18.6864C125.209 18.4305 128.101 18.5297 129.412 18.8736ZM124.345 21.4374C118.914 22.5715 114.098 28.1831 111.584 36.3076C110.466 39.9181 109.934 43.6905 109.934 47.9969C109.934 51.285 110.142 53.4267 110.748 56.3747C112.426 64.5375 116.66 71.197 121.716 73.6228C123.503 74.4807 124.325 74.6697 126.269 74.6697C128.215 74.6697 129.038 74.4802 130.823 73.621C135.489 71.3751 139.385 65.7001 141.345 58.2931C142.252 54.8642 142.608 51.963 142.608 47.9969C142.608 45.071 142.469 43.3075 142.044 40.8743C140.756 33.4995 137.514 27.2589 133.196 23.8485C132.005 22.9071 130.017 21.879 128.771 21.559C127.699 21.2838 125.385 21.2202 124.345 21.4374ZM128.684 24.2395C130.09 24.7395 131.361 25.5776 132.683 26.8774C134.158 28.3269 135.312 29.9477 136.466 32.1898C138.885 36.8911 140.009 41.9046 140.01 47.9985C140.01 51.71 139.651 54.5616 138.767 57.8541C138.155 60.1374 137.589 61.5957 136.46 63.8039C135.312 66.0479 134.157 67.6726 132.683 69.114C131.358 70.4106 130.088 71.2515 128.678 71.7669C127.761 72.1019 127.442 72.156 126.334 72.1637C124.921 72.1735 124.281 72.0156 122.789 71.2896C118.851 69.3734 115.227 63.7973 113.574 57.1137C112.764 53.8367 112.493 51.0852 112.58 47.0147C112.649 43.8129 112.778 42.5837 113.321 39.9996C115.131 31.3797 119.962 24.8293 125.243 23.8333C126.048 23.6815 127.644 23.8699 128.684 24.2395ZM124.829 26.6723C120.976 27.9514 117.272 33.8117 115.882 40.8258C114.994 45.3089 114.994 50.6848 115.882 55.1679C117.074 61.1832 119.988 66.428 123.356 68.6186C124.191 69.1621 125.515 69.6144 126.269 69.6144C127.593 69.6144 129.332 68.7377 130.749 67.3562C138.21 60.0842 139.603 42.7417 133.563 32.3148C131.829 29.3219 129.65 27.2501 127.58 26.6273C126.519 26.3082 125.895 26.3183 124.829 26.6723ZM95.0255 28.1247C96.3387 28.8441 97.3851 29.4907 97.3509 29.5617C96.9135 30.4664 95.8782 33.1377 95.5023 34.3311L95.0227 35.8545L92.2062 34.2875C90.6573 33.4255 89.3741 32.7074 89.3549 32.6916C89.3026 32.6489 90.1185 30.8241 90.669 29.7531C91.3531 28.4216 92.4107 26.7347 92.5336 26.779C92.5908 26.7998 93.7122 27.4052 95.0255 28.1247ZM108.323 29.7004C107.908 30.5885 107.408 31.7649 107.212 32.3148C107.016 32.8646 106.847 33.3282 106.836 33.345C106.807 33.3888 98.2715 35.2482 98.0925 35.2499C97.8507 35.2521 98.5227 33.3192 99.5402 31.0861L100.031 30.009L100.675 29.8775C101.03 29.8051 103.051 29.3643 105.168 28.8978C107.285 28.4315 109.03 28.0578 109.048 28.0677C109.065 28.0776 108.739 28.8123 108.323 29.7004ZM127.464 29.3559C128.757 30.0275 130.628 32.245 131.752 34.439C132.966 36.8102 133.945 39.9569 134.433 43.0611C134.769 45.2037 134.769 50.79 134.433 52.9327C133.938 56.0817 132.958 59.2119 131.714 61.6172C130.185 64.5763 127.725 67.0244 126.281 67.0244C125.591 67.0244 124.781 66.563 123.724 65.5666C121.335 63.3158 119.444 59.4467 118.465 54.807C117.512 50.2881 117.605 44.5308 118.703 40.1246C119.717 36.0582 121.374 32.7821 123.494 30.652C124.452 29.689 124.98 29.3142 125.741 29.0539C126.292 28.8657 126.636 28.9259 127.464 29.3559ZM91.8272 37.0188L94.3927 38.4376L94.1138 40.0626C93.9604 40.9564 93.7584 42.4273 93.6649 43.3315L93.4948 44.9753L90.2326 43.6728C88.4384 42.9565 86.9465 42.3469 86.9171 42.3184C86.7617 42.1669 87.6492 37.7879 88.2434 35.7754L88.4391 35.1127L88.8504 35.3563C89.0765 35.4903 90.4161 36.2385 91.8272 37.0188ZM105.736 37.0319C105.488 37.9692 104.929 41.0781 104.754 42.4945L104.655 43.3025L100.55 44.2067C98.2923 44.704 96.368 45.1136 96.2739 45.1168C96.1382 45.1216 96.1202 44.9217 96.1878 44.1544C96.3692 42.0915 97.0056 38.3521 97.2097 38.1495C97.2576 38.1018 99.2412 37.6319 101.617 37.1054C103.993 36.5787 105.946 36.1429 105.957 36.1369C105.967 36.1308 105.868 36.5336 105.736 37.0319ZM90.5444 46.5562L93.3665 47.6902L93.4496 49.4367C93.4954 50.3973 93.5717 51.6215 93.6193 52.1572L93.7058 53.131L93.2797 52.9608C93.0452 52.8672 91.4259 52.2322 89.6812 51.5496L86.5092 50.3086L86.5064 48.233C86.505 47.0914 86.54 45.8998 86.5843 45.5851L86.6648 45.0126L87.1936 45.2174C87.4844 45.3302 88.9923 45.9326 90.5444 46.5562ZM104.464 48.1531C104.464 49.3386 104.5 50.593 104.543 50.9405L104.621 51.5724L100.533 52.4588C98.2846 52.9465 96.4247 53.3264 96.3999 53.3032C96.3148 53.2239 96.1495 51.4367 96.0585 49.6167L95.9678 47.8002L99.9907 46.9121C102.203 46.4236 104.114 46.018 104.238 46.0108C104.444 45.9987 104.463 46.1789 104.464 48.1531ZM94.0556 56.0613C94.0911 56.0961 94.2519 56.7558 94.4125 57.5276C94.5732 58.2992 94.9033 59.6335 95.146 60.4926C95.3887 61.3516 95.5698 62.0721 95.5485 62.0936C95.5271 62.1151 93.9018 61.3957 91.9367 60.4951C89.9715 59.5944 88.2338 58.8256 88.0751 58.7868C87.9164 58.7479 87.7865 58.6858 87.7865 58.6487C87.7865 58.6117 87.6413 57.9008 87.4637 57.0691C87.2862 56.2373 87.0653 55.0167 86.9729 54.3567L86.805 53.1566L90.3979 54.5775C92.374 55.3589 94.0199 56.0267 94.0556 56.0613ZM104.847 54.2135C104.847 54.6912 105.47 57.841 105.887 59.4719C106.174 60.5944 106.389 61.5288 106.365 61.5484C106.33 61.5779 99.2418 63.112 98.905 63.1631C98.7635 63.1845 98.2772 61.8897 97.7378 60.0552C97.2542 58.4104 96.7059 56.0109 96.794 55.9249C96.8413 55.8789 104.472 54.157 104.751 54.1292C104.804 54.124 104.847 54.1619 104.847 54.2135ZM95.6848 65.0409L96.977 65.6327L97.609 66.8942C97.9566 67.588 98.544 68.6585 98.9143 69.2732C99.2845 69.8878 99.5154 70.364 99.4274 70.3314C99.2986 70.2837 95.379 69.0526 92.1227 68.0372C91.533 67.8534 91.5052 67.8208 90.8165 66.5092C90.1878 65.3119 89.1116 62.8859 88.8846 62.1541C88.8111 61.9173 89.1899 62.0584 91.596 63.1639C93.1342 63.8706 94.9742 64.7152 95.6848 65.0409ZM108.165 65.9282C108.638 66.9591 109.262 68.1962 109.553 68.6772L110.083 69.5519L109.421 69.6999C109.057 69.7812 107.532 70.1137 106.031 70.4388C103.365 71.0163 103.298 71.0243 103.106 70.7906C102.317 69.8347 99.6986 65.644 99.8661 65.6062C105.239 64.3948 106.997 64.0141 107.135 64.0318C107.229 64.044 107.693 64.8973 108.165 65.9282ZM103.372 74.9221C103.936 75.4622 104.86 76.2379 105.424 76.6459C105.989 77.054 106.48 77.4169 106.515 77.4523C106.692 77.6299 103.64 77.3664 102.667 77.1201C99.9296 76.4276 96.914 74.5361 94.7496 72.1547L93.952 71.277L98.1489 72.6086L102.346 73.9403L103.372 74.9221ZM112.713 73.1656C113.896 74.5518 115.199 75.7561 116.692 76.8431L117.611 77.5116L115.366 77.4545C113.411 77.4047 112.972 77.3543 111.967 77.063C110.519 76.6435 108.992 75.9411 107.776 75.1354C106.881 74.5423 105.461 73.4214 105.393 73.254C105.364 73.1836 110.91 71.913 111.399 71.878C111.511 71.8701 112.102 72.4494 112.713 73.1656Z" fill="#EB595A"/>
<path fill-rule="evenodd" clip-rule="evenodd" d="M102.917 16.2012C99.1831 16.8599 95.2372 19.2781 92.2691 22.7263C88.0289 27.6524 85.3623 34.1635 84.234 42.3458C83.922 44.6076 83.922 51.3861 84.234 53.6479C84.9799 59.0573 86.2867 63.4192 88.362 67.4277C91.9212 74.3017 97.2565 78.7989 103.051 79.8094C104.54 80.0688 127.46 80.0611 128.994 79.8005C137.546 78.3478 144.926 69.0867 147.246 56.8968C147.906 53.4291 148 52.3154 148 47.9969C148 43.6783 147.906 42.5646 147.246 39.0969C144.926 26.907 137.546 17.6459 128.994 16.1932C127.45 15.9308 104.409 15.9379 102.917 16.2012ZM106.444 18.6062C106.377 18.6607 105.862 19.0403 105.299 19.4497C103.035 21.095 100.507 23.9861 98.7524 26.9351C98.636 27.1309 98.3874 27.0262 96.3503 25.923C95.1007 25.2462 94.0768 24.6538 94.0751 24.6067C94.0677 24.3985 96.6751 21.9637 97.6607 21.2584C99.4274 19.9944 101.509 19.0701 103.436 18.6934C104.353 18.5144 106.639 18.448 106.444 18.6062ZM116.508 19.2851C115.084 20.3128 113.083 22.2772 111.929 23.7791C111.417 24.4451 110.898 25.0204 110.777 25.0576C110.192 25.2367 101.967 26.9892 101.921 26.9445C101.83 26.8556 103.077 25.1903 104.078 24.0651C106.201 21.6769 108.858 19.8933 111.504 19.0804C113.002 18.6201 113.622 18.5384 115.738 18.5216L117.585 18.507L116.508 19.2851ZM129.412 18.8736C129.977 19.0216 131.076 19.4448 131.856 19.8142C137.955 22.7031 142.705 29.9401 144.612 39.2499C145.272 42.4704 145.437 44.2149 145.437 47.9969C145.437 51.7788 145.272 53.5233 144.612 56.7438C142.513 66.9899 136.912 74.7484 130.054 76.9084C122.81 79.19 115.327 74.7332 110.81 65.4472C109.087 61.9037 107.91 57.7388 107.329 53.1201C107.014 50.6216 107.015 45.403 107.331 42.8736C108.366 34.5785 111.416 27.6345 116.007 23.1202C118.36 20.8067 121.117 19.2696 123.96 18.6864C125.209 18.4305 128.101 18.5297 129.412 18.8736ZM124.345 21.4374C118.914 22.5715 114.098 28.1831 111.584 36.3076C110.466 39.9181 109.934 43.6905 109.934 47.9969C109.934 51.285 110.142 53.4267 110.748 56.3747C112.426 64.5375 116.66 71.197 121.716 73.6228C123.503 74.4807 124.325 74.6697 126.269 74.6697C128.215 74.6697 129.038 74.4802 130.823 73.621C135.489 71.3751 139.385 65.7001 141.345 58.2931C142.252 54.8642 142.608 51.963 142.608 47.9969C142.608 45.071 142.469 43.3075 142.044 40.8743C140.756 33.4995 137.514 27.2589 133.196 23.8485C132.005 22.9071 130.017 21.879 128.771 21.559C127.699 21.2838 125.385 21.2202 124.345 21.4374ZM128.684 24.2395C130.09 24.7395 131.361 25.5776 132.683 26.8774C134.158 28.3269 135.312 29.9477 136.466 32.1898C138.885 36.8911 140.009 41.9046 140.01 47.9985C140.01 51.71 139.651 54.5616 138.767 57.8541C138.155 60.1374 137.589 61.5957 136.46 63.8039C135.312 66.0479 134.157 67.6726 132.683 69.114C131.358 70.4106 130.088 71.2515 128.678 71.7669C127.761 72.1019 127.442 72.156 126.334 72.1637C124.921 72.1735 124.281 72.0156 122.789 71.2896C118.851 69.3734 115.227 63.7973 113.574 57.1137C112.764 53.8367 112.493 51.0852 112.58 47.0147C112.649 43.8129 112.778 42.5837 113.321 39.9996C115.131 31.3797 119.962 24.8293 125.243 23.8333C126.048 23.6815 127.644 23.8699 128.684 24.2395ZM124.829 26.6723C120.976 27.9514 117.272 33.8117 115.882 40.8258C114.994 45.3089 114.994 50.6848 115.882 55.1679C117.074 61.1832 119.988 66.428 123.356 68.6186C124.191 69.1621 125.515 69.6144 126.269 69.6144C127.593 69.6144 129.332 68.7377 130.749 67.3562C138.21 60.0842 139.603 42.7417 133.563 32.3148C131.829 29.3219 129.65 27.2501 127.58 26.6273C126.519 26.3082 125.895 26.3183 124.829 26.6723ZM95.0255 28.1247C96.3387 28.8441 97.3851 29.4907 97.3509 29.5617C96.9135 30.4664 95.8782 33.1377 95.5023 34.3311L95.0227 35.8545L92.2062 34.2875C90.6573 33.4255 89.3741 32.7074 89.3549 32.6916C89.3026 32.6489 90.1185 30.8241 90.669 29.7531C91.3531 28.4216 92.4107 26.7347 92.5336 26.779C92.5908 26.7998 93.7122 27.4052 95.0255 28.1247ZM108.323 29.7004C107.908 30.5885 107.408 31.7649 107.212 32.3148C107.016 32.8646 106.847 33.3282 106.836 33.345C106.807 33.3888 98.2715 35.2482 98.0925 35.2499C97.8507 35.2521 98.5227 33.3192 99.5402 31.0861L100.031 30.009L100.675 29.8775C101.03 29.8051 103.051 29.3643 105.168 28.8978C107.285 28.4315 109.03 28.0578 109.048 28.0677C109.065 28.0776 108.739 28.8123 108.323 29.7004ZM127.464 29.3559C128.757 30.0275 130.628 32.245 131.752 34.439C132.966 36.8102 133.945 39.9569 134.433 43.0611C134.769 45.2037 134.769 50.79 134.433 52.9327C133.938 56.0817 132.958 59.2119 131.714 61.6172C130.185 64.5763 127.725 67.0244 126.281 67.0244C125.591 67.0244 124.781 66.563 123.724 65.5666C121.335 63.3158 119.444 59.4467 118.465 54.807C117.512 50.2881 117.605 44.5308 118.703 40.1246C119.717 36.0582 121.374 32.7821 123.494 30.652C124.452 29.689 124.98 29.3142 125.741 29.0539C126.292 28.8657 126.636 28.9259 127.464 29.3559ZM91.8272 37.0188L94.3927 38.4376L94.1138 40.0626C93.9604 40.9564 93.7584 42.4273 93.6649 43.3315L93.4948 44.9753L90.2326 43.6728C88.4384 42.9565 86.9465 42.3469 86.9171 42.3184C86.7617 42.1669 87.6492 37.7879 88.2434 35.7754L88.4391 35.1127L88.8504 35.3563C89.0765 35.4903 90.4161 36.2385 91.8272 37.0188ZM105.736 37.0319C105.488 37.9692 104.929 41.0781 104.754 42.4945L104.655 43.3025L100.55 44.2067C98.2923 44.704 96.368 45.1136 96.2739 45.1168C96.1382 45.1216 96.1202 44.9217 96.1878 44.1544C96.3692 42.0915 97.0056 38.3521 97.2097 38.1495C97.2576 38.1018 99.2412 37.6319 101.617 37.1054C103.993 36.5787 105.946 36.1429 105.957 36.1369C105.967 36.1308 105.868 36.5336 105.736 37.0319ZM90.5444 46.5562L93.3665 47.6902L93.4496 49.4367C93.4954 50.3973 93.5717 51.6215 93.6193 52.1572L93.7058 53.131L93.2797 52.9608C93.0452 52.8672 91.4259 52.2322 89.6812 51.5496L86.5092 50.3086L86.5064 48.233C86.505 47.0914 86.54 45.8998 86.5843 45.5851L86.6648 45.0126L87.1936 45.2174C87.4844 45.3302 88.9923 45.9326 90.5444 46.5562ZM104.464 48.1531C104.464 49.3386 104.5 50.593 104.543 50.9405L104.621 51.5724L100.533 52.4588C98.2846 52.9465 96.4247 53.3264 96.3999 53.3032C96.3148 53.2239 96.1495 51.4367 96.0585 49.6167L95.9678 47.8002L99.9907 46.9121C102.203 46.4236 104.114 46.018 104.238 46.0108C104.444 45.9987 104.463 46.1789 104.464 48.1531ZM94.0556 56.0613C94.0911 56.0961 94.2519 56.7558 94.4125 57.5276C94.5732 58.2992 94.9033 59.6335 95.146 60.4926C95.3887 61.3516 95.5698 62.0721 95.5485 62.0936C95.5271 62.1151 93.9018 61.3957 91.9367 60.4951C89.9715 59.5944 88.2338 58.8256 88.0751 58.7868C87.9164 58.7479 87.7865 58.6858 87.7865 58.6487C87.7865 58.6117 87.6413 57.9008 87.4637 57.0691C87.2862 56.2373 87.0653 55.0167 86.9729 54.3567L86.805 53.1566L90.3979 54.5775C92.374 55.3589 94.0199 56.0267 94.0556 56.0613ZM104.847 54.2135C104.847 54.6912 105.47 57.841 105.887 59.4719C106.174 60.5944 106.389 61.5288 106.365 61.5484C106.33 61.5779 99.2418 63.112 98.905 63.1631C98.7635 63.1845 98.2772 61.8897 97.7378 60.0552C97.2542 58.4104 96.7059 56.0109 96.794 55.9249C96.8413 55.8789 104.472 54.157 104.751 54.1292C104.804 54.124 104.847 54.1619 104.847 54.2135ZM95.6848 65.0409L96.977 65.6327L97.609 66.8942C97.9566 67.588 98.544 68.6585 98.9143 69.2732C99.2845 69.8878 99.5154 70.364 99.4274 70.3314C99.2986 70.2837 95.379 69.0526 92.1227 68.0372C91.533 67.8534 91.5052 67.8208 90.8165 66.5092C90.1878 65.3119 89.1116 62.8859 88.8846 62.1541C88.8111 61.9173 89.1899 62.0584 91.596 63.1639C93.1342 63.8706 94.9742 64.7152 95.6848 65.0409ZM108.165 65.9282C108.638 66.9591 109.262 68.1962 109.553 68.6772L110.083 69.5519L109.421 69.6999C109.057 69.7812 107.532 70.1137 106.031 70.4388C103.365 71.0163 103.298 71.0243 103.106 70.7906C102.317 69.8347 99.6986 65.644 99.8661 65.6062C105.239 64.3948 106.997 64.0141 107.135 64.0318C107.229 64.044 107.693 64.8973 108.165 65.9282ZM103.372 74.9221C103.936 75.4622 104.86 76.2379 105.424 76.6459C105.989 77.054 106.48 77.4169 106.515 77.4523C106.692 77.6299 103.64 77.3664 102.667 77.1201C99.9296 76.4276 96.914 74.5361 94.7496 72.1547L93.952 71.277L98.1489 72.6086L102.346 73.9403L103.372 74.9221ZM112.713 73.1656C113.896 74.5518 115.199 75.7561 116.692 76.8431L117.611 77.5116L115.366 77.4545C113.411 77.4047 112.972 77.3543 111.967 77.063C110.519 76.6435 108.992 75.9411 107.776 75.1354C106.881 74.5423 105.461 73.4214 105.393 73.254C105.364 73.1836 110.91 71.913 111.399 71.878C111.511 71.8701 112.102 72.4494 112.713 73.1656Z" fill="#EB595A"/>
</svg>
