<svg width="232" height="96" viewBox="0 0 232 96" fill="none" xmlns="http://www.w3.org/2000/svg">
<path fill-rule="evenodd" clip-rule="evenodd" d="M122.234 16.1443C120.026 16.499 117.771 17.5411 115.993 19.0286C114.809 20.0184 87.1474 51.1003 86.4372 52.238C85.2856 54.0827 84.4183 56.4795 84.102 58.6916C83.9036 60.0787 84.0097 63.6953 84.2905 65.1122C85.2584 69.9987 87.8215 74.1797 91.545 76.9462C94.4059 79.0717 97.3371 80.0199 100.986 79.9997C104.468 79.9805 107.164 79.2495 110.269 77.4819C113.307 75.7528 112.93 76.1424 128.817 58.3349C144.603 40.6419 144.202 41.1289 145.739 37.7951C147.115 34.8109 147.846 31.7685 147.968 28.5193C148.03 26.8787 148.01 26.5467 147.834 26.2458C147.524 25.7155 146.928 25.4232 146.338 25.512C145.865 25.583 145.045 26.4733 132.288 40.762C121.538 52.8026 118.715 56.0378 118.618 56.4268C118.55 56.6964 118.494 57.2953 118.494 57.7576C118.49 60.4615 117.419 64.3895 115.955 67.0735C112.457 73.4822 105.951 77.2449 99.5194 76.5773C92.243 75.8221 86.7186 68.776 87.0156 60.6294C87.0889 58.6193 87.4822 56.9923 88.282 55.3901C91.0336 49.8779 97.2922 47.4511 101.674 50.1968C104.387 51.897 106.018 54.9347 106.033 58.318C106.042 60.3453 105.424 61.9739 104.086 63.4493C101.306 66.5162 97.0177 66.034 95.4567 62.4786C95.0799 61.6207 95.0464 61.4349 95.0464 60.2079C95.0464 58.9345 95.0659 58.8374 95.4597 58.1501C96.1332 56.9748 96.9499 56.4058 98.2352 56.2165C99.424 56.0414 99.9304 55.5065 99.9058 54.4525C99.8893 53.7493 99.5791 53.235 99.007 52.9627C98.617 52.7769 98.3978 52.7681 97.5508 52.9037C94.0961 53.4566 91.5717 57.0496 91.9282 60.9062C92.3743 65.7309 95.9291 69.1276 100.236 68.8443C102.342 68.7058 104.036 67.9773 105.641 66.5204C107.163 65.1375 133.516 35.4592 134.07 34.503C136.924 29.579 135.592 22.3674 131.127 18.5712C128.708 16.515 125.455 15.6271 122.234 16.1443ZM126.309 19.6794C127.773 20.0895 128.838 20.7954 130.066 22.1703C131.305 23.5585 131.922 24.7304 132.317 26.4479C132.598 27.6731 132.602 29.5175 132.325 30.5805C131.834 32.4657 131.846 32.451 120.141 45.5543C109.675 57.2694 109.139 57.8467 109.073 57.4618C109.034 57.2393 108.965 56.7105 108.918 56.2867C108.727 54.5492 107.799 52.1705 106.688 50.5677C104.85 47.916 102.177 46.2265 99.1138 45.7805C98.4399 45.6824 97.5593 45.6491 97.0542 45.7026L96.1719 45.7962L106.364 34.3616C111.969 28.0725 116.951 22.5673 117.434 22.1277C120.005 19.789 123.378 18.8584 126.309 19.6794ZM144.18 33.1863C143.704 34.8749 142.994 36.5219 142.045 38.1367C141.297 39.4101 140.244 40.638 131.144 50.8538C125.603 57.0731 121.061 62.1478 121.05 62.1309C121.038 62.1141 121.132 61.4384 121.257 60.6294C121.383 59.8204 121.488 58.8119 121.49 58.3883L121.495 57.6181L132.963 44.7705C139.27 37.7041 144.449 31.9429 144.471 31.9677C144.493 31.9923 144.362 32.5408 144.18 33.1863Z" fill="#EB595A"/>
<path fill-rule="evenodd" clip-rule="evenodd" d="M122.234 16.1443C120.026 16.499 117.771 17.5411 115.993 19.0286C114.809 20.0184 87.1474 51.1003 86.4372 52.238C85.2856 54.0827 84.4183 56.4795 84.102 58.6916C83.9036 60.0787 84.0097 63.6953 84.2905 65.1122C85.2584 69.9987 87.8215 74.1797 91.545 76.9462C94.4059 79.0717 97.3371 80.0199 100.986 79.9997C104.468 79.9805 107.164 79.2495 110.269 77.4819C113.307 75.7528 112.93 76.1424 128.817 58.3349C144.603 40.6419 144.202 41.1289 145.739 37.7951C147.115 34.8109 147.846 31.7685 147.968 28.5193C148.03 26.8787 148.01 26.5467 147.834 26.2458C147.524 25.7155 146.928 25.4232 146.338 25.512C145.865 25.583 145.045 26.4733 132.288 40.762C121.538 52.8026 118.715 56.0378 118.618 56.4268C118.55 56.6964 118.494 57.2953 118.494 57.7576C118.49 60.4615 117.419 64.3895 115.955 67.0735C112.457 73.4822 105.951 77.2449 99.5194 76.5773C92.243 75.8221 86.7186 68.776 87.0156 60.6294C87.0889 58.6193 87.4822 56.9923 88.282 55.3901C91.0336 49.8779 97.2922 47.4511 101.674 50.1968C104.387 51.897 106.018 54.9347 106.033 58.318C106.042 60.3453 105.424 61.9739 104.086 63.4493C101.306 66.5162 97.0177 66.034 95.4567 62.4786C95.0799 61.6207 95.0464 61.4349 95.0464 60.2079C95.0464 58.9345 95.0659 58.8374 95.4597 58.1501C96.1332 56.9748 96.9499 56.4058 98.2352 56.2165C99.424 56.0414 99.9304 55.5065 99.9058 54.4525C99.8893 53.7493 99.5791 53.235 99.007 52.9627C98.617 52.7769 98.3978 52.7681 97.5508 52.9037C94.0961 53.4566 91.5717 57.0496 91.9282 60.9062C92.3743 65.7309 95.9291 69.1276 100.236 68.8443C102.342 68.7058 104.036 67.9773 105.641 66.5204C107.163 65.1375 133.516 35.4592 134.07 34.503C136.924 29.579 135.592 22.3674 131.127 18.5712C128.708 16.515 125.455 15.6271 122.234 16.1443ZM126.309 19.6794C127.773 20.0895 128.838 20.7954 130.066 22.1703C131.305 23.5585 131.922 24.7304 132.317 26.4479C132.598 27.6731 132.602 29.5175 132.325 30.5805C131.834 32.4657 131.846 32.451 120.141 45.5543C109.675 57.2694 109.139 57.8467 109.073 57.4618C109.034 57.2393 108.965 56.7105 108.918 56.2867C108.727 54.5492 107.799 52.1705 106.688 50.5677C104.85 47.916 102.177 46.2265 99.1138 45.7805C98.4399 45.6824 97.5593 45.6491 97.0542 45.7026L96.1719 45.7962L106.364 34.3616C111.969 28.0725 116.951 22.5673 117.434 22.1277C120.005 19.789 123.378 18.8584 126.309 19.6794ZM144.18 33.1863C143.704 34.8749 142.994 36.5219 142.045 38.1367C141.297 39.4101 140.244 40.638 131.144 50.8538C125.603 57.0731 121.061 62.1478 121.05 62.1309C121.038 62.1141 121.132 61.4384 121.257 60.6294C121.383 59.8204 121.488 58.8119 121.49 58.3883L121.495 57.6181L132.963 44.7705C139.27 37.7041 144.449 31.9429 144.471 31.9677C144.493 31.9923 144.362 32.5408 144.18 33.1863Z" fill="#EB595A"/>
<path fill-rule="evenodd" clip-rule="evenodd" d="M122.234 16.1443C120.026 16.499 117.771 17.5411 115.993 19.0286C114.809 20.0184 87.1474 51.1003 86.4372 52.238C85.2856 54.0827 84.4183 56.4795 84.102 58.6916C83.9036 60.0787 84.0097 63.6953 84.2905 65.1122C85.2584 69.9987 87.8215 74.1797 91.545 76.9462C94.4059 79.0717 97.3371 80.0199 100.986 79.9997C104.468 79.9805 107.164 79.2495 110.269 77.4819C113.307 75.7528 112.93 76.1424 128.817 58.3349C144.603 40.6419 144.202 41.1289 145.739 37.7951C147.115 34.8109 147.846 31.7685 147.968 28.5193C148.03 26.8787 148.01 26.5467 147.834 26.2458C147.524 25.7155 146.928 25.4232 146.338 25.512C145.865 25.583 145.045 26.4733 132.288 40.762C121.538 52.8026 118.715 56.0378 118.618 56.4268C118.55 56.6964 118.494 57.2953 118.494 57.7576C118.49 60.4615 117.419 64.3895 115.955 67.0735C112.457 73.4822 105.951 77.2449 99.5194 76.5773C92.243 75.8221 86.7186 68.776 87.0156 60.6294C87.0889 58.6193 87.4822 56.9923 88.282 55.3901C91.0336 49.8779 97.2922 47.4511 101.674 50.1968C104.387 51.897 106.018 54.9347 106.033 58.318C106.042 60.3453 105.424 61.9739 104.086 63.4493C101.306 66.5162 97.0177 66.034 95.4567 62.4786C95.0799 61.6207 95.0464 61.4349 95.0464 60.2079C95.0464 58.9345 95.0659 58.8374 95.4597 58.1501C96.1332 56.9748 96.9499 56.4058 98.2352 56.2165C99.424 56.0414 99.9304 55.5065 99.9058 54.4525C99.8893 53.7493 99.5791 53.235 99.007 52.9627C98.617 52.7769 98.3978 52.7681 97.5508 52.9037C94.0961 53.4566 91.5717 57.0496 91.9282 60.9062C92.3743 65.7309 95.9291 69.1276 100.236 68.8443C102.342 68.7058 104.036 67.9773 105.641 66.5204C107.163 65.1375 133.516 35.4592 134.07 34.503C136.924 29.579 135.592 22.3674 131.127 18.5712C128.708 16.515 125.455 15.6271 122.234 16.1443ZM126.309 19.6794C127.773 20.0895 128.838 20.7954 130.066 22.1703C131.305 23.5585 131.922 24.7304 132.317 26.4479C132.598 27.6731 132.602 29.5175 132.325 30.5805C131.834 32.4657 131.846 32.451 120.141 45.5543C109.675 57.2694 109.139 57.8467 109.073 57.4618C109.034 57.2393 108.965 56.7105 108.918 56.2867C108.727 54.5492 107.799 52.1705 106.688 50.5677C104.85 47.916 102.177 46.2265 99.1138 45.7805C98.4399 45.6824 97.5593 45.6491 97.0542 45.7026L96.1719 45.7962L106.364 34.3616C111.969 28.0725 116.951 22.5673 117.434 22.1277C120.005 19.789 123.378 18.8584 126.309 19.6794ZM144.18 33.1863C143.704 34.8749 142.994 36.5219 142.045 38.1367C141.297 39.4101 140.244 40.638 131.144 50.8538C125.603 57.0731 121.061 62.1478 121.05 62.1309C121.038 62.1141 121.132 61.4384 121.257 60.6294C121.383 59.8204 121.488 58.8119 121.49 58.3883L121.495 57.6181L132.963 44.7705C139.27 37.7041 144.449 31.9429 144.471 31.9677C144.493 31.9923 144.362 32.5408 144.18 33.1863Z" fill="#EB595A"/>
<path fill-rule="evenodd" clip-rule="evenodd" d="M122.234 16.1443C120.026 16.499 117.771 17.5411 115.993 19.0286C114.809 20.0184 87.1474 51.1003 86.4372 52.238C85.2856 54.0827 84.4183 56.4795 84.102 58.6916C83.9036 60.0787 84.0097 63.6953 84.2905 65.1122C85.2584 69.9987 87.8215 74.1797 91.545 76.9462C94.4059 79.0717 97.3371 80.0199 100.986 79.9997C104.468 79.9805 107.164 79.2495 110.269 77.4819C113.307 75.7528 112.93 76.1424 128.817 58.3349C144.603 40.6419 144.202 41.1289 145.739 37.7951C147.115 34.8109 147.846 31.7685 147.968 28.5193C148.03 26.8787 148.01 26.5467 147.834 26.2458C147.524 25.7155 146.928 25.4232 146.338 25.512C145.865 25.583 145.045 26.4733 132.288 40.762C121.538 52.8026 118.715 56.0378 118.618 56.4268C118.55 56.6964 118.494 57.2953 118.494 57.7576C118.49 60.4615 117.419 64.3895 115.955 67.0735C112.457 73.4822 105.951 77.2449 99.5194 76.5773C92.243 75.8221 86.7186 68.776 87.0156 60.6294C87.0889 58.6193 87.4822 56.9923 88.282 55.3901C91.0336 49.8779 97.2922 47.4511 101.674 50.1968C104.387 51.897 106.018 54.9347 106.033 58.318C106.042 60.3453 105.424 61.9739 104.086 63.4493C101.306 66.5162 97.0177 66.034 95.4567 62.4786C95.0799 61.6207 95.0464 61.4349 95.0464 60.2079C95.0464 58.9345 95.0659 58.8374 95.4597 58.1501C96.1332 56.9748 96.9499 56.4058 98.2352 56.2165C99.424 56.0414 99.9304 55.5065 99.9058 54.4525C99.8893 53.7493 99.5791 53.235 99.007 52.9627C98.617 52.7769 98.3978 52.7681 97.5508 52.9037C94.0961 53.4566 91.5717 57.0496 91.9282 60.9062C92.3743 65.7309 95.9291 69.1276 100.236 68.8443C102.342 68.7058 104.036 67.9773 105.641 66.5204C107.163 65.1375 133.516 35.4592 134.07 34.503C136.924 29.579 135.592 22.3674 131.127 18.5712C128.708 16.515 125.455 15.6271 122.234 16.1443ZM126.309 19.6794C127.773 20.0895 128.838 20.7954 130.066 22.1703C131.305 23.5585 131.922 24.7304 132.317 26.4479C132.598 27.6731 132.602 29.5175 132.325 30.5805C131.834 32.4657 131.846 32.451 120.141 45.5543C109.675 57.2694 109.139 57.8467 109.073 57.4618C109.034 57.2393 108.965 56.7105 108.918 56.2867C108.727 54.5492 107.799 52.1705 106.688 50.5677C104.85 47.916 102.177 46.2265 99.1138 45.7805C98.4399 45.6824 97.5593 45.6491 97.0542 45.7026L96.1719 45.7962L106.364 34.3616C111.969 28.0725 116.951 22.5673 117.434 22.1277C120.005 19.789 123.378 18.8584 126.309 19.6794ZM144.18 33.1863C143.704 34.8749 142.994 36.5219 142.045 38.1367C141.297 39.4101 140.244 40.638 131.144 50.8538C125.603 57.0731 121.061 62.1478 121.05 62.1309C121.038 62.1141 121.132 61.4384 121.257 60.6294C121.383 59.8204 121.488 58.8119 121.49 58.3883L121.495 57.6181L132.963 44.7705C139.27 37.7041 144.449 31.9429 144.471 31.9677C144.493 31.9923 144.362 32.5408 144.18 33.1863Z" fill="#EB595A"/>
<path fill-rule="evenodd" clip-rule="evenodd" d="M122.234 16.1443C120.026 16.499 117.771 17.5411 115.993 19.0286C114.809 20.0184 87.1474 51.1003 86.4372 52.238C85.2856 54.0827 84.4183 56.4795 84.102 58.6916C83.9036 60.0787 84.0097 63.6953 84.2905 65.1122C85.2584 69.9987 87.8215 74.1797 91.545 76.9462C94.4059 79.0717 97.3371 80.0199 100.986 79.9997C104.468 79.9805 107.164 79.2495 110.269 77.4819C113.307 75.7528 112.93 76.1424 128.817 58.3349C144.603 40.6419 144.202 41.1289 145.739 37.7951C147.115 34.8109 147.846 31.7685 147.968 28.5193C148.03 26.8787 148.01 26.5467 147.834 26.2458C147.524 25.7155 146.928 25.4232 146.338 25.512C145.865 25.583 145.045 26.4733 132.288 40.762C121.538 52.8026 118.715 56.0378 118.618 56.4268C118.55 56.6964 118.494 57.2953 118.494 57.7576C118.49 60.4615 117.419 64.3895 115.955 67.0735C112.457 73.4822 105.951 77.2449 99.5194 76.5773C92.243 75.8221 86.7186 68.776 87.0156 60.6294C87.0889 58.6193 87.4822 56.9923 88.282 55.3901C91.0336 49.8779 97.2922 47.4511 101.674 50.1968C104.387 51.897 106.018 54.9347 106.033 58.318C106.042 60.3453 105.424 61.9739 104.086 63.4493C101.306 66.5162 97.0177 66.034 95.4567 62.4786C95.0799 61.6207 95.0464 61.4349 95.0464 60.2079C95.0464 58.9345 95.0659 58.8374 95.4597 58.1501C96.1332 56.9748 96.9499 56.4058 98.2352 56.2165C99.424 56.0414 99.9304 55.5065 99.9058 54.4525C99.8893 53.7493 99.5791 53.235 99.007 52.9627C98.617 52.7769 98.3978 52.7681 97.5508 52.9037C94.0961 53.4566 91.5717 57.0496 91.9282 60.9062C92.3743 65.7309 95.9291 69.1276 100.236 68.8443C102.342 68.7058 104.036 67.9773 105.641 66.5204C107.163 65.1375 133.516 35.4592 134.07 34.503C136.924 29.579 135.592 22.3674 131.127 18.5712C128.708 16.515 125.455 15.6271 122.234 16.1443ZM126.309 19.6794C127.773 20.0895 128.838 20.7954 130.066 22.1703C131.305 23.5585 131.922 24.7304 132.317 26.4479C132.598 27.6731 132.602 29.5175 132.325 30.5805C131.834 32.4657 131.846 32.451 120.141 45.5543C109.675 57.2694 109.139 57.8467 109.073 57.4618C109.034 57.2393 108.965 56.7105 108.918 56.2867C108.727 54.5492 107.799 52.1705 106.688 50.5677C104.85 47.916 102.177 46.2265 99.1138 45.7805C98.4399 45.6824 97.5593 45.6491 97.0542 45.7026L96.1719 45.7962L106.364 34.3616C111.969 28.0725 116.951 22.5673 117.434 22.1277C120.005 19.789 123.378 18.8584 126.309 19.6794ZM144.18 33.1863C143.704 34.8749 142.994 36.5219 142.045 38.1367C141.297 39.4101 140.244 40.638 131.144 50.8538C125.603 57.0731 121.061 62.1478 121.05 62.1309C121.038 62.1141 121.132 61.4384 121.257 60.6294C121.383 59.8204 121.488 58.8119 121.49 58.3883L121.495 57.6181L132.963 44.7705C139.27 37.7041 144.449 31.9429 144.471 31.9677C144.493 31.9923 144.362 32.5408 144.18 33.1863Z" fill="#EB595A"/>
<path fill-rule="evenodd" clip-rule="evenodd" d="M122.234 16.1443C120.026 16.499 117.771 17.5411 115.993 19.0286C114.809 20.0184 87.1474 51.1003 86.4372 52.238C85.2856 54.0827 84.4183 56.4795 84.102 58.6916C83.9036 60.0787 84.0097 63.6953 84.2905 65.1122C85.2584 69.9987 87.8215 74.1797 91.545 76.9462C94.4059 79.0717 97.3371 80.0199 100.986 79.9997C104.468 79.9805 107.164 79.2495 110.269 77.4819C113.307 75.7528 112.93 76.1424 128.817 58.3349C144.603 40.6419 144.202 41.1289 145.739 37.7951C147.115 34.8109 147.846 31.7685 147.968 28.5193C148.03 26.8787 148.01 26.5467 147.834 26.2458C147.524 25.7155 146.928 25.4232 146.338 25.512C145.865 25.583 145.045 26.4733 132.288 40.762C121.538 52.8026 118.715 56.0378 118.618 56.4268C118.55 56.6964 118.494 57.2953 118.494 57.7576C118.49 60.4615 117.419 64.3895 115.955 67.0735C112.457 73.4822 105.951 77.2449 99.5194 76.5773C92.243 75.8221 86.7186 68.776 87.0156 60.6294C87.0889 58.6193 87.4822 56.9923 88.282 55.3901C91.0336 49.8779 97.2922 47.4511 101.674 50.1968C104.387 51.897 106.018 54.9347 106.033 58.318C106.042 60.3453 105.424 61.9739 104.086 63.4493C101.306 66.5162 97.0177 66.034 95.4567 62.4786C95.0799 61.6207 95.0464 61.4349 95.0464 60.2079C95.0464 58.9345 95.0659 58.8374 95.4597 58.1501C96.1332 56.9748 96.9499 56.4058 98.2352 56.2165C99.424 56.0414 99.9304 55.5065 99.9058 54.4525C99.8893 53.7493 99.5791 53.235 99.007 52.9627C98.617 52.7769 98.3978 52.7681 97.5508 52.9037C94.0961 53.4566 91.5717 57.0496 91.9282 60.9062C92.3743 65.7309 95.9291 69.1276 100.236 68.8443C102.342 68.7058 104.036 67.9773 105.641 66.5204C107.163 65.1375 133.516 35.4592 134.07 34.503C136.924 29.579 135.592 22.3674 131.127 18.5712C128.708 16.515 125.455 15.6271 122.234 16.1443ZM126.309 19.6794C127.773 20.0895 128.838 20.7954 130.066 22.1703C131.305 23.5585 131.922 24.7304 132.317 26.4479C132.598 27.6731 132.602 29.5175 132.325 30.5805C131.834 32.4657 131.846 32.451 120.141 45.5543C109.675 57.2694 109.139 57.8467 109.073 57.4618C109.034 57.2393 108.965 56.7105 108.918 56.2867C108.727 54.5492 107.799 52.1705 106.688 50.5677C104.85 47.916 102.177 46.2265 99.1138 45.7805C98.4399 45.6824 97.5593 45.6491 97.0542 45.7026L96.1719 45.7962L106.364 34.3616C111.969 28.0725 116.951 22.5673 117.434 22.1277C120.005 19.789 123.378 18.8584 126.309 19.6794ZM144.18 33.1863C143.704 34.8749 142.994 36.5219 142.045 38.1367C141.297 39.4101 140.244 40.638 131.144 50.8538C125.603 57.0731 121.061 62.1478 121.05 62.1309C121.038 62.1141 121.132 61.4384 121.257 60.6294C121.383 59.8204 121.488 58.8119 121.49 58.3883L121.495 57.6181L132.963 44.7705C139.27 37.7041 144.449 31.9429 144.471 31.9677C144.493 31.9923 144.362 32.5408 144.18 33.1863Z" fill="#EB595A"/>
</svg>
