<svg width="232" height="96" viewBox="0 0 232 96" fill="none" xmlns="http://www.w3.org/2000/svg">
<path fill-rule="evenodd" clip-rule="evenodd" d="M89.4365 21.4379C84.1097 26.7661 84 26.8868 84 27.4247C84 27.9614 84.1089 28.0827 88.8454 32.8266L93.6909 37.6797L88.8454 42.5359L84 47.3923V48V48.6077L88.8454 53.4641L93.6909 58.3203L88.8454 63.1734C84.1191 67.907 84 68.0398 84 68.5718C84 69.1052 84.122 69.2396 89.4349 74.5588C94.7729 79.903 94.8796 80 95.4222 80C95.9633 80 96.073 79.9016 100.827 75.1536L105.679 70.3073L110.532 75.1536L115.386 80H116H116.614L121.469 75.1525L126.324 70.3048L131.17 75.1525C135.928 79.912 136.026 80 136.571 80C137.118 80 137.214 79.9124 142.563 74.5621C147.89 69.2339 148 69.1132 148 68.5753C148 68.0387 147.891 67.9174 143.154 63.1728L138.307 58.3194L143.154 53.4673L148 48.6152V48.0042V47.3931L143.153 42.5338L138.307 37.6745L143.153 32.8294C147.917 28.0672 148 27.9746 148 27.4269C148 26.8781 147.919 26.7887 142.559 21.4349C137.24 16.122 137.105 16 136.572 16C136.04 16 135.907 16.1191 131.173 20.8454L126.32 25.6909L121.464 20.8454L116.608 16H116H115.392L110.536 20.8454L105.68 25.6909L100.827 20.8454C96.0788 16.105 95.9618 16 95.4234 16C94.8837 16 94.7683 16.1049 89.4365 21.4379ZM99.6883 31.6878L95.3599 36.0162L91.0652 31.7232L86.7706 27.4302L91.099 23.1001L95.4275 18.77L99.7221 23.0647L104.017 27.3593L99.6883 31.6878ZM140.935 31.7221L136.641 36.0168L132.312 31.6883L127.984 27.3599L132.277 23.0652L136.57 18.7706L140.9 23.099L145.23 27.4275L140.935 31.7221ZM120.33 23.1697L124.589 27.4302L120.294 31.7229L116 36.0157L111.706 31.7229L107.411 27.4302L111.67 23.1697C114.013 20.8263 115.961 18.9091 116 18.9091C116.039 18.9091 117.987 20.8263 120.33 23.1697ZM110.079 33.4207L114.338 37.6813L110.008 42.0095L105.678 46.3377L101.385 42.0433L97.0926 37.7489L101.385 33.4545C103.746 31.0926 105.71 29.1602 105.749 29.1602C105.788 29.1602 107.736 31.0774 110.079 33.4207ZM130.615 33.4545L134.907 37.7489L130.615 42.0433L126.322 46.3377L121.992 42.0095L117.662 37.6813L121.921 33.4207C124.264 31.0774 126.212 29.1602 126.251 29.1602C126.29 29.1602 128.254 31.0926 130.615 33.4545ZM99.7229 52.2944L95.4297 56.5893L91.1353 52.2949L86.8409 48.0006L91.1342 43.7056L95.4275 39.4107L99.7218 43.7051L104.016 47.9994L99.7229 52.2944ZM120.364 43.7059L124.657 48.0006L120.328 52.329L116 56.6575L111.672 52.329L107.343 48.0006L111.636 43.7059C113.997 41.3439 115.961 39.4113 116 39.4113C116.039 39.4113 118.003 41.3439 120.364 43.7059ZM140.866 52.2944L136.573 56.5893L132.278 52.2949L127.984 48.0006L132.277 43.7056L136.57 39.4107L140.865 43.7051L145.159 47.9994L140.866 52.2944ZM110.044 62.6139L105.749 66.9085L101.42 62.5801L97.092 58.2516L101.385 53.957L105.678 49.6623L110.008 53.9908L114.338 58.3192L110.044 62.6139ZM130.58 62.5795L126.252 66.908L121.957 62.615L117.662 58.322L121.991 53.9919L126.319 49.6618L130.614 53.9564L134.909 58.2511L130.58 62.5795ZM99.7229 64.3463L104.016 68.6407L99.7229 72.9351L95.4302 77.2294L91.1004 72.9013L86.7706 68.5731L91.0295 64.3125C93.3718 61.9692 95.3202 60.0519 95.3593 60.0519C95.3984 60.0519 97.362 61.9844 99.7229 64.3463ZM120.33 64.3125L124.589 68.5731L120.294 72.8658L116 77.1585L111.706 72.8658L107.411 68.5731L111.67 64.3125C114.013 61.9692 115.961 60.0519 116 60.0519C116.039 60.0519 117.987 61.9692 120.33 64.3125ZM140.971 64.3125L145.229 68.5731L140.9 72.9013L136.57 77.2294L132.277 72.9351L127.984 68.6407L132.277 64.3463C134.638 61.9844 136.602 60.0519 136.641 60.0519C136.68 60.0519 138.628 61.9692 140.971 64.3125Z" fill="#EB595A"/>
<path fill-rule="evenodd" clip-rule="evenodd" d="M89.4365 21.4379C84.1097 26.7661 84 26.8868 84 27.4247C84 27.9614 84.1089 28.0827 88.8454 32.8266L93.6909 37.6797L88.8454 42.5359L84 47.3923V48V48.6077L88.8454 53.4641L93.6909 58.3203L88.8454 63.1734C84.1191 67.907 84 68.0398 84 68.5718C84 69.1052 84.122 69.2396 89.4349 74.5588C94.7729 79.903 94.8796 80 95.4222 80C95.9633 80 96.073 79.9016 100.827 75.1536L105.679 70.3073L110.532 75.1536L115.386 80H116H116.614L121.469 75.1525L126.324 70.3048L131.17 75.1525C135.928 79.912 136.026 80 136.571 80C137.118 80 137.214 79.9124 142.563 74.5621C147.89 69.2339 148 69.1132 148 68.5753C148 68.0387 147.891 67.9174 143.154 63.1728L138.307 58.3194L143.154 53.4673L148 48.6152V48.0042V47.3931L143.153 42.5338L138.307 37.6745L143.153 32.8294C147.917 28.0672 148 27.9746 148 27.4269C148 26.8781 147.919 26.7887 142.559 21.4349C137.24 16.122 137.105 16 136.572 16C136.04 16 135.907 16.1191 131.173 20.8454L126.32 25.6909L121.464 20.8454L116.608 16H116H115.392L110.536 20.8454L105.68 25.6909L100.827 20.8454C96.0788 16.105 95.9618 16 95.4234 16C94.8837 16 94.7683 16.1049 89.4365 21.4379ZM99.6883 31.6878L95.3599 36.0162L91.0652 31.7232L86.7706 27.4302L91.099 23.1001L95.4275 18.77L99.7221 23.0647L104.017 27.3593L99.6883 31.6878ZM140.935 31.7221L136.641 36.0168L132.312 31.6883L127.984 27.3599L132.277 23.0652L136.57 18.7706L140.9 23.099L145.23 27.4275L140.935 31.7221ZM120.33 23.1697L124.589 27.4302L120.294 31.7229L116 36.0157L111.706 31.7229L107.411 27.4302L111.67 23.1697C114.013 20.8263 115.961 18.9091 116 18.9091C116.039 18.9091 117.987 20.8263 120.33 23.1697ZM110.079 33.4207L114.338 37.6813L110.008 42.0095L105.678 46.3377L101.385 42.0433L97.0926 37.7489L101.385 33.4545C103.746 31.0926 105.71 29.1602 105.749 29.1602C105.788 29.1602 107.736 31.0774 110.079 33.4207ZM130.615 33.4545L134.907 37.7489L130.615 42.0433L126.322 46.3377L121.992 42.0095L117.662 37.6813L121.921 33.4207C124.264 31.0774 126.212 29.1602 126.251 29.1602C126.29 29.1602 128.254 31.0926 130.615 33.4545ZM99.7229 52.2944L95.4297 56.5893L91.1353 52.2949L86.8409 48.0006L91.1342 43.7056L95.4275 39.4107L99.7218 43.7051L104.016 47.9994L99.7229 52.2944ZM120.364 43.7059L124.657 48.0006L120.328 52.329L116 56.6575L111.672 52.329L107.343 48.0006L111.636 43.7059C113.997 41.3439 115.961 39.4113 116 39.4113C116.039 39.4113 118.003 41.3439 120.364 43.7059ZM140.866 52.2944L136.573 56.5893L132.278 52.2949L127.984 48.0006L132.277 43.7056L136.57 39.4107L140.865 43.7051L145.159 47.9994L140.866 52.2944ZM110.044 62.6139L105.749 66.9085L101.42 62.5801L97.092 58.2516L101.385 53.957L105.678 49.6623L110.008 53.9908L114.338 58.3192L110.044 62.6139ZM130.58 62.5795L126.252 66.908L121.957 62.615L117.662 58.322L121.991 53.9919L126.319 49.6618L130.614 53.9564L134.909 58.2511L130.58 62.5795ZM99.7229 64.3463L104.016 68.6407L99.7229 72.9351L95.4302 77.2294L91.1004 72.9013L86.7706 68.5731L91.0295 64.3125C93.3718 61.9692 95.3202 60.0519 95.3593 60.0519C95.3984 60.0519 97.362 61.9844 99.7229 64.3463ZM120.33 64.3125L124.589 68.5731L120.294 72.8658L116 77.1585L111.706 72.8658L107.411 68.5731L111.67 64.3125C114.013 61.9692 115.961 60.0519 116 60.0519C116.039 60.0519 117.987 61.9692 120.33 64.3125ZM140.971 64.3125L145.229 68.5731L140.9 72.9013L136.57 77.2294L132.277 72.9351L127.984 68.6407L132.277 64.3463C134.638 61.9844 136.602 60.0519 136.641 60.0519C136.68 60.0519 138.628 61.9692 140.971 64.3125Z" fill="#EB595A"/>
<path fill-rule="evenodd" clip-rule="evenodd" d="M89.4365 21.4379C84.1097 26.7661 84 26.8868 84 27.4247C84 27.9614 84.1089 28.0827 88.8454 32.8266L93.6909 37.6797L88.8454 42.5359L84 47.3923V48V48.6077L88.8454 53.4641L93.6909 58.3203L88.8454 63.1734C84.1191 67.907 84 68.0398 84 68.5718C84 69.1052 84.122 69.2396 89.4349 74.5588C94.7729 79.903 94.8796 80 95.4222 80C95.9633 80 96.073 79.9016 100.827 75.1536L105.679 70.3073L110.532 75.1536L115.386 80H116H116.614L121.469 75.1525L126.324 70.3048L131.17 75.1525C135.928 79.912 136.026 80 136.571 80C137.118 80 137.214 79.9124 142.563 74.5621C147.89 69.2339 148 69.1132 148 68.5753C148 68.0387 147.891 67.9174 143.154 63.1728L138.307 58.3194L143.154 53.4673L148 48.6152V48.0042V47.3931L143.153 42.5338L138.307 37.6745L143.153 32.8294C147.917 28.0672 148 27.9746 148 27.4269C148 26.8781 147.919 26.7887 142.559 21.4349C137.24 16.122 137.105 16 136.572 16C136.04 16 135.907 16.1191 131.173 20.8454L126.32 25.6909L121.464 20.8454L116.608 16H116H115.392L110.536 20.8454L105.68 25.6909L100.827 20.8454C96.0788 16.105 95.9618 16 95.4234 16C94.8837 16 94.7683 16.1049 89.4365 21.4379ZM99.6883 31.6878L95.3599 36.0162L91.0652 31.7232L86.7706 27.4302L91.099 23.1001L95.4275 18.77L99.7221 23.0647L104.017 27.3593L99.6883 31.6878ZM140.935 31.7221L136.641 36.0168L132.312 31.6883L127.984 27.3599L132.277 23.0652L136.57 18.7706L140.9 23.099L145.23 27.4275L140.935 31.7221ZM120.33 23.1697L124.589 27.4302L120.294 31.7229L116 36.0157L111.706 31.7229L107.411 27.4302L111.67 23.1697C114.013 20.8263 115.961 18.9091 116 18.9091C116.039 18.9091 117.987 20.8263 120.33 23.1697ZM110.079 33.4207L114.338 37.6813L110.008 42.0095L105.678 46.3377L101.385 42.0433L97.0926 37.7489L101.385 33.4545C103.746 31.0926 105.71 29.1602 105.749 29.1602C105.788 29.1602 107.736 31.0774 110.079 33.4207ZM130.615 33.4545L134.907 37.7489L130.615 42.0433L126.322 46.3377L121.992 42.0095L117.662 37.6813L121.921 33.4207C124.264 31.0774 126.212 29.1602 126.251 29.1602C126.29 29.1602 128.254 31.0926 130.615 33.4545ZM99.7229 52.2944L95.4297 56.5893L91.1353 52.2949L86.8409 48.0006L91.1342 43.7056L95.4275 39.4107L99.7218 43.7051L104.016 47.9994L99.7229 52.2944ZM120.364 43.7059L124.657 48.0006L120.328 52.329L116 56.6575L111.672 52.329L107.343 48.0006L111.636 43.7059C113.997 41.3439 115.961 39.4113 116 39.4113C116.039 39.4113 118.003 41.3439 120.364 43.7059ZM140.866 52.2944L136.573 56.5893L132.278 52.2949L127.984 48.0006L132.277 43.7056L136.57 39.4107L140.865 43.7051L145.159 47.9994L140.866 52.2944ZM110.044 62.6139L105.749 66.9085L101.42 62.5801L97.092 58.2516L101.385 53.957L105.678 49.6623L110.008 53.9908L114.338 58.3192L110.044 62.6139ZM130.58 62.5795L126.252 66.908L121.957 62.615L117.662 58.322L121.991 53.9919L126.319 49.6618L130.614 53.9564L134.909 58.2511L130.58 62.5795ZM99.7229 64.3463L104.016 68.6407L99.7229 72.9351L95.4302 77.2294L91.1004 72.9013L86.7706 68.5731L91.0295 64.3125C93.3718 61.9692 95.3202 60.0519 95.3593 60.0519C95.3984 60.0519 97.362 61.9844 99.7229 64.3463ZM120.33 64.3125L124.589 68.5731L120.294 72.8658L116 77.1585L111.706 72.8658L107.411 68.5731L111.67 64.3125C114.013 61.9692 115.961 60.0519 116 60.0519C116.039 60.0519 117.987 61.9692 120.33 64.3125ZM140.971 64.3125L145.229 68.5731L140.9 72.9013L136.57 77.2294L132.277 72.9351L127.984 68.6407L132.277 64.3463C134.638 61.9844 136.602 60.0519 136.641 60.0519C136.68 60.0519 138.628 61.9692 140.971 64.3125Z" fill="#EB595A"/>
<path fill-rule="evenodd" clip-rule="evenodd" d="M89.4365 21.4379C84.1097 26.7661 84 26.8868 84 27.4247C84 27.9614 84.1089 28.0827 88.8454 32.8266L93.6909 37.6797L88.8454 42.5359L84 47.3923V48V48.6077L88.8454 53.4641L93.6909 58.3203L88.8454 63.1734C84.1191 67.907 84 68.0398 84 68.5718C84 69.1052 84.122 69.2396 89.4349 74.5588C94.7729 79.903 94.8796 80 95.4222 80C95.9633 80 96.073 79.9016 100.827 75.1536L105.679 70.3073L110.532 75.1536L115.386 80H116H116.614L121.469 75.1525L126.324 70.3048L131.17 75.1525C135.928 79.912 136.026 80 136.571 80C137.118 80 137.214 79.9124 142.563 74.5621C147.89 69.2339 148 69.1132 148 68.5753C148 68.0387 147.891 67.9174 143.154 63.1728L138.307 58.3194L143.154 53.4673L148 48.6152V48.0042V47.3931L143.153 42.5338L138.307 37.6745L143.153 32.8294C147.917 28.0672 148 27.9746 148 27.4269C148 26.8781 147.919 26.7887 142.559 21.4349C137.24 16.122 137.105 16 136.572 16C136.04 16 135.907 16.1191 131.173 20.8454L126.32 25.6909L121.464 20.8454L116.608 16H116H115.392L110.536 20.8454L105.68 25.6909L100.827 20.8454C96.0788 16.105 95.9618 16 95.4234 16C94.8837 16 94.7683 16.1049 89.4365 21.4379ZM99.6883 31.6878L95.3599 36.0162L91.0652 31.7232L86.7706 27.4302L91.099 23.1001L95.4275 18.77L99.7221 23.0647L104.017 27.3593L99.6883 31.6878ZM140.935 31.7221L136.641 36.0168L132.312 31.6883L127.984 27.3599L132.277 23.0652L136.57 18.7706L140.9 23.099L145.23 27.4275L140.935 31.7221ZM120.33 23.1697L124.589 27.4302L120.294 31.7229L116 36.0157L111.706 31.7229L107.411 27.4302L111.67 23.1697C114.013 20.8263 115.961 18.9091 116 18.9091C116.039 18.9091 117.987 20.8263 120.33 23.1697ZM110.079 33.4207L114.338 37.6813L110.008 42.0095L105.678 46.3377L101.385 42.0433L97.0926 37.7489L101.385 33.4545C103.746 31.0926 105.71 29.1602 105.749 29.1602C105.788 29.1602 107.736 31.0774 110.079 33.4207ZM130.615 33.4545L134.907 37.7489L130.615 42.0433L126.322 46.3377L121.992 42.0095L117.662 37.6813L121.921 33.4207C124.264 31.0774 126.212 29.1602 126.251 29.1602C126.29 29.1602 128.254 31.0926 130.615 33.4545ZM99.7229 52.2944L95.4297 56.5893L91.1353 52.2949L86.8409 48.0006L91.1342 43.7056L95.4275 39.4107L99.7218 43.7051L104.016 47.9994L99.7229 52.2944ZM120.364 43.7059L124.657 48.0006L120.328 52.329L116 56.6575L111.672 52.329L107.343 48.0006L111.636 43.7059C113.997 41.3439 115.961 39.4113 116 39.4113C116.039 39.4113 118.003 41.3439 120.364 43.7059ZM140.866 52.2944L136.573 56.5893L132.278 52.2949L127.984 48.0006L132.277 43.7056L136.57 39.4107L140.865 43.7051L145.159 47.9994L140.866 52.2944ZM110.044 62.6139L105.749 66.9085L101.42 62.5801L97.092 58.2516L101.385 53.957L105.678 49.6623L110.008 53.9908L114.338 58.3192L110.044 62.6139ZM130.58 62.5795L126.252 66.908L121.957 62.615L117.662 58.322L121.991 53.9919L126.319 49.6618L130.614 53.9564L134.909 58.2511L130.58 62.5795ZM99.7229 64.3463L104.016 68.6407L99.7229 72.9351L95.4302 77.2294L91.1004 72.9013L86.7706 68.5731L91.0295 64.3125C93.3718 61.9692 95.3202 60.0519 95.3593 60.0519C95.3984 60.0519 97.362 61.9844 99.7229 64.3463ZM120.33 64.3125L124.589 68.5731L120.294 72.8658L116 77.1585L111.706 72.8658L107.411 68.5731L111.67 64.3125C114.013 61.9692 115.961 60.0519 116 60.0519C116.039 60.0519 117.987 61.9692 120.33 64.3125ZM140.971 64.3125L145.229 68.5731L140.9 72.9013L136.57 77.2294L132.277 72.9351L127.984 68.6407L132.277 64.3463C134.638 61.9844 136.602 60.0519 136.641 60.0519C136.68 60.0519 138.628 61.9692 140.971 64.3125Z" fill="#EB595A"/>
<path fill-rule="evenodd" clip-rule="evenodd" d="M89.4365 21.4379C84.1097 26.7661 84 26.8868 84 27.4247C84 27.9614 84.1089 28.0827 88.8454 32.8266L93.6909 37.6797L88.8454 42.5359L84 47.3923V48V48.6077L88.8454 53.4641L93.6909 58.3203L88.8454 63.1734C84.1191 67.907 84 68.0398 84 68.5718C84 69.1052 84.122 69.2396 89.4349 74.5588C94.7729 79.903 94.8796 80 95.4222 80C95.9633 80 96.073 79.9016 100.827 75.1536L105.679 70.3073L110.532 75.1536L115.386 80H116H116.614L121.469 75.1525L126.324 70.3048L131.17 75.1525C135.928 79.912 136.026 80 136.571 80C137.118 80 137.214 79.9124 142.563 74.5621C147.89 69.2339 148 69.1132 148 68.5753C148 68.0387 147.891 67.9174 143.154 63.1728L138.307 58.3194L143.154 53.4673L148 48.6152V48.0042V47.3931L143.153 42.5338L138.307 37.6745L143.153 32.8294C147.917 28.0672 148 27.9746 148 27.4269C148 26.8781 147.919 26.7887 142.559 21.4349C137.24 16.122 137.105 16 136.572 16C136.04 16 135.907 16.1191 131.173 20.8454L126.32 25.6909L121.464 20.8454L116.608 16H116H115.392L110.536 20.8454L105.68 25.6909L100.827 20.8454C96.0788 16.105 95.9618 16 95.4234 16C94.8837 16 94.7683 16.1049 89.4365 21.4379ZM99.6883 31.6878L95.3599 36.0162L91.0652 31.7232L86.7706 27.4302L91.099 23.1001L95.4275 18.77L99.7221 23.0647L104.017 27.3593L99.6883 31.6878ZM140.935 31.7221L136.641 36.0168L132.312 31.6883L127.984 27.3599L132.277 23.0652L136.57 18.7706L140.9 23.099L145.23 27.4275L140.935 31.7221ZM120.33 23.1697L124.589 27.4302L120.294 31.7229L116 36.0157L111.706 31.7229L107.411 27.4302L111.67 23.1697C114.013 20.8263 115.961 18.9091 116 18.9091C116.039 18.9091 117.987 20.8263 120.33 23.1697ZM110.079 33.4207L114.338 37.6813L110.008 42.0095L105.678 46.3377L101.385 42.0433L97.0926 37.7489L101.385 33.4545C103.746 31.0926 105.71 29.1602 105.749 29.1602C105.788 29.1602 107.736 31.0774 110.079 33.4207ZM130.615 33.4545L134.907 37.7489L130.615 42.0433L126.322 46.3377L121.992 42.0095L117.662 37.6813L121.921 33.4207C124.264 31.0774 126.212 29.1602 126.251 29.1602C126.29 29.1602 128.254 31.0926 130.615 33.4545ZM99.7229 52.2944L95.4297 56.5893L91.1353 52.2949L86.8409 48.0006L91.1342 43.7056L95.4275 39.4107L99.7218 43.7051L104.016 47.9994L99.7229 52.2944ZM120.364 43.7059L124.657 48.0006L120.328 52.329L116 56.6575L111.672 52.329L107.343 48.0006L111.636 43.7059C113.997 41.3439 115.961 39.4113 116 39.4113C116.039 39.4113 118.003 41.3439 120.364 43.7059ZM140.866 52.2944L136.573 56.5893L132.278 52.2949L127.984 48.0006L132.277 43.7056L136.57 39.4107L140.865 43.7051L145.159 47.9994L140.866 52.2944ZM110.044 62.6139L105.749 66.9085L101.42 62.5801L97.092 58.2516L101.385 53.957L105.678 49.6623L110.008 53.9908L114.338 58.3192L110.044 62.6139ZM130.58 62.5795L126.252 66.908L121.957 62.615L117.662 58.322L121.991 53.9919L126.319 49.6618L130.614 53.9564L134.909 58.2511L130.58 62.5795ZM99.7229 64.3463L104.016 68.6407L99.7229 72.9351L95.4302 77.2294L91.1004 72.9013L86.7706 68.5731L91.0295 64.3125C93.3718 61.9692 95.3202 60.0519 95.3593 60.0519C95.3984 60.0519 97.362 61.9844 99.7229 64.3463ZM120.33 64.3125L124.589 68.5731L120.294 72.8658L116 77.1585L111.706 72.8658L107.411 68.5731L111.67 64.3125C114.013 61.9692 115.961 60.0519 116 60.0519C116.039 60.0519 117.987 61.9692 120.33 64.3125ZM140.971 64.3125L145.229 68.5731L140.9 72.9013L136.57 77.2294L132.277 72.9351L127.984 68.6407L132.277 64.3463C134.638 61.9844 136.602 60.0519 136.641 60.0519C136.68 60.0519 138.628 61.9692 140.971 64.3125Z" fill="#EB595A"/>
<path fill-rule="evenodd" clip-rule="evenodd" d="M89.4365 21.4379C84.1097 26.7661 84 26.8868 84 27.4247C84 27.9614 84.1089 28.0827 88.8454 32.8266L93.6909 37.6797L88.8454 42.5359L84 47.3923V48V48.6077L88.8454 53.4641L93.6909 58.3203L88.8454 63.1734C84.1191 67.907 84 68.0398 84 68.5718C84 69.1052 84.122 69.2396 89.4349 74.5588C94.7729 79.903 94.8796 80 95.4222 80C95.9633 80 96.073 79.9016 100.827 75.1536L105.679 70.3073L110.532 75.1536L115.386 80H116H116.614L121.469 75.1525L126.324 70.3048L131.17 75.1525C135.928 79.912 136.026 80 136.571 80C137.118 80 137.214 79.9124 142.563 74.5621C147.89 69.2339 148 69.1132 148 68.5753C148 68.0387 147.891 67.9174 143.154 63.1728L138.307 58.3194L143.154 53.4673L148 48.6152V48.0042V47.3931L143.153 42.5338L138.307 37.6745L143.153 32.8294C147.917 28.0672 148 27.9746 148 27.4269C148 26.8781 147.919 26.7887 142.559 21.4349C137.24 16.122 137.105 16 136.572 16C136.04 16 135.907 16.1191 131.173 20.8454L126.32 25.6909L121.464 20.8454L116.608 16H116H115.392L110.536 20.8454L105.68 25.6909L100.827 20.8454C96.0788 16.105 95.9618 16 95.4234 16C94.8837 16 94.7683 16.1049 89.4365 21.4379ZM99.6883 31.6878L95.3599 36.0162L91.0652 31.7232L86.7706 27.4302L91.099 23.1001L95.4275 18.77L99.7221 23.0647L104.017 27.3593L99.6883 31.6878ZM140.935 31.7221L136.641 36.0168L132.312 31.6883L127.984 27.3599L132.277 23.0652L136.57 18.7706L140.9 23.099L145.23 27.4275L140.935 31.7221ZM120.33 23.1697L124.589 27.4302L120.294 31.7229L116 36.0157L111.706 31.7229L107.411 27.4302L111.67 23.1697C114.013 20.8263 115.961 18.9091 116 18.9091C116.039 18.9091 117.987 20.8263 120.33 23.1697ZM110.079 33.4207L114.338 37.6813L110.008 42.0095L105.678 46.3377L101.385 42.0433L97.0926 37.7489L101.385 33.4545C103.746 31.0926 105.71 29.1602 105.749 29.1602C105.788 29.1602 107.736 31.0774 110.079 33.4207ZM130.615 33.4545L134.907 37.7489L130.615 42.0433L126.322 46.3377L121.992 42.0095L117.662 37.6813L121.921 33.4207C124.264 31.0774 126.212 29.1602 126.251 29.1602C126.29 29.1602 128.254 31.0926 130.615 33.4545ZM99.7229 52.2944L95.4297 56.5893L91.1353 52.2949L86.8409 48.0006L91.1342 43.7056L95.4275 39.4107L99.7218 43.7051L104.016 47.9994L99.7229 52.2944ZM120.364 43.7059L124.657 48.0006L120.328 52.329L116 56.6575L111.672 52.329L107.343 48.0006L111.636 43.7059C113.997 41.3439 115.961 39.4113 116 39.4113C116.039 39.4113 118.003 41.3439 120.364 43.7059ZM140.866 52.2944L136.573 56.5893L132.278 52.2949L127.984 48.0006L132.277 43.7056L136.57 39.4107L140.865 43.7051L145.159 47.9994L140.866 52.2944ZM110.044 62.6139L105.749 66.9085L101.42 62.5801L97.092 58.2516L101.385 53.957L105.678 49.6623L110.008 53.9908L114.338 58.3192L110.044 62.6139ZM130.58 62.5795L126.252 66.908L121.957 62.615L117.662 58.322L121.991 53.9919L126.319 49.6618L130.614 53.9564L134.909 58.2511L130.58 62.5795ZM99.7229 64.3463L104.016 68.6407L99.7229 72.9351L95.4302 77.2294L91.1004 72.9013L86.7706 68.5731L91.0295 64.3125C93.3718 61.9692 95.3202 60.0519 95.3593 60.0519C95.3984 60.0519 97.362 61.9844 99.7229 64.3463ZM120.33 64.3125L124.589 68.5731L120.294 72.8658L116 77.1585L111.706 72.8658L107.411 68.5731L111.67 64.3125C114.013 61.9692 115.961 60.0519 116 60.0519C116.039 60.0519 117.987 61.9692 120.33 64.3125ZM140.971 64.3125L145.229 68.5731L140.9 72.9013L136.57 77.2294L132.277 72.9351L127.984 68.6407L132.277 64.3463C134.638 61.9844 136.602 60.0519 136.641 60.0519C136.68 60.0519 138.628 61.9692 140.971 64.3125Z" fill="#EB595A"/>
<path fill-rule="evenodd" clip-rule="evenodd" d="M89.4365 21.4379C84.1097 26.7661 84 26.8868 84 27.4247C84 27.9614 84.1089 28.0827 88.8454 32.8266L93.6909 37.6797L88.8454 42.5359L84 47.3923V48V48.6077L88.8454 53.4641L93.6909 58.3203L88.8454 63.1734C84.1191 67.907 84 68.0398 84 68.5718C84 69.1052 84.122 69.2396 89.4349 74.5588C94.7729 79.903 94.8796 80 95.4222 80C95.9633 80 96.073 79.9016 100.827 75.1536L105.679 70.3073L110.532 75.1536L115.386 80H116H116.614L121.469 75.1525L126.324 70.3048L131.17 75.1525C135.928 79.912 136.026 80 136.571 80C137.118 80 137.214 79.9124 142.563 74.5621C147.89 69.2339 148 69.1132 148 68.5753C148 68.0387 147.891 67.9174 143.154 63.1728L138.307 58.3194L143.154 53.4673L148 48.6152V48.0042V47.3931L143.153 42.5338L138.307 37.6745L143.153 32.8294C147.917 28.0672 148 27.9746 148 27.4269C148 26.8781 147.919 26.7887 142.559 21.4349C137.24 16.122 137.105 16 136.572 16C136.04 16 135.907 16.1191 131.173 20.8454L126.32 25.6909L121.464 20.8454L116.608 16H116H115.392L110.536 20.8454L105.68 25.6909L100.827 20.8454C96.0788 16.105 95.9618 16 95.4234 16C94.8837 16 94.7683 16.1049 89.4365 21.4379ZM99.6883 31.6878L95.3599 36.0162L91.0652 31.7232L86.7706 27.4302L91.099 23.1001L95.4275 18.77L99.7221 23.0647L104.017 27.3593L99.6883 31.6878ZM140.935 31.7221L136.641 36.0168L132.312 31.6883L127.984 27.3599L132.277 23.0652L136.57 18.7706L140.9 23.099L145.23 27.4275L140.935 31.7221ZM120.33 23.1697L124.589 27.4302L120.294 31.7229L116 36.0157L111.706 31.7229L107.411 27.4302L111.67 23.1697C114.013 20.8263 115.961 18.9091 116 18.9091C116.039 18.9091 117.987 20.8263 120.33 23.1697ZM110.079 33.4207L114.338 37.6813L110.008 42.0095L105.678 46.3377L101.385 42.0433L97.0926 37.7489L101.385 33.4545C103.746 31.0926 105.71 29.1602 105.749 29.1602C105.788 29.1602 107.736 31.0774 110.079 33.4207ZM130.615 33.4545L134.907 37.7489L130.615 42.0433L126.322 46.3377L121.992 42.0095L117.662 37.6813L121.921 33.4207C124.264 31.0774 126.212 29.1602 126.251 29.1602C126.29 29.1602 128.254 31.0926 130.615 33.4545ZM99.7229 52.2944L95.4297 56.5893L91.1353 52.2949L86.8409 48.0006L91.1342 43.7056L95.4275 39.4107L99.7218 43.7051L104.016 47.9994L99.7229 52.2944ZM120.364 43.7059L124.657 48.0006L120.328 52.329L116 56.6575L111.672 52.329L107.343 48.0006L111.636 43.7059C113.997 41.3439 115.961 39.4113 116 39.4113C116.039 39.4113 118.003 41.3439 120.364 43.7059ZM140.866 52.2944L136.573 56.5893L132.278 52.2949L127.984 48.0006L132.277 43.7056L136.57 39.4107L140.865 43.7051L145.159 47.9994L140.866 52.2944ZM110.044 62.6139L105.749 66.9085L101.42 62.5801L97.092 58.2516L101.385 53.957L105.678 49.6623L110.008 53.9908L114.338 58.3192L110.044 62.6139ZM130.58 62.5795L126.252 66.908L121.957 62.615L117.662 58.322L121.991 53.9919L126.319 49.6618L130.614 53.9564L134.909 58.2511L130.58 62.5795ZM99.7229 64.3463L104.016 68.6407L99.7229 72.9351L95.4302 77.2294L91.1004 72.9013L86.7706 68.5731L91.0295 64.3125C93.3718 61.9692 95.3202 60.0519 95.3593 60.0519C95.3984 60.0519 97.362 61.9844 99.7229 64.3463ZM120.33 64.3125L124.589 68.5731L120.294 72.8658L116 77.1585L111.706 72.8658L107.411 68.5731L111.67 64.3125C114.013 61.9692 115.961 60.0519 116 60.0519C116.039 60.0519 117.987 61.9692 120.33 64.3125ZM140.971 64.3125L145.229 68.5731L140.9 72.9013L136.57 77.2294L132.277 72.9351L127.984 68.6407L132.277 64.3463C134.638 61.9844 136.602 60.0519 136.641 60.0519C136.68 60.0519 138.628 61.9692 140.971 64.3125Z" fill="#EB595A"/>
<path fill-rule="evenodd" clip-rule="evenodd" d="M89.4365 21.4379C84.1097 26.7661 84 26.8868 84 27.4247C84 27.9614 84.1089 28.0827 88.8454 32.8266L93.6909 37.6797L88.8454 42.5359L84 47.3923V48V48.6077L88.8454 53.4641L93.6909 58.3203L88.8454 63.1734C84.1191 67.907 84 68.0398 84 68.5718C84 69.1052 84.122 69.2396 89.4349 74.5588C94.7729 79.903 94.8796 80 95.4222 80C95.9633 80 96.073 79.9016 100.827 75.1536L105.679 70.3073L110.532 75.1536L115.386 80H116H116.614L121.469 75.1525L126.324 70.3048L131.17 75.1525C135.928 79.912 136.026 80 136.571 80C137.118 80 137.214 79.9124 142.563 74.5621C147.89 69.2339 148 69.1132 148 68.5753C148 68.0387 147.891 67.9174 143.154 63.1728L138.307 58.3194L143.154 53.4673L148 48.6152V48.0042V47.3931L143.153 42.5338L138.307 37.6745L143.153 32.8294C147.917 28.0672 148 27.9746 148 27.4269C148 26.8781 147.919 26.7887 142.559 21.4349C137.24 16.122 137.105 16 136.572 16C136.04 16 135.907 16.1191 131.173 20.8454L126.32 25.6909L121.464 20.8454L116.608 16H116H115.392L110.536 20.8454L105.68 25.6909L100.827 20.8454C96.0788 16.105 95.9618 16 95.4234 16C94.8837 16 94.7683 16.1049 89.4365 21.4379ZM99.6883 31.6878L95.3599 36.0162L91.0652 31.7232L86.7706 27.4302L91.099 23.1001L95.4275 18.77L99.7221 23.0647L104.017 27.3593L99.6883 31.6878ZM140.935 31.7221L136.641 36.0168L132.312 31.6883L127.984 27.3599L132.277 23.0652L136.57 18.7706L140.9 23.099L145.23 27.4275L140.935 31.7221ZM120.33 23.1697L124.589 27.4302L120.294 31.7229L116 36.0157L111.706 31.7229L107.411 27.4302L111.67 23.1697C114.013 20.8263 115.961 18.9091 116 18.9091C116.039 18.9091 117.987 20.8263 120.33 23.1697ZM110.079 33.4207L114.338 37.6813L110.008 42.0095L105.678 46.3377L101.385 42.0433L97.0926 37.7489L101.385 33.4545C103.746 31.0926 105.71 29.1602 105.749 29.1602C105.788 29.1602 107.736 31.0774 110.079 33.4207ZM130.615 33.4545L134.907 37.7489L130.615 42.0433L126.322 46.3377L121.992 42.0095L117.662 37.6813L121.921 33.4207C124.264 31.0774 126.212 29.1602 126.251 29.1602C126.29 29.1602 128.254 31.0926 130.615 33.4545ZM99.7229 52.2944L95.4297 56.5893L91.1353 52.2949L86.8409 48.0006L91.1342 43.7056L95.4275 39.4107L99.7218 43.7051L104.016 47.9994L99.7229 52.2944ZM120.364 43.7059L124.657 48.0006L120.328 52.329L116 56.6575L111.672 52.329L107.343 48.0006L111.636 43.7059C113.997 41.3439 115.961 39.4113 116 39.4113C116.039 39.4113 118.003 41.3439 120.364 43.7059ZM140.866 52.2944L136.573 56.5893L132.278 52.2949L127.984 48.0006L132.277 43.7056L136.57 39.4107L140.865 43.7051L145.159 47.9994L140.866 52.2944ZM110.044 62.6139L105.749 66.9085L101.42 62.5801L97.092 58.2516L101.385 53.957L105.678 49.6623L110.008 53.9908L114.338 58.3192L110.044 62.6139ZM130.58 62.5795L126.252 66.908L121.957 62.615L117.662 58.322L121.991 53.9919L126.319 49.6618L130.614 53.9564L134.909 58.2511L130.58 62.5795ZM99.7229 64.3463L104.016 68.6407L99.7229 72.9351L95.4302 77.2294L91.1004 72.9013L86.7706 68.5731L91.0295 64.3125C93.3718 61.9692 95.3202 60.0519 95.3593 60.0519C95.3984 60.0519 97.362 61.9844 99.7229 64.3463ZM120.33 64.3125L124.589 68.5731L120.294 72.8658L116 77.1585L111.706 72.8658L107.411 68.5731L111.67 64.3125C114.013 61.9692 115.961 60.0519 116 60.0519C116.039 60.0519 117.987 61.9692 120.33 64.3125ZM140.971 64.3125L145.229 68.5731L140.9 72.9013L136.57 77.2294L132.277 72.9351L127.984 68.6407L132.277 64.3463C134.638 61.9844 136.602 60.0519 136.641 60.0519C136.68 60.0519 138.628 61.9692 140.971 64.3125Z" fill="#EB595A"/>
</svg>
