<svg width="232" height="96" viewBox="0 0 232 96" fill="none" xmlns="http://www.w3.org/2000/svg">
<path fill-rule="evenodd" clip-rule="evenodd" d="M125.142 16.3123C124.749 16.7216 124.702 17.1351 124.746 19.7421C124.785 21.9654 124.794 22.0369 125.072 22.3455C125.469 22.7857 126.265 22.7932 126.68 22.3606C126.97 22.0588 126.97 22.0577 126.97 19.4171V16.7755L126.664 16.3971C126.265 15.903 125.572 15.8645 125.142 16.3123ZM116.268 18.1092C115.91 18.2595 115.634 18.7161 115.638 19.1527C115.642 19.6222 117.171 23.5938 117.493 23.9701C118.154 24.7437 119.413 24.2134 119.413 23.1614C119.413 22.697 117.852 18.8254 117.493 18.3992C117.135 17.9742 116.785 17.8915 116.268 18.1092ZM134.185 18.2472C133.926 18.5369 132.283 22.7681 132.283 23.1453C132.283 23.8658 133.012 24.5086 133.628 24.3319C134.139 24.1853 134.326 23.8622 135.183 21.6348C136.061 19.3537 136.18 18.8352 135.91 18.4686C135.518 17.9364 134.572 17.815 134.185 18.2472ZM108.6 23.5418C108.284 23.7017 107.96 24.2744 107.96 24.6736C107.96 25.046 108.461 25.6775 110.194 27.4921C111.334 28.6867 111.498 28.8148 111.883 28.8148C112.481 28.8148 112.643 28.7267 112.926 28.2494C113.33 27.5681 113.133 27.2119 111.227 25.179C109.784 23.6408 109.506 23.3975 109.2 23.4069C109.005 23.4128 108.735 23.4734 108.6 23.5418ZM142.127 23.6061C141.989 23.6358 141.161 24.4185 140.287 25.3454C139.108 26.596 138.678 27.1339 138.622 27.4306C138.468 28.2468 138.973 28.8795 139.761 28.8584C140.233 28.8459 140.316 28.7779 141.827 27.1453C142.692 26.2105 143.507 25.2281 143.637 24.9625L143.873 24.4795L143.527 24.0325C143.177 23.581 142.791 23.4631 142.127 23.6061ZM123.841 25.9434C120.157 26.5598 117.283 28.1316 114.658 30.9654C112.846 32.9208 111.108 36.2694 110.838 38.3262L110.767 38.8626L111.733 39.0801C112.265 39.1997 112.72 39.2762 112.745 39.2503C112.77 39.2242 112.958 38.7066 113.164 38.1C115.183 32.1365 119.09 28.8491 124.769 28.3353C127.68 28.0718 130.529 28.7222 132.84 30.1786C133.535 30.6163 135.03 31.9413 135.479 32.5177C135.702 32.8043 135.947 33.1049 136.024 33.1857C136.573 33.765 138.214 36.7987 138.534 37.8276C138.613 38.0814 138.713 38.289 138.756 38.289C139.086 38.289 140.666 37.6222 140.666 37.4834C140.666 37.1775 140.302 36.1563 139.813 35.0899C138.078 31.3087 134.807 28.2143 130.984 26.7364C129.442 26.1398 128.411 25.9622 126.262 25.9223C125.125 25.9013 124.036 25.9107 123.841 25.9434ZM103.444 31.9006C102.888 32.2378 102.718 33.2857 103.15 33.7084C103.577 34.1265 107.322 35.8281 107.815 35.8281C108.166 35.8281 108.636 35.3831 108.787 34.9062C109.067 34.0221 108.394 33.5004 105.31 32.2097C104.221 31.7539 103.801 31.6842 103.444 31.9006ZM146.334 32.2469C143.474 33.4574 142.792 33.9003 142.792 34.5454C142.792 34.8887 143.241 35.5563 143.636 35.8003C143.933 35.9837 143.99 35.9734 144.734 35.6033C145.165 35.3886 145.539 35.2129 145.565 35.2129C145.709 35.2129 148.433 33.8111 148.606 33.6475C148.866 33.4022 148.874 32.7735 148.621 32.3974C148.451 32.1441 147.8 31.7641 147.548 31.77C147.497 31.7711 146.951 31.9858 146.334 32.2469ZM135.825 41.2546C131.215 41.6322 127.764 42.257 122.928 43.5896L121.425 44.0039L120.154 43.7839C119.454 43.6628 118.218 43.43 117.406 43.2665C115.256 42.8331 112.552 42.379 111.266 42.235C105.179 41.5531 99.3383 41.9915 93.8527 43.5421C93.0074 43.781 91.8109 44.1162 91.194 44.287C90.5771 44.4578 90.0237 44.6434 89.9642 44.6997C89.8567 44.8012 90.5825 47.0249 90.723 47.0249C90.7618 47.0249 91.3485 46.829 92.0269 46.5897C94.569 45.6926 97.7064 44.9796 100.758 44.6053C103.132 44.3142 108.475 44.3143 111.148 44.6055C112.828 44.7886 116.055 45.2845 116.913 45.4916C117.239 45.5702 117.292 45.5386 113.591 47.4772L111.134 48.7642L109.659 48.6328C107.786 48.466 103.922 48.4636 102.234 48.6283C100.739 48.7739 98.2167 49.1516 97.0976 49.397C96.5688 49.513 96.22 49.5292 95.9759 49.4488C95.7811 49.3846 94.8779 49.3276 93.9687 49.3222C92.0196 49.3104 92.428 49.1807 87.0615 51.516C85.0808 52.3779 82.5305 53.4858 81.394 53.9781C73.4302 57.4274 73.6833 57.303 72.8588 58.1706C71.8712 59.2096 71.4827 60.6306 71.4783 63.2189C71.4744 65.474 71.8176 66.6602 72.7936 67.7655C73.7237 68.8185 73.2273 68.6021 83.3422 72.3652C85.68 73.2348 88.682 74.3435 90.0133 74.8289C91.3446 75.3143 92.8854 75.8787 93.4374 76.083C95.6921 76.9176 96.3551 77.16 96.8615 77.3349C97.1537 77.4359 98.6838 77.9927 100.262 78.5721C103.764 79.8583 104.617 80.0554 106.302 79.9675C108.176 79.8697 108.698 79.6439 112.388 77.3303C113.687 76.516 116.184 75.0028 117.937 73.9677C123.626 70.6094 124.507 69.9793 125.047 68.8817C125.474 68.0145 125.556 66.4657 125.225 65.4811C125.015 64.8524 125.011 64.7478 125.171 64.0046C125.267 63.5647 125.348 62.6788 125.354 62.036C125.361 61.0381 125.317 60.7509 125.049 60.0732C124.876 59.6366 124.755 59.2584 124.78 59.2327C124.917 59.0896 125.352 59.5529 125.82 60.3404C127.139 62.5605 128.067 64.7082 129.117 67.9743C129.514 69.2084 129.857 70.2402 129.878 70.2671C129.9 70.294 130.372 70.1886 130.928 70.0328L131.94 69.7495L131.862 69.3687C131.69 68.527 130.938 66.0798 130.459 64.8044C129.703 62.7868 128.574 60.4124 127.632 58.8577C127.407 58.4858 127.361 58.3244 127.469 58.2861C127.94 58.1195 132.721 57.2305 132.979 57.2616C133.21 57.2895 133.488 57.5756 134.092 58.4062C135.878 60.865 136.833 62.5991 138.61 66.6165C138.977 67.4471 139.295 68.1461 139.315 68.1699C139.379 68.2439 141.257 67.5583 141.257 67.4611C141.257 67.2582 140.611 65.457 140.045 64.0786C139.382 62.4651 137.774 59.4614 136.722 57.8689C136.349 57.3056 136.066 56.8227 136.092 56.7957C136.118 56.7688 137.544 56.7101 139.261 56.6654C141.636 56.6036 142.49 56.6213 142.835 56.7396C143.361 56.9209 144.643 58.1385 145.625 59.3906C146.845 60.9465 147.911 62.8587 148.756 65.0102C148.976 65.5717 149.215 66.0513 149.287 66.0761C149.358 66.101 149.746 65.996 150.148 65.843C151.399 65.3669 151.33 65.481 150.979 64.4668C150.224 62.2844 149.075 60.1312 147.656 58.2393C147.181 57.606 146.818 57.0614 146.849 57.0289C146.91 56.9653 147.86 57.1534 151.98 58.0449C153.429 58.3584 154.639 58.5903 154.668 58.5603C154.806 58.4163 155.268 56.4881 155.178 56.4303C155.06 56.3543 150.916 55.414 148.99 55.0262C142.523 53.7241 135.181 53.9638 128.206 55.7049C126.736 56.0716 124.823 56.6523 123.688 57.0762L122.826 57.3978L121.975 56.9619C121.046 56.4851 120.126 56.1577 118.59 55.7567C118.04 55.6131 117.542 55.4646 117.483 55.4267C117.345 55.3378 117.545 55.2244 119.118 54.4977C125.865 51.3819 133.477 49.9275 141.906 50.144C146.938 50.2733 150.562 50.8225 155.426 52.1929C156.414 52.4712 157.237 52.6819 157.256 52.6611C157.274 52.6403 157.403 52.2357 157.542 51.762C157.68 51.2883 157.82 50.8092 157.854 50.6973C157.927 50.4477 157.502 50.2709 155.393 49.6753C152.494 48.8569 149.05 48.2305 145.448 47.8669C143.498 47.67 137.052 47.6703 135.176 47.8674C129.672 48.4455 124.56 49.6822 120.004 51.5378C118.515 52.1439 115.304 53.7345 114.602 54.2134L114.159 54.5158L111.609 53.8197L109.059 53.1237L109.897 52.4986C112.389 50.64 116.101 48.6141 119.295 47.369C125.18 45.0757 130.575 43.9753 137.921 43.5704C142.995 43.2906 149.347 43.9128 154.481 45.1924C155.799 45.521 159.19 46.5124 159.692 46.7162C159.85 46.78 159.953 46.5863 160.245 45.6791C160.573 44.6609 160.587 44.554 160.406 44.454C160.008 44.2344 156.618 43.226 154.835 42.7966C150.147 41.6678 145.188 41.113 140.017 41.1386C138.393 41.1466 136.507 41.1989 135.825 41.2546ZM107.63 50.9401C107.791 51.007 107.677 51.156 107.06 51.6856L106.288 52.3474L104.176 51.7535C103.014 51.4268 102.085 51.1376 102.111 51.1107C102.286 50.9278 107.232 50.7748 107.63 50.9401ZM97.0386 51.8088C98.5522 52.2409 102.499 53.3421 105.894 54.2793C109.779 55.352 111.459 55.8182 112.329 56.0651C112.881 56.222 114.369 56.6378 115.635 56.9893C119.833 58.1545 120.523 58.3954 121.792 59.1381C122.55 59.5813 123.265 60.4239 123.434 61.0712C123.631 61.8279 123.515 63.5177 123.23 64.0309C122.886 64.6522 122.361 64.9876 112.919 70.6247C106.999 74.1595 107.114 74.0922 106.966 74.0933C106.767 74.0946 106.425 73.6902 106.425 73.4536C106.425 72.8499 106.766 72.5533 108.925 71.276C110.115 70.572 112.763 68.9996 114.808 67.7817C116.854 66.564 118.687 65.4735 118.882 65.3584C121.682 63.7058 121.893 63.534 121.893 62.9039C121.893 62.4435 121.493 62.036 121.042 62.036C120.607 62.036 120.397 62.1528 113.923 66.0086C111.195 67.633 108.751 69.0866 108.492 69.239C105.709 70.8713 105.292 71.1984 104.889 72.0665C104.591 72.7075 104.568 74.0508 104.845 74.6231C105.387 75.746 106.429 76.3015 107.458 76.0167C107.767 75.9311 109.852 74.7634 112.093 73.4215C118.188 69.7707 121.653 67.6998 122.247 67.3536C122.539 67.1832 122.905 66.9412 123.06 66.8161C123.418 66.5265 123.504 66.53 123.581 66.8375C123.672 67.201 123.461 67.8815 123.131 68.2909C122.894 68.5841 120.46 70.2006 118.703 71.2312C118.348 71.4393 113.998 74.0247 112.801 74.7388C112.574 74.8743 111.591 75.4856 110.617 76.097C108.652 77.3305 107.968 77.6754 107.03 77.9069C106.197 78.1123 104.57 78.0045 103.651 77.6831C102.99 77.4523 100.861 76.6728 98.5145 75.8031C97.9625 75.5984 96.8467 75.1903 96.035 74.8961C95.2232 74.6018 94.1075 74.1949 93.5555 73.9918C84.9338 70.8183 80.4882 69.1783 79.3278 68.7428C78.5485 68.4505 77.2734 67.9777 76.4944 67.6924C74.7631 67.0584 74.2313 66.6942 73.7775 65.8315C73.4522 65.2131 73.4286 65.0734 73.3862 63.5125C73.3343 61.602 73.4792 60.5793 73.8943 59.9255C74.3274 59.2435 74.7478 59.0128 78.4422 57.4294C79.1241 57.1371 82.3867 55.7218 85.6923 54.2842C88.998 52.8466 92.0265 51.5672 92.4224 51.441C93.5427 51.0837 94.8691 51.1894 97.0386 51.8088Z" fill="#EB595A"/>
<path fill-rule="evenodd" clip-rule="evenodd" d="M125.142 16.3123C124.749 16.7216 124.702 17.1351 124.746 19.7421C124.785 21.9654 124.794 22.0369 125.072 22.3455C125.469 22.7857 126.265 22.7932 126.68 22.3606C126.97 22.0588 126.97 22.0577 126.97 19.4171V16.7755L126.664 16.3971C126.265 15.903 125.572 15.8645 125.142 16.3123ZM116.268 18.1092C115.91 18.2595 115.634 18.7161 115.638 19.1527C115.642 19.6222 117.171 23.5938 117.493 23.9701C118.154 24.7437 119.413 24.2134 119.413 23.1614C119.413 22.697 117.852 18.8254 117.493 18.3992C117.135 17.9742 116.785 17.8915 116.268 18.1092ZM134.185 18.2472C133.926 18.5369 132.283 22.7681 132.283 23.1453C132.283 23.8658 133.012 24.5086 133.628 24.3319C134.139 24.1853 134.326 23.8622 135.183 21.6348C136.061 19.3537 136.18 18.8352 135.91 18.4686C135.518 17.9364 134.572 17.815 134.185 18.2472ZM108.6 23.5418C108.284 23.7017 107.96 24.2744 107.96 24.6736C107.96 25.046 108.461 25.6775 110.194 27.4921C111.334 28.6867 111.498 28.8148 111.883 28.8148C112.481 28.8148 112.643 28.7267 112.926 28.2494C113.33 27.5681 113.133 27.2119 111.227 25.179C109.784 23.6408 109.506 23.3975 109.2 23.4069C109.005 23.4128 108.735 23.4734 108.6 23.5418ZM142.127 23.6061C141.989 23.6358 141.161 24.4185 140.287 25.3454C139.108 26.596 138.678 27.1339 138.622 27.4306C138.468 28.2468 138.973 28.8795 139.761 28.8584C140.233 28.8459 140.316 28.7779 141.827 27.1453C142.692 26.2105 143.507 25.2281 143.637 24.9625L143.873 24.4795L143.527 24.0325C143.177 23.581 142.791 23.4631 142.127 23.6061ZM123.841 25.9434C120.157 26.5598 117.283 28.1316 114.658 30.9654C112.846 32.9208 111.108 36.2694 110.838 38.3262L110.767 38.8626L111.733 39.0801C112.265 39.1997 112.72 39.2762 112.745 39.2503C112.77 39.2242 112.958 38.7066 113.164 38.1C115.183 32.1365 119.09 28.8491 124.769 28.3353C127.68 28.0718 130.529 28.7222 132.84 30.1786C133.535 30.6163 135.03 31.9413 135.479 32.5177C135.702 32.8043 135.947 33.1049 136.024 33.1857C136.573 33.765 138.214 36.7987 138.534 37.8276C138.613 38.0814 138.713 38.289 138.756 38.289C139.086 38.289 140.666 37.6222 140.666 37.4834C140.666 37.1775 140.302 36.1563 139.813 35.0899C138.078 31.3087 134.807 28.2143 130.984 26.7364C129.442 26.1398 128.411 25.9622 126.262 25.9223C125.125 25.9013 124.036 25.9107 123.841 25.9434ZM103.444 31.9006C102.888 32.2378 102.718 33.2857 103.15 33.7084C103.577 34.1265 107.322 35.8281 107.815 35.8281C108.166 35.8281 108.636 35.3831 108.787 34.9062C109.067 34.0221 108.394 33.5004 105.31 32.2097C104.221 31.7539 103.801 31.6842 103.444 31.9006ZM146.334 32.2469C143.474 33.4574 142.792 33.9003 142.792 34.5454C142.792 34.8887 143.241 35.5563 143.636 35.8003C143.933 35.9837 143.99 35.9734 144.734 35.6033C145.165 35.3886 145.539 35.2129 145.565 35.2129C145.709 35.2129 148.433 33.8111 148.606 33.6475C148.866 33.4022 148.874 32.7735 148.621 32.3974C148.451 32.1441 147.8 31.7641 147.548 31.77C147.497 31.7711 146.951 31.9858 146.334 32.2469ZM135.825 41.2546C131.215 41.6322 127.764 42.257 122.928 43.5896L121.425 44.0039L120.154 43.7839C119.454 43.6628 118.218 43.43 117.406 43.2665C115.256 42.8331 112.552 42.379 111.266 42.235C105.179 41.5531 99.3383 41.9915 93.8527 43.5421C93.0074 43.781 91.8109 44.1162 91.194 44.287C90.5771 44.4578 90.023 44.6442 89.9625 44.7013C89.8772 44.7821 90.4905 46.79 90.6653 47.0018C90.6826 47.0228 91.3534 46.8176 92.1557 46.5458C94.9728 45.5912 97.7253 44.971 100.758 44.6073C103.238 44.31 108.417 44.3094 111.148 44.6062C112.827 44.7886 116.052 45.2839 116.913 45.4916C117.239 45.5702 117.292 45.5388 113.596 47.4749L111.143 48.7597L109.419 48.6146C107.21 48.4289 102.484 48.5309 100.581 48.8054C99.8015 48.9178 98.5196 49.1328 97.7322 49.2832C96.7153 49.4774 96.2019 49.5241 95.9611 49.4444C95.7744 49.3826 94.8779 49.3276 93.9687 49.3222C92.0196 49.3104 92.428 49.1807 87.0615 51.516C85.0808 52.3779 82.5305 53.4858 81.394 53.9781C73.4302 57.4274 73.6833 57.303 72.8588 58.1706C71.8712 59.2096 71.4827 60.6306 71.4783 63.2189C71.4744 65.474 71.8176 66.6602 72.7936 67.7655C73.7023 68.7942 73.639 68.766 81.7482 71.7703C83.2094 72.3115 85.1222 73.0239 85.9988 73.3533C86.8755 73.6826 88.682 74.348 90.0133 74.8318C91.3446 75.3157 92.8854 75.8787 93.4374 76.083C95.6921 76.9176 96.3551 77.16 96.8615 77.3349C97.1537 77.4359 98.6802 77.9913 100.254 78.5691C103.442 79.7404 104.451 80 105.808 80C107.563 80 108.946 79.546 110.597 78.4284C111.062 78.113 111.55 77.7936 111.68 77.7187C111.809 77.6436 112.606 77.163 113.451 76.6504C114.295 76.138 116.367 74.901 118.055 73.9017C123.644 70.5942 124.51 69.9722 125.047 68.8817C125.474 68.0145 125.556 66.4657 125.225 65.4811C125.015 64.8524 125.011 64.7478 125.171 64.0046C125.267 63.5647 125.348 62.6788 125.354 62.036C125.361 61.0381 125.317 60.7509 125.049 60.0732C124.876 59.6366 124.755 59.2584 124.78 59.2327C124.917 59.0896 125.352 59.5529 125.82 60.3404C127.139 62.5605 128.067 64.7082 129.117 67.9743C129.514 69.2084 129.857 70.2402 129.878 70.2671C129.9 70.294 130.372 70.1886 130.928 70.0328L131.94 69.7495L131.862 69.3687C131.69 68.527 130.938 66.0798 130.459 64.8044C129.703 62.7868 128.574 60.4124 127.632 58.8577C127.407 58.4858 127.361 58.3244 127.469 58.2861C127.94 58.1195 132.721 57.2304 132.979 57.2616C133.21 57.2895 133.488 57.5756 134.092 58.4062C135.878 60.865 136.833 62.5991 138.61 66.6165C138.977 67.4471 139.295 68.1461 139.315 68.1699C139.379 68.2439 141.257 67.5583 141.257 67.4611C141.257 67.2582 140.611 65.457 140.045 64.0786C139.382 62.4651 137.774 59.4614 136.722 57.8689C136.349 57.3056 136.066 56.8227 136.092 56.7957C136.118 56.7688 137.544 56.7101 139.261 56.6654C141.636 56.6036 142.49 56.6213 142.835 56.7396C143.361 56.9209 144.643 58.1385 145.625 59.3906C146.845 60.9465 147.911 62.8587 148.756 65.0102C148.976 65.5717 149.215 66.0513 149.287 66.0761C149.358 66.101 149.746 65.996 150.148 65.843C151.399 65.3669 151.33 65.481 150.979 64.4668C150.224 62.2844 149.075 60.1312 147.656 58.2393C147.181 57.606 146.818 57.0614 146.849 57.0289C146.91 56.9653 147.86 57.1534 151.98 58.0449C153.429 58.3584 154.639 58.5903 154.668 58.5603C154.806 58.4163 155.268 56.4881 155.178 56.4303C155.06 56.3543 150.916 55.414 148.99 55.0262C142.523 53.7241 135.181 53.9638 128.206 55.7049C126.736 56.0716 124.823 56.6523 123.688 57.0762L122.826 57.3978L121.975 56.9618C121.046 56.4851 120.126 56.1577 118.59 55.7567C117.439 55.4563 117.321 55.4 117.541 55.2561C118.22 54.8121 122.015 53.2183 123.605 52.7097C129.739 50.747 135.259 49.9732 141.906 50.144C146.938 50.2733 150.562 50.8225 155.426 52.1929C156.414 52.4712 157.237 52.6819 157.256 52.6611C157.274 52.6403 157.403 52.2357 157.542 51.762C157.68 51.2883 157.82 50.8092 157.854 50.6973C157.927 50.4477 157.502 50.2709 155.393 49.6753C152.494 48.8569 149.05 48.2305 145.448 47.8669C143.498 47.67 137.052 47.6703 135.176 47.8674C129.672 48.4455 124.56 49.6822 120.004 51.5378C118.515 52.1439 115.304 53.7345 114.602 54.2134L114.159 54.5158L111.609 53.8197L109.059 53.1237L109.897 52.4986C112.389 50.64 116.101 48.6141 119.295 47.369C125.18 45.0757 130.575 43.9753 137.921 43.5704C142.995 43.2906 149.347 43.9128 154.481 45.1924C155.799 45.521 159.19 46.5124 159.692 46.7162C159.85 46.78 159.953 46.5863 160.245 45.6791C160.573 44.6609 160.587 44.554 160.406 44.454C160.008 44.2344 156.618 43.226 154.835 42.7966C150.147 41.6678 145.188 41.113 140.017 41.1386C138.393 41.1466 136.507 41.1989 135.825 41.2546ZM107.63 50.9401C107.791 51.007 107.677 51.156 107.06 51.6856L106.288 52.3474L104.176 51.7535C103.014 51.4268 102.085 51.1376 102.111 51.1107C102.286 50.9278 107.232 50.7748 107.63 50.9401ZM97.0386 51.8095C98.5477 52.241 104.084 53.7841 106.189 54.36C107.625 54.7526 111.386 55.7973 112.329 56.0651C112.881 56.222 114.369 56.6378 115.635 56.9893C119.833 58.1545 120.523 58.3954 121.792 59.1381C122.55 59.5813 123.265 60.4239 123.434 61.0712C123.631 61.8279 123.515 63.5177 123.23 64.0309C122.886 64.6522 122.361 64.9876 112.919 70.6247C106.999 74.1595 107.114 74.0922 106.966 74.0933C106.767 74.0946 106.425 73.6902 106.425 73.4536C106.425 72.8499 106.766 72.5533 108.925 71.276C110.115 70.572 112.763 68.9996 114.808 67.7817C116.854 66.564 118.687 65.4735 118.882 65.3584C121.682 63.7057 121.893 63.534 121.893 62.9039C121.893 62.4435 121.493 62.036 121.042 62.036C120.607 62.036 120.397 62.1528 113.923 66.0086C111.195 67.633 108.751 69.0866 108.492 69.239C105.709 70.8713 105.292 71.1984 104.889 72.0665C104.591 72.7075 104.568 74.0508 104.845 74.6231C105.364 75.6974 106.396 76.2771 107.379 76.0469C107.663 75.9804 109.694 74.8475 112.025 73.4552C114.303 72.0947 117.415 70.2351 118.941 69.3226C120.467 68.4101 121.955 67.5241 122.247 67.3536C122.539 67.1831 122.905 66.9412 123.06 66.8161C123.418 66.5265 123.504 66.53 123.581 66.8375C123.672 67.201 123.461 67.8815 123.131 68.2909C122.894 68.5841 120.46 70.2006 118.703 71.2312C118.348 71.4393 113.998 74.0247 112.801 74.7387C112.574 74.8743 111.591 75.4856 110.617 76.097C108.652 77.3305 107.968 77.6754 107.03 77.9069C106.197 78.1123 104.57 78.0045 103.651 77.6831C102.99 77.4523 100.861 76.6728 98.5145 75.8031C97.9625 75.5984 96.8467 75.1903 96.035 74.8961C95.2232 74.6018 94.1075 74.1949 93.5555 73.9918C84.9338 70.8183 80.4882 69.1783 79.3278 68.7428C78.5485 68.4505 77.2734 67.9777 76.4944 67.6924C74.7631 67.0584 74.2313 66.6942 73.7775 65.8315C73.4522 65.2131 73.4286 65.0734 73.3862 63.5125C73.3343 61.602 73.4792 60.5793 73.8943 59.9255C74.3274 59.2435 74.7478 59.0128 78.4422 57.4294C79.1241 57.1371 82.3867 55.7218 85.6923 54.2842C88.998 52.8466 92.0265 51.5672 92.4224 51.441C93.5435 51.0834 94.8695 51.1894 97.0386 51.8095Z" fill="#EB595A"/>
<path fill-rule="evenodd" clip-rule="evenodd" d="M125.142 16.3123C124.749 16.7216 124.702 17.1351 124.746 19.7421C124.785 21.9654 124.794 22.0369 125.072 22.3455C125.469 22.7857 126.265 22.7932 126.68 22.3606C126.97 22.0588 126.97 22.0577 126.97 19.4171V16.7755L126.664 16.3971C126.265 15.903 125.572 15.8645 125.142 16.3123ZM116.268 18.1092C115.91 18.2595 115.634 18.7161 115.638 19.1527C115.642 19.6222 117.171 23.5938 117.493 23.9701C118.157 24.7467 119.413 24.2129 119.413 23.1545C119.413 22.6861 117.795 18.7148 117.452 18.3417C117.118 17.9781 116.75 17.906 116.268 18.1092ZM134.185 18.2472C134.057 18.3903 133.572 19.5101 133.107 20.7357C132.066 23.4772 132.063 23.9225 133.081 24.2724C133.44 24.3961 133.564 24.3853 133.892 24.2012C134.24 24.0056 134.367 23.7542 135.17 21.662C136.062 19.3378 136.179 18.8338 135.91 18.4686C135.518 17.9364 134.572 17.815 134.185 18.2472ZM108.6 23.5418C108.284 23.7017 107.96 24.2744 107.96 24.6736C107.96 25.046 108.461 25.6775 110.194 27.4921C111.334 28.6867 111.498 28.8148 111.883 28.8148C112.481 28.8148 112.643 28.7267 112.926 28.2494C113.33 27.5681 113.133 27.2119 111.227 25.179C109.784 23.6408 109.506 23.3975 109.2 23.4069C109.005 23.4128 108.735 23.4734 108.6 23.5418ZM142.127 23.6061C141.989 23.6358 141.161 24.4185 140.287 25.3454C139.108 26.596 138.678 27.1339 138.622 27.4306C138.468 28.2468 138.973 28.8795 139.761 28.8584C140.233 28.8459 140.316 28.7779 141.827 27.1453C142.692 26.2105 143.507 25.2281 143.637 24.9625L143.873 24.4795L143.527 24.0325C143.177 23.581 142.791 23.4631 142.127 23.6061ZM123.841 25.9434C120.157 26.5598 117.283 28.1316 114.658 30.9654C112.846 32.9208 111.108 36.2694 110.838 38.3262L110.767 38.8626L111.733 39.0801C112.265 39.1997 112.72 39.2762 112.745 39.2503C112.77 39.2242 112.958 38.7066 113.163 38.1C115.183 32.1365 119.09 28.8491 124.769 28.3353C127.68 28.0718 130.529 28.7222 132.84 30.1786C133.535 30.6163 135.03 31.9413 135.479 32.5177C135.702 32.8043 135.947 33.1049 136.024 33.1857C136.573 33.765 138.214 36.7987 138.534 37.8276C138.613 38.0814 138.713 38.289 138.756 38.289C139.086 38.289 140.666 37.6222 140.666 37.4834C140.666 37.1775 140.302 36.1563 139.813 35.0899C138.079 31.3119 134.804 28.2131 130.984 26.7364C129.442 26.1398 128.411 25.9622 126.261 25.9223C125.125 25.9013 124.036 25.9107 123.841 25.9434ZM103.296 32.0648C102.721 32.6644 102.778 33.4666 103.428 33.9234C103.88 34.2409 107.112 35.6821 107.6 35.7837C108.07 35.8818 108.516 35.5743 108.75 34.9912C109.125 34.0556 108.487 33.5394 105.31 32.2097C104.062 31.6872 103.684 31.66 103.296 32.0648ZM146.334 32.2469C143.474 33.4574 142.792 33.9003 142.792 34.5454C142.792 34.8887 143.241 35.5563 143.636 35.8003C143.933 35.9837 143.99 35.9734 144.734 35.6033C145.165 35.3886 145.539 35.2129 145.565 35.2129C145.709 35.2129 148.433 33.8111 148.606 33.6475C148.866 33.4022 148.874 32.7735 148.621 32.3974C148.451 32.1441 147.8 31.7641 147.548 31.77C147.497 31.7711 146.951 31.9858 146.334 32.2469ZM135.825 41.2546C131.215 41.6322 127.764 42.257 122.928 43.5896L121.425 44.0039L120.154 43.7839C119.454 43.6628 118.218 43.4305 117.406 43.2676C113.4 42.4636 111.286 42.1762 107.923 41.9779C103.395 41.7109 98.3446 42.2723 93.8527 43.5421C93.0074 43.781 91.8109 44.1162 91.194 44.287C90.5771 44.4578 90.023 44.6442 89.9625 44.7013C89.8772 44.7821 90.4905 46.79 90.6653 47.0018C90.6826 47.0228 91.3534 46.8176 92.1557 46.5458C94.9728 45.5912 97.7253 44.971 100.758 44.6073C103.238 44.31 108.417 44.3094 111.148 44.6062C112.827 44.7886 116.052 45.2839 116.913 45.4916C117.238 45.5698 117.352 45.5012 113.618 47.4692L111.15 48.7702L109.43 48.6198C107.235 48.4277 102.513 48.5269 100.581 48.8054C99.8015 48.9178 98.5196 49.1328 97.7322 49.2832C96.7153 49.4774 96.2019 49.5241 95.9611 49.4444C95.7744 49.3826 94.8779 49.3276 93.9687 49.3222C92.0196 49.3104 92.428 49.1807 87.0615 51.516C85.0808 52.3779 82.5305 53.4858 81.394 53.9781C73.4302 57.4274 73.6833 57.303 72.8588 58.1706C71.8712 59.2096 71.4827 60.6306 71.4783 63.2189C71.4744 65.474 71.8176 66.6602 72.7936 67.7655C73.7023 68.7942 73.639 68.766 81.7482 71.7703C83.2094 72.3115 85.1222 73.0239 85.9988 73.3533C86.8755 73.6826 88.682 74.348 90.0133 74.8318C91.3446 75.3157 92.8854 75.8787 93.4374 76.083C95.6921 76.9176 96.3551 77.16 96.8615 77.3349C97.1537 77.4359 98.6802 77.9913 100.254 78.5692C103.408 79.7275 104.455 80.0005 105.741 79.999C107.551 79.9972 108.946 79.5459 110.597 78.4284C111.062 78.113 111.55 77.7936 111.68 77.7187C111.809 77.6436 112.606 77.163 113.451 76.6504C114.295 76.138 116.367 74.901 118.055 73.9017C123.644 70.5942 124.51 69.9723 125.047 68.8817C125.474 68.0145 125.556 66.4657 125.225 65.4811C125.015 64.8524 125.011 64.7478 125.171 64.0046C125.267 63.5647 125.348 62.6788 125.354 62.036C125.361 61.0381 125.317 60.7509 125.049 60.0732C124.876 59.6366 124.755 59.2584 124.78 59.2327C125.024 58.9776 125.884 60.2724 127.048 62.6512C127.906 64.4035 128.315 65.4588 129.17 68.1265C129.539 69.2769 129.858 70.2402 129.879 70.2671C129.9 70.294 130.372 70.1886 130.928 70.0328L131.94 69.7495L131.862 69.3687C131.276 66.5059 129.319 61.6433 127.632 58.8577C127.407 58.4858 127.361 58.3244 127.469 58.2861C127.94 58.1195 132.721 57.2304 132.979 57.2616C133.21 57.2895 133.488 57.5756 134.092 58.4062C135.878 60.865 136.833 62.5991 138.61 66.6165C138.977 67.4471 139.295 68.1461 139.315 68.1699C139.379 68.2439 141.257 67.5583 141.257 67.4611C141.257 67.2582 140.611 65.457 140.045 64.0786C139.382 62.4651 137.774 59.4614 136.722 57.8689C136.349 57.3056 136.066 56.8227 136.092 56.7957C136.118 56.7688 137.544 56.7101 139.261 56.6654C141.636 56.6036 142.49 56.6213 142.835 56.7396C143.361 56.9209 144.643 58.1385 145.625 59.3906C146.845 60.9465 147.911 62.8587 148.756 65.0102C148.976 65.5717 149.215 66.0513 149.287 66.0761C149.358 66.101 149.746 65.996 150.148 65.843C151.399 65.3669 151.33 65.4815 150.98 64.4636C150.67 63.5654 149.827 61.6709 149.434 60.9901C149.317 60.7871 149.064 60.3451 148.872 60.008C148.68 59.6709 148.133 58.8759 147.657 58.2415C147.181 57.6071 146.818 57.0614 146.849 57.0289C146.91 56.9653 147.86 57.1534 151.98 58.0449C153.429 58.3584 154.637 58.5923 154.663 58.5646C154.795 58.4269 155.26 56.4835 155.175 56.4281C155.059 56.3538 150.89 55.4088 148.99 55.0262C142.523 53.7241 135.181 53.9638 128.206 55.7049C126.736 56.0716 124.823 56.6523 123.688 57.0762L122.826 57.3978L121.975 56.9618C121.046 56.4851 120.126 56.1577 118.59 55.7567C117.439 55.4563 117.321 55.4 117.541 55.2561C118.22 54.8121 122.015 53.2183 123.605 52.7097C129.739 50.747 135.259 49.9732 141.906 50.144C146.938 50.2733 150.562 50.8225 155.426 52.1929C156.414 52.4712 157.237 52.6819 157.256 52.6611C157.274 52.6403 157.403 52.2357 157.542 51.762C157.68 51.2883 157.82 50.8092 157.854 50.6973C157.927 50.4477 157.502 50.2709 155.393 49.6753C152.494 48.8569 149.05 48.2305 145.448 47.8669C143.498 47.67 137.052 47.6703 135.176 47.8674C129.489 48.4649 124.616 49.6601 119.708 51.6616C118.447 52.176 115.231 53.7838 114.602 54.2145L114.159 54.5181L112.152 53.967C111.048 53.6641 109.896 53.3537 109.592 53.2774L109.039 53.1386L109.887 52.5062C112.389 50.6399 116.095 48.6162 119.295 47.369C125.18 45.0757 130.575 43.9753 137.921 43.5704C142.995 43.2906 149.347 43.9128 154.481 45.1924C155.799 45.521 159.19 46.5124 159.692 46.7162C159.85 46.78 159.953 46.5863 160.245 45.6791C160.573 44.6609 160.587 44.554 160.406 44.454C160.008 44.2344 156.618 43.226 154.835 42.7966C150.147 41.6678 145.188 41.113 140.017 41.1386C138.393 41.1466 136.507 41.1989 135.825 41.2546ZM107.63 50.9401C107.791 51.007 107.677 51.156 107.06 51.6856L106.288 52.3474L104.176 51.7535C103.014 51.4268 102.085 51.1376 102.111 51.1107C102.286 50.9278 107.232 50.7748 107.63 50.9401ZM97.0386 51.8095C98.5477 52.241 104.084 53.7841 106.189 54.36C107.625 54.7526 111.386 55.7973 112.329 56.0651C112.881 56.222 114.369 56.6378 115.635 56.9893C119.833 58.1545 120.523 58.3954 121.792 59.1381C122.55 59.5813 123.265 60.4239 123.434 61.0712C123.631 61.8279 123.515 63.5177 123.23 64.0309C122.886 64.6522 122.361 64.9876 112.919 70.6247C106.999 74.1595 107.114 74.0922 106.966 74.0933C106.767 74.0946 106.425 73.6902 106.425 73.4536C106.425 72.8499 106.766 72.5533 108.925 71.276C110.115 70.572 112.763 68.9996 114.808 67.7817C116.854 66.564 118.687 65.4735 118.882 65.3584C121.682 63.7057 121.893 63.534 121.893 62.9039C121.893 62.4435 121.493 62.036 121.042 62.036C120.607 62.036 120.397 62.1528 113.923 66.0086C111.195 67.633 108.751 69.0866 108.492 69.239C105.709 70.8713 105.292 71.1984 104.889 72.0665C104.591 72.7075 104.568 74.0508 104.845 74.6231C105.364 75.6974 106.396 76.2771 107.379 76.0469C107.663 75.9804 109.694 74.8475 112.025 73.4552C114.303 72.0947 117.415 70.2351 118.941 69.3226C120.467 68.4101 121.955 67.5241 122.247 67.3536C122.539 67.1832 122.905 66.9412 123.06 66.8161C123.215 66.6909 123.381 66.5885 123.43 66.5885C123.591 66.5885 123.645 67.0804 123.531 67.5104C123.275 68.4784 122.995 68.6753 115.753 72.9823C114.357 73.8127 113.029 74.6032 112.801 74.7387C112.574 74.8743 111.591 75.4856 110.617 76.097C108.652 77.3305 107.968 77.6754 107.03 77.9069C106.197 78.1123 104.57 78.0045 103.651 77.6831C102.99 77.4523 100.861 76.6728 98.5145 75.8031C97.9625 75.5984 96.8467 75.1913 96.035 74.8985C95.2232 74.6055 94.1872 74.2254 93.7326 74.054C93.278 73.8825 91.8169 73.3448 90.4856 72.8592C89.1543 72.3734 87.3212 71.7009 86.4121 71.3645C85.5029 71.0281 83.8824 70.431 82.8109 70.0375C81.7394 69.6441 80.1985 69.0722 79.3868 68.7667C78.575 68.4612 77.2734 67.9777 76.4944 67.6924C74.7631 67.0584 74.2313 66.6942 73.7775 65.8315C73.4522 65.2131 73.4286 65.0734 73.3862 63.5125C73.3343 61.602 73.4792 60.5793 73.8943 59.9255C74.3274 59.2435 74.7478 59.0128 78.4422 57.4294C79.1241 57.1371 82.3867 55.7218 85.6923 54.2842C88.998 52.8466 92.0265 51.5672 92.4224 51.441C93.5435 51.0834 94.8695 51.1894 97.0386 51.8095Z" fill="#EB595A"/>
<path fill-rule="evenodd" clip-rule="evenodd" d="M132.402 23.8165C132.402 23.842 132.495 23.939 132.608 24.0319C132.796 24.1848 132.8 24.1805 132.653 23.9853C132.499 23.7804 132.402 23.7153 132.402 23.8165ZM143.685 24.4213C143.73 24.5426 143.796 24.6109 143.832 24.573C143.868 24.5352 143.832 24.4359 143.751 24.3524C143.635 24.2318 143.621 24.246 143.685 24.4213ZM111.503 25.5311C111.503 25.5523 111.676 25.7323 111.887 25.931L112.27 26.2924L111.924 25.8925C111.6 25.5198 111.503 25.436 111.503 25.5311ZM142.311 26.5692L142.025 26.9076L142.349 26.6093C142.528 26.4452 142.674 26.293 142.674 26.271C142.674 26.1744 142.578 26.253 142.311 26.5692ZM138.999 26.6923C138.852 26.8874 138.856 26.8917 139.043 26.7388C139.24 26.578 139.302 26.4769 139.205 26.4769C139.181 26.4769 139.088 26.5738 138.999 26.6923ZM135.944 29.8456C135.944 29.871 136.037 29.968 136.151 30.0609C136.338 30.2138 136.342 30.2095 136.195 30.0144C136.041 29.8094 135.944 29.7443 135.944 29.8456ZM137.095 41.2003C137.176 41.2345 137.309 41.2345 137.39 41.2003C137.472 41.1662 137.405 41.1383 137.243 41.1383C137.08 41.1383 137.014 41.1662 137.095 41.2003ZM143.117 41.2003C143.198 41.2345 143.331 41.2345 143.412 41.2003C143.493 41.1662 143.427 41.1383 143.264 41.1383C143.102 41.1383 143.036 41.1662 143.117 41.2003ZM135.45 41.3259C135.535 41.3615 135.637 41.3571 135.676 41.3162C135.715 41.2754 135.645 41.2463 135.521 41.2516C135.383 41.2575 135.355 41.2867 135.45 41.3259ZM105.157 41.9475C105.465 41.9729 105.97 41.9729 106.278 41.9475C106.587 41.9222 106.334 41.9014 105.717 41.9014C105.1 41.9014 104.848 41.9222 105.157 41.9475ZM136.151 43.6611C136.232 43.6954 136.365 43.6954 136.446 43.6611C136.527 43.6271 136.46 43.5991 136.298 43.5991C136.136 43.5991 136.069 43.6271 136.151 43.6611ZM133.56 43.9098C133.646 43.9454 133.747 43.9409 133.787 43.9001C133.826 43.8592 133.756 43.8302 133.632 43.8355C133.494 43.8414 133.466 43.8706 133.56 43.9098ZM147.139 43.9098C147.224 43.9454 147.326 43.9409 147.365 43.9001C147.404 43.8592 147.334 43.8302 147.21 43.8355C147.072 43.8414 147.044 43.8706 147.139 43.9098ZM103.452 44.402C103.537 44.4375 103.639 44.4331 103.678 44.3923C103.717 44.3514 103.648 44.3224 103.523 44.3277C103.386 44.3336 103.358 44.3627 103.452 44.402ZM108.108 44.4027C108.222 44.4337 108.408 44.4337 108.522 44.4027C108.635 44.3718 108.542 44.3465 108.315 44.3465C108.088 44.3465 107.995 44.3718 108.108 44.4027ZM101.563 44.525C101.648 44.5606 101.75 44.5562 101.789 44.5153C101.828 44.4745 101.759 44.4454 101.634 44.4507C101.497 44.4566 101.469 44.4858 101.563 44.525ZM138.165 47.7241C138.25 47.7597 138.352 47.7552 138.391 47.7144C138.431 47.6735 138.361 47.6445 138.237 47.6498C138.099 47.6557 138.071 47.6849 138.165 47.7241ZM142.298 47.7241C142.383 47.7597 142.485 47.7552 142.524 47.7144C142.563 47.6735 142.494 47.6445 142.369 47.6498C142.232 47.6557 142.204 47.6849 142.298 47.7241ZM135.922 47.8471C136.007 47.8827 136.109 47.8783 136.148 47.8374C136.187 47.7966 136.118 47.7675 135.993 47.7728C135.856 47.7787 135.828 47.8079 135.922 47.8471ZM134.505 47.9702C134.59 48.0057 134.692 48.0013 134.731 47.9605C134.77 47.9196 134.701 47.8906 134.576 47.8959C134.439 47.9018 134.411 47.9309 134.505 47.9702ZM147.021 48.0932C147.106 48.1288 147.208 48.1244 147.247 48.0835C147.286 48.0427 147.216 48.0136 147.092 48.0189C146.954 48.0248 146.926 48.054 147.021 48.0932ZM137.339 50.1849C137.424 50.2205 137.526 50.2161 137.565 50.1752C137.604 50.1344 137.534 50.1053 137.41 50.1106C137.272 50.1165 137.244 50.1457 137.339 50.1849ZM143.36 50.1849C143.446 50.2205 143.547 50.2161 143.587 50.1752C143.626 50.1344 143.556 50.1053 143.432 50.1106C143.294 50.1165 143.266 50.1457 143.36 50.1849ZM107.355 51.4236C107.209 51.6187 107.213 51.623 107.4 51.4701C107.597 51.3093 107.659 51.2083 107.562 51.2083C107.537 51.2083 107.444 51.3052 107.355 51.4236ZM138.401 54.2453C138.486 54.2809 138.588 54.2764 138.628 54.2356C138.667 54.1947 138.597 54.1657 138.473 54.171C138.335 54.1769 138.307 54.206 138.401 54.2453ZM141.825 54.2453C141.911 54.2809 142.012 54.2764 142.052 54.2356C142.091 54.1947 142.021 54.1657 141.897 54.171C141.759 54.1769 141.731 54.206 141.825 54.2453Z" fill="#EB595A"/>
<path fill-rule="evenodd" clip-rule="evenodd" d="M132.402 23.8165C132.402 23.842 132.495 23.939 132.608 24.0319C132.796 24.1848 132.8 24.1805 132.653 23.9853C132.499 23.7804 132.402 23.7153 132.402 23.8165ZM143.685 24.4213C143.73 24.5426 143.796 24.6109 143.832 24.573C143.868 24.5352 143.832 24.4359 143.751 24.3524C143.635 24.2318 143.621 24.246 143.685 24.4213ZM111.503 25.5311C111.503 25.5523 111.676 25.7323 111.887 25.931L112.27 26.2924L111.924 25.8925C111.6 25.5198 111.503 25.436 111.503 25.5311ZM142.311 26.5692L142.025 26.9076L142.349 26.6093C142.528 26.4452 142.674 26.293 142.674 26.271C142.674 26.1744 142.578 26.253 142.311 26.5692ZM138.999 26.6923C138.852 26.8874 138.856 26.8917 139.043 26.7388C139.24 26.578 139.302 26.4769 139.205 26.4769C139.181 26.4769 139.088 26.5738 138.999 26.6923ZM135.944 29.8456C135.944 29.871 136.037 29.968 136.151 30.0609C136.338 30.2138 136.342 30.2095 136.195 30.0144C136.041 29.8094 135.944 29.7443 135.944 29.8456ZM137.095 41.2003C137.176 41.2345 137.309 41.2345 137.39 41.2003C137.472 41.1662 137.405 41.1383 137.243 41.1383C137.08 41.1383 137.014 41.1662 137.095 41.2003ZM143.117 41.2003C143.198 41.2345 143.331 41.2345 143.412 41.2003C143.493 41.1662 143.427 41.1383 143.264 41.1383C143.102 41.1383 143.036 41.1662 143.117 41.2003ZM135.45 41.3259C135.535 41.3615 135.637 41.3571 135.676 41.3162C135.715 41.2754 135.645 41.2463 135.521 41.2516C135.383 41.2575 135.355 41.2867 135.45 41.3259ZM105.157 41.9475C105.465 41.9729 105.97 41.9729 106.278 41.9475C106.587 41.9222 106.334 41.9014 105.717 41.9014C105.1 41.9014 104.848 41.9222 105.157 41.9475ZM136.151 43.6611C136.232 43.6954 136.365 43.6954 136.446 43.6611C136.527 43.6271 136.46 43.5991 136.298 43.5991C136.136 43.5991 136.069 43.6271 136.151 43.6611ZM103.452 44.402C103.537 44.4375 103.639 44.4331 103.678 44.3923C103.717 44.3514 103.648 44.3224 103.523 44.3277C103.386 44.3336 103.358 44.3627 103.452 44.402ZM108.108 44.4027C108.222 44.4337 108.408 44.4337 108.522 44.4027C108.635 44.3718 108.542 44.3465 108.315 44.3465C108.088 44.3465 107.995 44.3718 108.108 44.4027ZM101.563 44.525C101.648 44.5606 101.75 44.5562 101.789 44.5153C101.828 44.4745 101.759 44.4454 101.634 44.4507C101.497 44.4566 101.469 44.4858 101.563 44.525ZM138.165 47.7241C138.25 47.7597 138.352 47.7552 138.391 47.7144C138.431 47.6735 138.361 47.6445 138.237 47.6498C138.099 47.6557 138.071 47.6849 138.165 47.7241ZM142.298 47.7241C142.383 47.7597 142.485 47.7552 142.524 47.7144C142.563 47.6735 142.494 47.6445 142.369 47.6498C142.232 47.6557 142.204 47.6849 142.298 47.7241ZM135.922 47.8471C136.007 47.8827 136.109 47.8783 136.148 47.8374C136.187 47.7966 136.118 47.7675 135.993 47.7728C135.856 47.7787 135.828 47.8079 135.922 47.8471ZM134.505 47.9702C134.59 48.0057 134.692 48.0013 134.731 47.9605C134.77 47.9196 134.701 47.8906 134.576 47.8959C134.439 47.9018 134.411 47.9309 134.505 47.9702ZM147.021 48.0932C147.106 48.1288 147.208 48.1244 147.247 48.0835C147.286 48.0427 147.216 48.0136 147.092 48.0189C146.954 48.0248 146.926 48.054 147.021 48.0932ZM137.339 50.1849C137.424 50.2205 137.526 50.2161 137.565 50.1752C137.604 50.1344 137.534 50.1053 137.41 50.1106C137.272 50.1165 137.244 50.1457 137.339 50.1849ZM143.36 50.1849C143.446 50.2205 143.547 50.2161 143.587 50.1752C143.626 50.1344 143.556 50.1053 143.432 50.1106C143.294 50.1165 143.266 50.1457 143.36 50.1849ZM107.355 51.4236C107.209 51.6187 107.213 51.623 107.4 51.4701C107.597 51.3093 107.659 51.2083 107.562 51.2083C107.537 51.2083 107.444 51.3052 107.355 51.4236ZM138.401 54.2453C138.486 54.2809 138.588 54.2764 138.628 54.2356C138.667 54.1947 138.597 54.1657 138.473 54.171C138.335 54.1769 138.307 54.206 138.401 54.2453ZM141.825 54.2453C141.911 54.2809 142.012 54.2764 142.052 54.2356C142.091 54.1947 142.021 54.1657 141.897 54.171C141.759 54.1769 141.731 54.206 141.825 54.2453Z" fill="#EB595A"/>
<path fill-rule="evenodd" clip-rule="evenodd" d="M132.402 23.8165C132.402 23.842 132.495 23.939 132.608 24.0319C132.796 24.1848 132.8 24.1805 132.653 23.9853C132.499 23.7804 132.402 23.7153 132.402 23.8165ZM143.685 24.4213C143.73 24.5426 143.796 24.6109 143.832 24.573C143.868 24.5352 143.832 24.4359 143.751 24.3524C143.635 24.2318 143.621 24.246 143.685 24.4213ZM111.503 25.5311C111.503 25.5523 111.676 25.7323 111.887 25.931L112.27 26.2924L111.924 25.8925C111.6 25.5198 111.503 25.436 111.503 25.5311ZM142.311 26.5692L142.025 26.9076L142.349 26.6093C142.528 26.4452 142.674 26.293 142.674 26.271C142.674 26.1744 142.578 26.253 142.311 26.5692ZM135.944 29.8456C135.944 29.871 136.037 29.968 136.151 30.0609C136.338 30.2138 136.342 30.2095 136.195 30.0144C136.041 29.8094 135.944 29.7443 135.944 29.8456ZM137.103 41.2029C137.188 41.2385 137.29 41.234 137.329 41.1932C137.368 41.1523 137.298 41.1233 137.174 41.1286C137.036 41.1345 137.008 41.1637 137.103 41.2029ZM143.242 41.2029C143.327 41.2385 143.429 41.234 143.469 41.1932C143.508 41.1523 143.438 41.1233 143.314 41.1286C143.176 41.1345 143.148 41.1637 143.242 41.2029ZM135.45 41.326C135.535 41.3615 135.637 41.3571 135.676 41.3162C135.715 41.2754 135.645 41.2463 135.521 41.2516C135.383 41.2575 135.355 41.2867 135.45 41.326ZM104.805 41.9424C104.919 41.9736 105.079 41.9715 105.159 41.9378C105.239 41.9041 105.145 41.8787 104.95 41.8811C104.755 41.8836 104.69 41.9111 104.805 41.9424ZM106.219 41.9419C106.333 41.9729 106.519 41.9729 106.632 41.9419C106.746 41.911 106.653 41.8857 106.426 41.8857C106.199 41.8857 106.106 41.911 106.219 41.9419ZM103.452 44.402C103.537 44.4375 103.639 44.4331 103.678 44.3923C103.717 44.3514 103.648 44.3224 103.523 44.3277C103.386 44.3336 103.358 44.3627 103.452 44.402ZM108.108 44.4027C108.222 44.4337 108.408 44.4337 108.522 44.4027C108.635 44.3718 108.542 44.3465 108.315 44.3465C108.088 44.3465 107.995 44.3718 108.108 44.4027ZM101.563 44.525C101.648 44.5606 101.75 44.5562 101.789 44.5153C101.828 44.4745 101.759 44.4454 101.634 44.4507C101.497 44.4566 101.469 44.4858 101.563 44.525ZM138.165 47.7241C138.25 47.7597 138.352 47.7552 138.391 47.7144C138.431 47.6735 138.361 47.6445 138.237 47.6498C138.099 47.6557 138.071 47.6849 138.165 47.7241ZM142.298 47.7241C142.383 47.7597 142.485 47.7552 142.524 47.7144C142.563 47.6735 142.494 47.6445 142.369 47.6498C142.232 47.6557 142.204 47.6849 142.298 47.7241ZM135.922 47.8471C136.007 47.8827 136.109 47.8783 136.148 47.8374C136.187 47.7966 136.118 47.7675 135.993 47.7728C135.856 47.7787 135.828 47.8079 135.922 47.8471ZM134.505 47.9702C134.59 48.0057 134.692 48.0013 134.731 47.9605C134.77 47.9196 134.701 47.8906 134.576 47.8959C134.439 47.9018 134.411 47.9309 134.505 47.9702ZM147.021 48.0932C147.106 48.1288 147.208 48.1244 147.247 48.0835C147.286 48.0427 147.216 48.0136 147.092 48.0189C146.954 48.0248 146.926 48.054 147.021 48.0932ZM137.339 50.1849C137.424 50.2205 137.526 50.2161 137.565 50.1752C137.604 50.1344 137.534 50.1053 137.41 50.1106C137.272 50.1165 137.244 50.1457 137.339 50.1849ZM143.36 50.1849C143.446 50.2205 143.547 50.2161 143.587 50.1752C143.626 50.1344 143.556 50.1053 143.432 50.1106C143.294 50.1165 143.266 50.1457 143.36 50.1849ZM107.355 51.4236C107.209 51.6187 107.213 51.623 107.4 51.4701C107.597 51.3093 107.659 51.2083 107.562 51.2083C107.537 51.2083 107.444 51.3052 107.355 51.4236Z" fill="#EB595A"/>
<path fill-rule="evenodd" clip-rule="evenodd" d="M111.503 25.5312C111.503 25.5524 111.676 25.7324 111.887 25.9311L112.27 26.2924L111.924 25.8926C111.6 25.5199 111.503 25.4361 111.503 25.5312ZM142.368 26.5078L142.143 26.7846L142.408 26.5502C142.658 26.33 142.728 26.2309 142.633 26.2309C142.611 26.2309 142.491 26.3554 142.368 26.5078ZM135.944 29.8456C135.944 29.8711 136.037 29.9681 136.151 30.061C136.338 30.2139 136.342 30.2096 136.195 30.0145C136.041 29.8095 135.944 29.7444 135.944 29.8456ZM137.103 41.203C137.188 41.2385 137.29 41.2341 137.329 41.1933C137.368 41.1524 137.298 41.1234 137.174 41.1287C137.036 41.1346 137.008 41.1637 137.103 41.203ZM143.242 41.203C143.327 41.2385 143.429 41.2341 143.469 41.1933C143.508 41.1524 143.438 41.1234 143.314 41.1287C143.176 41.1346 143.148 41.1637 143.242 41.203ZM104.805 41.9425C104.919 41.9737 105.079 41.9716 105.159 41.9379C105.239 41.9042 105.145 41.8787 104.95 41.8812C104.755 41.8836 104.69 41.9112 104.805 41.9425ZM106.219 41.942C106.333 41.973 106.519 41.973 106.632 41.942C106.746 41.9111 106.653 41.8857 106.426 41.8857C106.199 41.8857 106.106 41.9111 106.219 41.942ZM103.452 44.4021C103.537 44.4376 103.639 44.4332 103.678 44.3923C103.717 44.3515 103.648 44.3225 103.523 44.3277C103.386 44.3336 103.358 44.3628 103.452 44.4021ZM108.057 44.4021C108.142 44.4376 108.244 44.4332 108.283 44.3923C108.322 44.3515 108.253 44.3225 108.128 44.3277C107.991 44.3336 107.963 44.3628 108.057 44.4021ZM138.165 47.7242C138.25 47.7597 138.352 47.7553 138.391 47.7145C138.431 47.6736 138.361 47.6446 138.237 47.6499C138.099 47.6558 138.071 47.6849 138.165 47.7242ZM142.298 47.7242C142.383 47.7597 142.485 47.7553 142.524 47.7145C142.563 47.6736 142.494 47.6446 142.369 47.6499C142.232 47.6558 142.204 47.6849 142.298 47.7242ZM135.922 47.8472C136.007 47.8828 136.109 47.8783 136.148 47.8375C136.187 47.7966 136.118 47.7676 135.993 47.7729C135.856 47.7788 135.828 47.808 135.922 47.8472ZM147.021 48.0933C147.106 48.1289 147.208 48.1244 147.247 48.0836C147.286 48.0427 147.216 48.0137 147.092 48.019C146.954 48.0249 146.926 48.0541 147.021 48.0933ZM137.339 50.185C137.424 50.2206 137.526 50.2161 137.565 50.1753C137.604 50.1344 137.534 50.1054 137.41 50.1107C137.272 50.1166 137.244 50.1458 137.339 50.185ZM143.36 50.185C143.446 50.2206 143.547 50.2161 143.587 50.1753C143.626 50.1344 143.556 50.1054 143.432 50.1107C143.294 50.1166 143.266 50.1458 143.36 50.185ZM107.355 51.4237C107.209 51.6188 107.213 51.6231 107.4 51.4702C107.597 51.3094 107.659 51.2083 107.562 51.2083C107.538 51.2083 107.444 51.3053 107.355 51.4237Z" fill="#EB595A"/>
<path fill-rule="evenodd" clip-rule="evenodd" d="M111.857 25.9233C112.01 26.0925 112.161 26.2309 112.194 26.2309C112.226 26.2309 112.128 26.0925 111.975 25.9233C111.823 25.7541 111.671 25.6157 111.639 25.6157C111.606 25.6157 111.705 25.7541 111.857 25.9233ZM142.423 26.4463C142.276 26.6414 142.28 26.6457 142.467 26.4928C142.664 26.3319 142.727 26.2309 142.629 26.2309C142.605 26.2309 142.512 26.3278 142.423 26.4463ZM135.944 29.8456C135.944 29.8711 136.037 29.9681 136.151 30.061C136.338 30.2139 136.342 30.2096 136.195 30.0145C136.041 29.8095 135.944 29.7444 135.944 29.8456ZM137.103 41.203C137.188 41.2385 137.29 41.2341 137.329 41.1933C137.368 41.1524 137.298 41.1234 137.174 41.1287C137.036 41.1346 137.008 41.1637 137.103 41.203ZM143.242 41.203C143.327 41.2385 143.429 41.2341 143.469 41.1933C143.508 41.1524 143.438 41.1234 143.314 41.1287C143.176 41.1346 143.148 41.1637 143.242 41.203ZM104.805 41.9425C104.919 41.9737 105.079 41.9716 105.159 41.9379C105.239 41.9042 105.145 41.8787 104.95 41.8812C104.755 41.8836 104.69 41.9112 104.805 41.9425ZM106.219 41.942C106.333 41.973 106.519 41.973 106.632 41.942C106.746 41.9111 106.653 41.8857 106.426 41.8857C106.199 41.8857 106.106 41.9111 106.219 41.942ZM103.452 44.4021C103.537 44.4376 103.639 44.4332 103.678 44.3923C103.717 44.3515 103.648 44.3224 103.523 44.3277C103.386 44.3336 103.358 44.3628 103.452 44.4021ZM108.057 44.4021C108.142 44.4376 108.244 44.4332 108.283 44.3923C108.322 44.3515 108.253 44.3224 108.128 44.3277C107.991 44.3336 107.963 44.3628 108.057 44.4021ZM138.165 47.7242C138.25 47.7597 138.352 47.7553 138.391 47.7145C138.431 47.6736 138.361 47.6446 138.237 47.6499C138.099 47.6558 138.071 47.6849 138.165 47.7242ZM142.298 47.7242C142.383 47.7597 142.485 47.7553 142.524 47.7145C142.563 47.6736 142.494 47.6446 142.369 47.6499C142.232 47.6558 142.204 47.6849 142.298 47.7242ZM137.339 50.185C137.424 50.2206 137.526 50.2161 137.565 50.1753C137.604 50.1344 137.534 50.1054 137.41 50.1107C137.272 50.1166 137.244 50.1458 137.339 50.185ZM143.36 50.185C143.446 50.2206 143.547 50.2161 143.587 50.1753C143.626 50.1344 143.556 50.1054 143.432 50.1107C143.294 50.1166 143.266 50.1458 143.36 50.185Z" fill="#EB595A"/>
</svg>
