<svg id="Íconos" xmlns="http://www.w3.org/2000/svg" viewBox="0 0 1080 1080"><path d="M375.05,486.85c1.52-7.55,2.73-15.17,5.66-22.38,13.47-33.14,37.62-53.4,72.92-59.55,25.88-4.51,49.61,1.49,70.87,16.94a68,68,0,0,1,12.75,11.74c2,2.44,3.31,2.06,5.27-.08a89.87,89.87,0,0,1,45.18-27c24-6,47.17-3.29,68.79,8.77,24.08,13.43,39.46,33.87,46,60.75,4.59,18.95,2.72,37.45-4.52,55.48-7.53,18.76-19,35-32.27,50.05C641.46,608.91,613.1,631.4,583,651.79c-11.82,8-24.06,15.33-36.31,22.65-4.82,2.88-8.91,2.79-13.74,0-33.7-19.75-65.59-42-94.4-68.42-18.55-17-35.62-35.4-48.26-57.43-7.32-12.74-12.92-26.12-14.82-40.84a12.21,12.21,0,0,0-.41-1.55Zm17,7.94c.25,12.14,2.21,21.53,5.88,30.56,8.14,20,21.24,36.69,36.05,52.06,30.45,31.6,65.88,56.78,103.26,79.4a4.42,4.42,0,0,0,5.3,0c7.51-4.77,15.17-9.31,22.64-14.15,31-20.15,60.27-42.53,85.33-70,11.1-12.17,21-25.23,28.2-40.13C687.22,515,690,496.82,685,477.84c-9.57-36.24-44-60.22-80.56-56.62-22.73,2.24-41.23,12.25-54.53,30.75-6.51,9-13.42,9.18-20.13.07C511,426.52,485,417,454.27,422.43A75,75,0,0,0,392.07,494.79Z"/></svg>