<svg id="Íconos" xmlns="http://www.w3.org/2000/svg" viewBox="0 0 1080 1080"><path d="M540,705.4H383.62a26.1,26.1,0,0,1-4.15-.12c-2.71-.42-4.47-2-4.61-4.82a4.74,4.74,0,0,1,4.05-5.26,24.1,24.1,0,0,1,4.81-.4c15,0,30-.09,45.08.05,3.33,0,4.37-1.05,4.35-4.37-.12-21.85-.09-43.69,0-65.54,0-2.57-.25-3.71-3.45-3.89-14.57-.82-24.76-10.56-26.46-25-.28-2.38-1.75-2.6-3.43-3.11-10.67-3.23-17.37-10.26-19.73-21.16a25.36,25.36,0,0,1,2.31-17.51c1-1.92.88-3.14-.6-4.84-10.31-11.94-9.19-28.71,2.59-39.07a4.29,4.29,0,0,0,1.56-4.74c-2.33-12,1.57-21.61,11.48-28.69a5,5,0,0,0,2.34-4.57c0-14,6.4-23.15,19.59-27.8,2.07-.73,2.43-1.94,2.8-3.75,2.31-11.28,8.79-19.13,20-22.09,11-2.89,20.56.2,28.16,8.8a26,26,0,0,1,6.09,13,20.55,20.55,0,0,0,.48,2.36,2,2,0,0,0,2.17,1.38c1.49,0,1.14-1.24,1.09-2.07a33.68,33.68,0,0,1,3.42-17.8c4.15-8,10.45-13.65,19-16.12,3.75-1.08,4.76-3,5.31-6.37a32.39,32.39,0,0,1,25.75-26.72c17.6-3.63,35.45,8.34,38.35,26.06.66,4,2,5.93,6.11,7.25,13.31,4.32,21.71,16.65,21.86,30.61,0,1.69-1.5,4.61,1.06,5,3,.44,2.35-2.77,2.73-4.64,2.38-11.8,13.5-21.38,25.2-21.65,14.11-.32,25.5,7.71,28.29,20.61.86,4,2.49,5.86,6.29,7.28a26.14,26.14,0,0,1,16.7,24.87c-.06,3.38,1,5.31,3.72,7.39,8.69,6.68,12.22,15.72,10.28,26.59-.49,2.77-.07,4.51,2.14,6.51,11,10,11.93,26.63,2.09,38.07-1.65,1.91-1.75,3.23-.7,5.42a27.26,27.26,0,0,1-17.53,38.33c-2.37.66-3.26,1.62-3.54,4.17-1.41,13.26-12.56,23.3-26.69,24-2.48.12-3.13.75-3.12,3.12q.09,33.46,0,66.92c0,3,1.29,3.69,4,3.67,15.14-.07,30.28,0,45.42,0a24.2,24.2,0,0,1,4.82.4,4.74,4.74,0,0,1,4.06,5.24c-.14,2.77-1.89,4.41-4.6,4.84a26,26,0,0,1-4.15.12Zm22.09-297.21c.16-8.59-3.43-15.29-10.76-19.63a21.14,21.14,0,0,0-22.74.05c-7.43,4.44-10.93,11.29-10.67,20,.21,6.8-.48,7.52-7,8.36-14.43,1.86-23,14.24-19.55,28.21,1.3,5.25.57,6.72-4.4,8.8-12.2,5.09-17.41,18-12.11,30.12,2.45,5.59,2,6.92-3.4,9.92a22.14,22.14,0,0,0-2.18,37.62c5.57,4,5.83,5.85,1.56,11.08a22.29,22.29,0,0,0,11,35.53,25.63,25.63,0,0,0,6.52.68c5.31.15,7.16,2.12,6.77,7.28a37.86,37.86,0,0,0-.45,5.16c.67,9.79,6.77,17.54,15.78,20.27s18.19-.24,24.33-8.11c3.74-4.79,6.8-4.82,10.47-.12,6.53,8.39,16.89,11.27,26.28,7.55A22.3,22.3,0,0,0,585,587c-.91-5.69,1.14-8,7-8,9.42,0,16.29-4.35,20.14-12.73s2.67-16.67-3.34-24c-3.67-4.45-3.36-6.89,1.36-10.19,14.32-10,13.19-29.94-2.19-38.33-4.47-2.43-5.16-4.41-3.16-9,5.71-13.14.86-25.33-12.36-31-4.12-1.77-5.2-3.66-4-7.86,4.09-13.79-4.85-27-19-28.85C562.47,416.14,562,415.42,562.09,408.19ZM466.28,446.5c0-10.54-7.59-18.73-17.07-18.39-9.9.36-17.47,8.16-16.76,18.2.37,5.28-1,6.71-6.24,7.56-12.14,2-17.79,10.07-15.35,22,.89,4.38.08,5.95-4.1,7.87-10,4.61-13.52,13.73-9.15,23.79,1.74,4,1.26,6.4-2.77,8.28-11.25,5.22-13.39,22.31-1.54,29.95,4,2.57,4.32,5.51,1.3,9-4.91,5.68-5.84,12.06-3,18.72,2.93,6.87,8.8,9.77,16.07,10.09,5,.21,6.81,2.41,6.09,7.36a16.81,16.81,0,0,0,10,18.28c7.18,3.11,15.08,1,20.2-5.3,3.88-4.8,6.69-4.83,10.52-.14,5.18,6.36,12.51,8.42,19.84,5.59,7-2.71,10.31-8.41,10-16.74-.08-2.26-.86-3.24-3.06-3.75-22.21-5.22-32.4-27.79-21.73-48.14.93-1.77.74-2.74-.58-4.16-14-15-12.73-35.83,3-48.83,1.41-1.17,2.08-2.21,1.53-4.1-2.92-10.09-1-19.39,4.8-28,.55-.81,1.56-1.72.25-2.66C466.15,451.23,466.11,448.72,466.28,446.5ZM595.65,594a16.07,16.07,0,0,0,18.65,16.47A18.23,18.23,0,0,0,626,603.13c2.89-3.77,6.17-3.72,9.21-.15.38.44.7.92,1.07,1.37a17,17,0,0,0,29.94-13.26c-.78-5.16,1-7.24,6.27-7.51,7.13-.37,12.88-3.27,15.8-10,2.85-6.52,2-12.82-2.64-18.49-3.34-4.09-3-6.42,1.19-9.53,11.08-8.28,10.4-22.46-1.42-29.5-4.28-2.56-4.88-4.37-3-8.81,4.2-9.63.63-18.94-8.94-23.36-4.75-2.19-5.3-3.31-4.26-8.68,2.12-11-3.61-19.33-14.49-21.17-6.58-1.11-7.26-1.94-7.3-8.84,0-.7,0-1.39-.09-2.08-.76-9.38-10.18-16.5-19.44-14.7-8.8,1.71-14.28,8.4-14.29,17.4,0,2.16.69,4.67-1.26,6.21-2.12,1.67-1.27,2.85-.18,4.56,5.15,8.07,7,16.79,4.39,26.15-.71,2.51,0,3.91,2,5.52a32.44,32.44,0,0,1,3.25,47.4c-2,2.08-2.32,3.46-.9,6.13a32.41,32.41,0,0,1-20.43,46.61C596.89,589.37,594.72,590.45,595.65,594Zm19,63.8c0-11.09,0-22.18,0-33.27,0-2.33-.28-3.36-3.14-3.43a26.6,26.6,0,0,1-20.38-9.53c-1.19-1.38-1.85-1.63-3.16-.1-6.71,7.84-15.23,11.86-25.61,11.43-3-.13-3.72,1.08-3.71,3.82q.1,32.06,0,64.12c0,3,1,4,4,4q24.07-.15,48.17,0c2.8,0,3.86-.86,3.83-3.78C614.6,680,614.68,668.87,614.68,657.78Zm-149.36-.24c0,11.21.06,22.41-.05,33.62,0,2.69.86,3.68,3.58,3.66q24.43-.12,48.87,0c2.46,0,3.55-.81,3.54-3.4q-.07-32.58,0-65.16c0-2.55-.9-3.48-3.47-3.36-10.53.51-19.12-3.56-25.95-11.45-1.11-1.28-1.74-1.46-2.91-.07a26.81,26.81,0,0,1-20.64,9.73c-2.61.06-3,.9-3,3.17C465.36,635.36,465.32,646.45,465.32,657.54Zm66.55-.83c0,11.43.08,22.87,0,34.31,0,2.87.94,4,3.8,3.8,2.53-.17,5.08,0,7.63,0,4.85,0,4.86,0,4.87-4.73,0-22.18-.21-44.36.14-66.54.09-5.72-4.48-6.48-7.39-8.89-2-1.69-3.29,1.66-5.09,2.36-3.47,1.36-4,4-4,7.49C532,635.22,531.87,646,531.87,656.71ZM443.75,656v32.9c0,5.92,0,5.92,5.79,5.91,5.16,0,5.17,0,5.17-5.21V622.05a21.27,21.27,0,0,0-.07-2.77c-.29-2.2-4.72-5.7-6.17-4.76-2.56,1.66-5,3.18-4.83,7.18C444,633.12,443.75,644.55,443.75,656Zm181.52-.38q0,16.27,0,32.55c0,6.69,0,6.51,6.51,6.71,3.53.11,4.54-1.07,4.52-4.55-.14-22.86-.08-45.71-.08-68.57a17.7,17.7,0,0,0-.06-2.42c-.3-2.15-4.72-5.69-6.17-4.81-2.65,1.59-5,3.18-4.84,7.15C625.48,633,625.28,644.28,625.27,655.6Z"/></svg>