<svg id="Íconos" xmlns="http://www.w3.org/2000/svg" viewBox="0 0 1080 1080"><path d="M589.42,429.82c11.16,2.41,22.37,4.64,33.47,7.3,5.27,1.27,10.44,3.85,13.76-3,13,.92,26,.17,39,.44,3.09.06,6.3-.33,8.92,1.93,1.18,1.47.1,2.4-1,2.71-7.38,2.1-14.48,5.46-22.41,5.16A44.92,44.92,0,0,0,649.2,443q-29.36,0-58.71,0a57.23,57.23,0,0,0-13,1.38,14.24,14.24,0,0,1-7.21-.47c-8.28-2.09-16.69-3.64-25-5.7-9.92-2.46-19.67-2.35-29.25,1.52a11.29,11.29,0,0,1-3.55.83c-5.88-1-11.82-.62-17.73-.85-2.45-.09-5.51.39-6.06-3.36a38.49,38.49,0,0,1,9.34-7.66c3.44.8,6.94.48,10.41.49,21.47.05,42.93.14,64.4-.05C578.42,429.1,583.87,430.65,589.42,429.82Z"/><path d="M733,561c.05,2.74.08,5.47.17,8.2.14,4.51-1.83,7.46-6.27,8.62-2.33,1.17-4.82.38-7.19.4-24.72.24-49.44.51-74.16-.06-4.84-3.79-10.18-7.16-12-13.63,2-2.19,4.74-1.73,7.3-1.86,4.65-.23,9.38.62,13.9-1.11,3.91-.78,7.76,2.25,11.71.2,5.13,4.8,11.45,2.62,17.35,2.93,1.58.29,2.13,1.62,2.79,2.82a2.82,2.82,0,0,0,3.42,1.68c9.19-2.74,19.05-3.5,27.27-9.15C722.6,559.5,727.94,558.21,733,561Z"/><path d="M685,437.22c-5.27-1.81-10.73-1-16.1-1-8.92-.12-17.83,0-26.75,0-2.06,0-4.3.42-5.47-2,8.84-4.06,18.55-5.21,27.69-8.28,2.93-1,6-1.47,9-2.18,2.35,1.12,4.8.32,7.21.32,15.16,0,30.32,0,45.48,0,2.41,0,4.94-.28,6.93,1.63v17.84c-5.22,2.72-10.62,1.79-16,.8-2.85-2.19-1.92-5.37-2-8.22-.18-5.12-.08-5.11-4.83-3.81-6.39,1.74-12.75,3.6-19.19,5.17C689,437.92,686.9,438.81,685,437.22Z"/><path d="M595.65,637.64C592.23,650,573.9,662,557.22,652.58c-1.9-1.07-4.54-4-5.81.81-6.58,2-13.15,3.79-19.34-1.08,1.78-5,3.23-10.11,5-15.13,2.57-1.47,5.41-1,8.16-1,5-.08,10.08.28,15-1.23.69,0-.12-.34.5-.07a20.75,20.75,0,0,0,18.73-.63c3.37,1.22,6.88.81,10.35,1C592,635.26,594.39,635.14,595.65,637.64Z"/><path d="M412.93,589.45c-2.81-1.86-5.29-3.89-8.59-.16-1.9,2.15-5.23,1.44-8,.71q-21.12-5.65-42.2-11.41a8.13,8.13,0,0,1-5.39-3.81c2.26-2.28,5.18-1.7,7.9-1.72,16.54-.11,33.07,0,49.61,0a62.35,62.35,0,0,0,9.37-.53,3.54,3.54,0,0,1,3-.23c6.51,3.3,11.93,8.06,17.11,13.11a2.51,2.51,0,0,1,.24,3.34C428.44,592.53,420.7,591.55,412.93,589.45Z"/><path d="M410,424.59l33.56,9.67c.26,4.31-3.23,3.33-5.37,3.4-8.86.31-17.74.06-26.62.16-5,.05-10.09-.56-15,.71-8.56-.49-16.45-3.83-24.64-5.93-5.95-1.53-5.93-1.6-6.72,4.45-.2,1.55-.34,3.13-1.89,4.06-5.42,1-10.83,2-16.07-.77V426.7c2.33-2.14,5.24-1.63,8-1.63,16.74,0,33.49-.13,50.23,0C406.89,425.12,408.51,425.54,410,424.59Z"/><path d="M395.19,437.22c14.31-2.26,28.73-.5,43.08-1.12,1.84-.08,4.37,1.21,5.24-1.84,2.3.87,3.21,2.62,3.19,5,.65,3.13,2.74,3.1,5.16,2.35,10.3-1.19,20.6-2.32,30.89-3.6a41.37,41.37,0,0,0,6-1.62c1.25,2.32,3.47,1.84,5.5,1.87,6.17.09,12.38-.47,18.48,1-3,4.89-7.94,6.82-13.15,8.29-20.79-.71-41.59-.12-62.38-.31-3.14,0-6.29.09-9.42-.16-10.63-1-20.56-4.91-30.77-7.67A2.06,2.06,0,0,1,395.19,437.22Z"/><path d="M589.42,429.82c-1.53,1.75-3.58,1.05-5.4,1.05q-40.2.06-80.4,0c-2,0-4.78,1.35-5.55-2.13,15.53-10.17,32.36-12.73,50.31-8.57C562.07,423.31,575.74,426.59,589.42,429.82Z"/><path d="M643.91,576.8c24.4,0,48.81,0,73.21,0a93,93,0,0,1,9.8,1c-14.69,4.15-29.35,8.43-44.1,12.36-4.62,1.23-9.11,0-10.45-5.22-1.41-5.51-5.44-3.4-8.7-3.86-3.62-.5-3.72,2.13-4.32,4.53a21.42,21.42,0,0,1-1.69,3.73c-6.23,2.21-12.41,3.13-18.42-.68C639.23,584.13,641.74,580.53,643.91,576.8Z"/><path d="M639.76,587.22c.32,2.52,2.26,2.14,3.94,2.15,4.65,0,9.3,0,14,0-3.84,9.52-10.78,15.18-20.95,16.82a41.05,41.05,0,0,1-18.76,1,77.72,77.72,0,0,0-14.07-14.12c-1.07-.85-1.76-2.24-.37-3.59,3.37-2.38,7.25-1.52,11-1.68s7.19.18,10.77-.26A33,33,0,0,0,639.76,587.22Z"/><path d="M410,424.59c-1.92,2.36-4.6,2.11-7.22,2.11H347.15c-.06-2.79-.2-5.58-.15-8.37.11-6.07,4.52-10,10.28-8.5,15.31,4,30.52,8.45,45.76,12.73C405.35,423.21,407.65,423.91,410,424.59Z"/><path d="M733,425.65q-26.82,0-53.65,0c-2.17,0-4.64.65-6-2,16.35-4.61,32.68-9.28,49.06-13.77,5.76-1.58,10.49,2.07,10.7,7.94C733.24,420.43,733.06,423,733,425.65Z"/><path d="M532.73,651.28c.35,2.58,2.36,2.1,4,2.11,4.88,0,9.77,0,14.65,0-8.67,18.14-28.93,22.61-44.06,9.75-2.65-2.25-5.37-4.42-8.06-6.62,2-2.91,5.16-2.24,8-2.51,5.26-.5,10.67,1.14,15.81-1.08C526.25,652,529.35,650.86,532.73,651.28Z"/><path d="M417.29,572.7c-1.37,2.59-3.82,2-6,2q-31.25.09-62.5.11c-3.46-3.86-1.26-8.44-1.65-12.69,5-2.83,10.36-1.46,15.61-1.07,8.21,4,17.37,5,25.8,8.36a3.68,3.68,0,0,0,5.17-2.12c.5-1.1,1.09-2.22,2.52-2.39a31.75,31.75,0,0,0,16.42.07C414.77,567.19,416.85,569.45,417.29,572.7Z"/><path d="M595.65,637.64c-3.95-2-8.18-.63-12.26-1-1.75-.17-4,.74-4.5-2.15,1-4.44-1.08-9.32,2-13.47,6-1.46,12.07-.59,18.1-.69,7.1-.13,14.2-.16,21.3,0,2.52.06,5.34-.29,6.82,2.62-6.5,8.94-15.33,12.93-26.16,11.18C597.19,633.51,596.31,634.81,595.65,637.64Z"/><path d="M627.1,622.93a9.49,9.49,0,0,0-5-1q-21.15.08-42.29.08c-3.44-.15-5.46-2.6-7.56-4.8-1-1-1.63-2.37.15-3.43,4.76-1.31,9.61-.45,14.42-.66a24.62,24.62,0,0,0,6.63-.86c2.26-.73,4,.38,5.8,1.54,6.16,4,10.15,3.15,14.36-2.93,1.07-1.55,1.32-3.66,3.17-4.67l20,0a6.13,6.13,0,0,0-4.14,5.22A23.63,23.63,0,0,1,627.1,622.93Z"/><path d="M412.93,589.45c5.7,0,11.39-.08,17.09-.05,2.31,0,4.48-.2,6.16-2a2.64,2.64,0,0,1,2.95.21,228.4,228.4,0,0,1,18.24,13.95,2.93,2.93,0,0,1,.8,4.18c-7.69,3.59-15.49,2.53-23.32.58A198.59,198.59,0,0,1,412.93,589.45Z"/><path d="M434.85,606.29l18-.12c2.05,0,4.24.32,5.33-2.1,1.56-.62,2.73.3,3.84,1.08,5.3,3.73,10.25,7.91,15.37,11.85,1.37,1.06,2.69,2.35,2.15,4.44a2.33,2.33,0,0,1-1.52,1.32c-7.3.9-14.62,1.51-21.95.21A208.27,208.27,0,0,1,434.85,606.29Z"/><path d="M456.11,623c6.07-1.51,12.25-.92,18.4-1.09,1.7,0,4,.94,4.69-1.81,1.07-.83,2-.19,2.79.42,4.4,3.37,9,6.53,13.06,10.27,1.49,1.37,3.24,2.87,1.66,5.3-7.53,3.41-15.16,2.8-22.83.59A170.54,170.54,0,0,1,456.11,623Z"/><path d="M733,490.72v19.94c-5.59,2.7-11.23,2.23-16.89.23a33,33,0,0,1-.09-20.28C721.7,488.39,727.36,488.06,733,490.72Z"/><path d="M347.14,544.24q0-10,0-19.94c5.59-2.68,11.23-2.22,16.89-.22a33,33,0,0,1,.09,20.28C358.45,546.58,352.79,546.91,347.14,544.24Z"/><path d="M733,561H716.55c-3.15-6.6-2.31-13.31-.51-20,5.67-2.21,11.33-2.54,17,.12Q733,551.06,733,561Z"/><path d="M347.15,475V456.08c5.59-2.68,11.23-2.21,16.88-.22a30.23,30.23,0,0,1,.09,19.24C358.45,477.31,352.79,477.65,347.15,475Z"/><path d="M347.14,544.24h16.47a19.64,19.64,0,0,1,0,17.85H347.14Z"/><path d="M347.15,475H363.6c3.06,5.91,2.35,11.93.51,18-5.67,2.19-11.33,2.54-17-.13Z"/><path d="M473.88,636.65c5.83,0,11.66,0,17.49-.09a8.9,8.9,0,0,0,5.68-2c5.1-1,7.09,3.76,10.48,5.87,1.91,1.2,3.92,2.92,3.27,5.83a4.85,4.85,0,0,1-4.47,2.22c-5.89,0-11.81.7-17.68-.33A111.9,111.9,0,0,1,473.88,636.65Z"/><path d="M733,490.72H716.56c-3.12-5.56-2.24-11.23-.51-16.94,5.67-2.15,11.33-2.52,17,.15Z"/><path d="M363.6,456.08H347.15V440.34H363.6A15.75,15.75,0,0,1,363.6,456.08Z"/><path d="M716.56,443.49H733v15.74c-5.6,2.7-11.23,2.23-16.9.23C714.17,454.08,713.58,448.73,716.56,443.49Z"/><path d="M716.55,510.66H733V526.4c-5.59,2.7-11.23,2.23-16.89.23C714.16,521.25,713.59,515.9,716.55,510.66Z"/><path d="M347.15,492.82H363.6c3,5.21,2.34,10.54.5,15.9-5.67,2.14-11.33,2.52-17-.16Z"/><path d="M347.15,508.56H363.6a15.8,15.8,0,0,1,0,15.74H347.14Q347.16,516.42,347.15,508.56Z"/><path d="M716.55,526.4H733q0,7.35,0,14.7H716.55A14,14,0,0,1,716.55,526.4Z"/><path d="M716.56,459.23H733v14.7H716.56A14,14,0,0,1,716.56,459.23Z"/><path d="M488.65,648.16c5.23-2.12,10.7-.6,16-1,2.18-.18,4.66.6,6-2,5.93.24,9,4.76,12.59,8.45,1,3.31-1.67,1.84-2.73,1.92-7.08.52-14.25-.93-21.26,1.07C495.62,653.9,491.8,651.45,488.65,648.16Z"/><path d="M451.86,441.59c-2.59,1.14-5.1,2.07-5.16-2.35C447.64,441.73,449.8,441.56,451.86,441.59Z"/><path d="M661.85,443.57c-1.27.47-2.53,1-3.83,1.4-6.52,2-6.67,2.23-4.6,9-1.77,1.82-4.1,1.61-6.29,1.58-6.33-.07-12.68.5-19-.5-13.76-2.13-27.14-6.07-40.76-8.87-3.56-.74-7-1.81-10.58-2.72a24.82,24.82,0,0,1,10.55-2.1q32.52,0,65.06,0C655.74,441.39,659,441.67,661.85,443.57Z"/><path d="M633.28,565.36a235.26,235.26,0,0,1-21.89-16.89c1.31-2.73,3.89-2.5,6.24-2.56,5.31-.12,10.64.1,15.92-.75,7.64,5.22,14.9,10.93,22,16.82-1.19,2.72-3.65,2-5.84,2.23C644.25,564.68,638.62,563,633.28,565.36Z"/><path d="M679.81,550.34c2.18,4.71,3.11,9.77,4.11,14.81-4.78,2.35-9.81.89-14.72.88-2.19,0-1.72-2.77-3-3.87L663,550.59C668.62,549.58,674.22,550.1,679.81,550.34Z"/><path d="M542.1,620.06c6.49,4.94,13.14,9.67,19.12,15.25-2.43,2.39-5.51,2.35-8.6,2.36-5.32,0-10.63.05-16,.08L519,623c1.87-2.72,4.79-2.46,7.53-2.57C531.72,620.23,536.92,620.65,542.1,620.06Z"/><path d="M425.61,458.16c.59-2.8,1.05-5.64,1.83-8.38.47-1.68.32-3-1-4.07q34.56-.06,69.12-.07a31.48,31.48,0,0,1,5.61,1l-10.7,14.68c-4.67,2.73-9.68,1.62-14.59,1.18-1.75-.16-3.3-1.14-3-3.41,1.65-4.28-1.6-3-3.43-2.86-9,.93-17.9,2-26.85,3C436.75,461.23,431,462.73,425.61,458.16Z"/><path d="M606.17,572.78c7.23,4.41,13.56,10,20.1,15.32-1.76,2.17-4.2,1.11-6.34,1.25-5.69.37-11.47-.78-17.06,1.14A168.21,168.21,0,0,1,584,575.85c1.26-2.77,3.85-2.56,6.22-2.66C595.51,573,600.86,573.36,606.17,572.78Z"/><path d="M396.25,565.15a18.61,18.61,0,0,1,2.05-7.4c5.59-.36,11.18-.8,16.76.18q-1,3.66-2.05,7.34C409.2,568.3,399.75,568.24,396.25,565.15Z"/><path d="M584.14,604.15a54,54,0,0,1,10.54,8.26c-1.07,2.43-3.23,2.15-5.3,2.16l-18.06.1a38.7,38.7,0,0,1-9.44-7.3c1.25-2.78,3.85-2.58,6.22-2.7C573.44,604.41,578.81,605,584.14,604.15Z"/><path d="M463.33,513.06c-4-1.3-7.27-4-10.47-6.54-3.46-2.76-4.22-6.5-2.07-10.58,6.32-2.54,12.64-2.1,18.95,0,0,3.14,2.71,3.34,4.66,4.06,11.15,4.07,21.84,2.79,32-3.14,4.8,1,9.67.55,14.52.76,2.33.1,5-.39,6.32,2.46a39.45,39.45,0,0,1-15.59,12.62C495.57,512.25,479.44,511.54,463.33,513.06Z"/><path d="M527.28,500.11c-4.88-2.05-10-.56-15-1-2.2-.18-4.67.5-5.86-2.25,5.68-3.78,9.24-9.58,13.73-14.5a277.13,277.13,0,0,0,32.48.18,151.11,151.11,0,0,1,19.91,15.64c-.07,2.93-2.34,3.29-4.39,3.34-5.89.15-11.81.72-17.69-.28-3.45-2.55-7.14-4.83-10.26-7.73-3.8-3.53-6.32-2.74-8.82,1.31A55.7,55.7,0,0,1,527.28,500.11Z"/><path d="M591.39,532.92a255.35,255.35,0,0,1-23.21-18c1.84-2.31,4.52-2.51,7.12-2.6,5.39-.2,10.79-.38,16.15.55,8.06,4.64,14.86,10.93,22.07,16.7-.58,3-3.26,2.71-5.25,3C602.68,533.62,597,533.35,591.39,532.92Z"/><path d="M591.39,532.92c1.78-2.16,4.22-1.15,6.37-1.22,5.33-.17,10.74.39,15.76-2.11a218.2,218.2,0,0,1,20,15.57c-1.17,2.71-3.6,2.08-5.79,2.26-5.45.43-11-1.15-16.37,1.05A197.87,197.87,0,0,1,591.39,532.92Z"/><path d="M591.45,512.89c-2.66,1.86-5.66.77-8.49.87-5,.17-9.92-.18-14.78,1.18a152,152,0,0,1-17.7-13.67c5.39-2.26,11-.62,16.56-1.08,2-.17,4.3.43,5.52-2A105.73,105.73,0,0,1,591.45,512.89Z"/><path d="M472.83,459.09c.92,2.14,2.75,2.28,4.74,2.26,4.3-.05,8.59,0,12.89,0L479,480.21c-5.27,1.32-10.55.56-15.82,0a1.77,1.77,0,0,1-1.8-2.05A166.54,166.54,0,0,1,472.83,459.09Z"/><path d="M461.4,478.17c2.44,2,5.3.78,8,1,3.24.22,6.54-.22,9.66,1.08A100.08,100.08,0,0,1,469.74,496l-18.95,0Z"/><path d="M552.65,482.57c-.43,2.22-2.18,1.84-3.69,1.84-8.14,0-16.28,0-24.42,0-1.81,0-3.48-.15-4.37-2.05,2.24-3.08,4.39-6.23,6.75-9.21,3.27-4.15,8.16-4.77,12.42-1.47C543.87,475.21,548.22,478.94,552.65,482.57Z"/><path d="M628.15,455.07c8.38-1.44,16.83-1,25.27-1.08,2.23,3.51,1.64,7.8,3.16,11.51,1.36,3-.31,4.31-2.9,4.48-4.24.28-8.53,1-12.75-.28-.28-.44-.81-.86-.83-1.31C639.74,460.68,636.29,455.78,628.15,455.07Z"/><path d="M668.26,508.28c2.74,5.75,3.25,12.12,5.06,18.13a19.44,19.44,0,0,1-16.74,0,79.81,79.81,0,0,1-4.11-14.7c1.79-1.81,4.13-1.47,6.29-1.46C662.1,510.27,665.12,509.06,668.26,508.28Z"/><path d="M640.93,469.7c3.76-1.93,7.78-.78,11.68-1,2.3-.11,4.21-.22,4-3.23a72.48,72.48,0,0,1,4.25,15.63c1,2.45-.73,3.28-2.44,3.48-4.58.52-9.25,1.41-13.6-1.15C642.84,479.06,641.92,474.37,640.93,469.7Z"/><path d="M668.26,508.28c-1.28,3.69-4.74,2.93-7.41,3.34s-5.58.09-8.38.09L648.36,497c5.6-2.69,11.22-2.34,16.85-.08A37.17,37.17,0,0,1,668.26,508.28Z"/><path d="M665.21,496.94l-16.85.08a69.11,69.11,0,0,1-3.57-13.56c4,0,8,0,12.06-.09,1.73,0,3.65.29,4-2.24C663.4,486.09,663.48,491.74,665.21,496.94Z"/><path d="M656.58,526.41h16.74c2.27,3.87,1.82,8.48,3.39,12.55a19.34,19.34,0,0,1-16.82,0A59.59,59.59,0,0,1,656.58,526.41Z"/><path d="M659.89,539l16.81,0c2.38,3.43,1.48,7.75,3.11,11.38-5.56,2.23-11.16,1.65-16.77.25Z"/><path d="M584.14,604.15c-.57,2.92-2.92,1.83-4.65,2-5.85.59-11.87-1.21-17.61,1.21-7.39-4.68-14-10.38-20.78-15.88,1.88-2.74,4.8-2.44,7.55-2.57,5.18-.24,10.37.32,15.54-.33Z"/><path d="M542.1,620.06c-1.28,2.33-3.51,1.76-5.54,1.86-5.86.29-11.8-.84-17.55,1.07-6.92-4.94-13.85-9.86-20.09-15.67,1.68-2.19,4.16-2.49,6.59-2.58,5.56-.22,11.14-.48,16.67.51,6.5,3.17,11.16,8.71,16.83,13A35.63,35.63,0,0,0,542.1,620.06Z"/><path d="M566.2,562.14c-2.67-1.94-5.47-3.72-8-5.86A8.55,8.55,0,0,1,556.84,545a7.86,7.86,0,0,1,11.07-2c7.09,5,14.23,10,20.43,16.11,1,3-1.55,3.21-3.15,3.28C578.87,562.62,572.51,563.38,566.2,562.14Z"/><path d="M566.2,562.14c5.73-1.94,11.67-.75,17.5-1.12,1.72-.11,4,.91,4.64-1.94,6.81,3.44,11.75,9.31,17.83,13.7-.68,2.83-3,1.71-4.7,1.89-5.82.59-11.8-1.18-17.5,1.18A148.28,148.28,0,0,1,566.2,562.14Z"/><path d="M564.19,588.59c-.73,2.76-3,1.7-4.7,1.81-6.12.4-12.35-.85-18.39,1.09-5-3.66-10.19-7-14.41-11.57,1.65-2.63,4.36-2.41,6.9-2.51,4.95-.21,9.93.25,14.87-.49,4.25,1.8,7.26,5.22,10.66,8.13C560.68,586.37,562,588.18,564.19,588.59Z"/><path d="M463.33,513.06c1.59-2.36,4-2.41,6.5-2.4,11.49,0,23,.08,34.47-.05a15.08,15.08,0,0,1,7.39,2.12C495.63,521.25,479.51,521.55,463.33,513.06Z"/><path d="M522.18,605.25c-2.66,1.86-5.66.77-8.48.87-5,.17-9.93-.19-14.77,1.2-4.19-3-5.36-7.7-2.87-11.62a8.43,8.43,0,0,1,11.57-2.26C512.68,597.1,517.92,600.6,522.18,605.25Z"/><path d="M415.21,496a66.46,66.46,0,0,1,4.09-14.83c5.59-.38,11.18-.8,16.76.16q-2.13,7.83-4.25,15.67C426.22,497.6,420.6,498.68,415.21,496Z"/><path d="M425.61,458.16c5.52,2.24,11.31.53,16.94,1.1l-4.44,14.66c-5.6.81-11.2,1.57-16.58-1A76.7,76.7,0,0,1,425.61,458.16Z"/><path d="M401.42,546.3a69.51,69.51,0,0,1,4.31-15.75c2.89,1.87,6.15,1.7,9.4,1.78,2.33,0,4.91-.27,6.25,2.44q-1.59,5.81-3.17,11.61C413.87,550.1,405.56,550.06,401.42,546.3Z"/><path d="M408.89,519a35.26,35.26,0,0,1,2.89-10.56c5.63-2.25,11.25-2.6,16.86.09-1.12,4.61-2,9.29-3.94,13.67-4.31,2.62-8.93,1.79-13.44.95C409.34,522.82,407.86,521.45,408.89,519Z"/><path d="M428.64,508.56l-16.86-.09a46.77,46.77,0,0,1,3.43-12.5c5.52.5,11.17-1.09,16.6,1Q430.22,502.76,428.64,508.56Z"/><path d="M548.46,576.92c-.62,2.87-3,1.82-4.68,1.94-5.69.41-11.49-.85-17.1,1.06-2.36-3.88-2.23-7.74,1-10.87,3.54-3.41,7.63-2.82,11.31,0C542.28,571.49,545.32,574.27,548.46,576.92Z"/><path d="M408.89,519c.22,2.78,2.09,3.22,4.39,3.19,3.81,0,7.61,0,11.42,0-.1,4.45-2.65,8.25-3.32,12.54-3.76-1.93-7.79-.78-11.69-1-2.32-.11-4.19-.27-4-3.26A42,42,0,0,1,408.89,519Z"/><path d="M401.42,546.3a28.6,28.6,0,0,0,16.79.08l-3.15,11.55c-5.6,1.44-11.2,1.91-16.76-.18C398.33,553.66,400.14,550.05,401.42,546.3Z"/><path d="M421.53,472.88c5.53.31,11.15-.83,16.58,1q-1,3.69-2.05,7.38c-5.6,1.47-11.19,1.91-16.76-.16A21.09,21.09,0,0,1,421.53,472.88Z"/></svg>