<svg id="Íconos" xmlns="http://www.w3.org/2000/svg" viewBox="0 0 1080 1080"><path d="M548.43,374.73c2.85.43,5.7.89,8.55,1.29a124,124,0,0,1,103.69,94.57c5.46,22.91,3.65,45.41-3.42,67.69-7,22.06-17.46,42.49-29.54,62.1-22.36,36.31-49.09,69.22-78.6,99.93-6.35,6.61-11.81,6.62-18.14,0-33.56-35.09-63.81-72.71-87.51-115.26-11.85-21.28-21.54-43.47-25.68-67.74A116.42,116.42,0,0,1,420.9,465a124.27,124.27,0,0,1,108.91-89.77,10.44,10.44,0,0,0,1.84-.49ZM540,680.49c.87-1.26,1.17-1.84,1.6-2.32,24.65-26.94,47.58-55.23,67-86.21,12.88-20.54,24-42,30.58-65.45,4.59-16.25,5.49-32.67,1.81-49.11-6.7-29.86-23.26-52.84-49.78-68.23-22.59-13.11-47-16.87-72.49-11.47-26.08,5.52-47.19,19.29-62.63,41.11-17.12,24.19-23.08,51-17,80.17,4.52,21.79,14,41.66,25,60.82a473.52,473.52,0,0,0,45.48,64.89C519.35,656.54,529.47,668.11,540,680.49Z"/><path d="M540.12,436.7A62.15,62.15,0,0,1,602,498.81c-.13,34.13-28.17,62-62.2,61.79a62,62,0,0,1,.33-123.9Zm0,20.65a41.3,41.3,0,1,0,41.26,41.25A41.42,41.42,0,0,0,540.07,457.35Z"/></svg>