<svg width="48" height="48" viewBox="0 0 48 48" fill="none" xmlns="http://www.w3.org/2000/svg">
<rect x="1" y="1" width="46" height="46" rx="23" fill="black"/>
<path d="M33.0571 19.1808C33.0664 19.392 33.0664 19.5936 33.0664 19.8048C33.0756 26.208 28.3712 33.6 19.7679 33.6C17.2305 33.6 14.7393 32.8416 12.6001 31.4208C12.9705 31.4688 13.341 31.488 13.7114 31.488C15.8136 31.488 17.8602 30.7584 19.5179 29.4048C17.5176 29.3664 15.758 28.0128 15.1468 26.0352C15.8506 26.1792 16.573 26.1504 17.2583 25.9488C15.082 25.5072 13.5169 23.52 13.5077 21.2064C13.5077 21.1872 13.5077 21.168 13.5077 21.1488C14.1559 21.5232 14.8875 21.7344 15.6284 21.7536C13.5817 20.3328 12.9427 17.5008 14.1837 15.2831C16.5637 18.3168 20.0643 20.1504 23.8241 20.352C23.4445 18.672 23.9631 16.9055 25.1762 15.7151C27.0561 13.8815 30.0196 13.9775 31.7977 15.9263C32.8441 15.7151 33.8535 15.3119 34.7704 14.7455C34.4185 15.8687 33.6869 16.8191 32.7145 17.4239C33.6406 17.3087 34.5481 17.0495 35.4001 16.6655C34.7704 17.6448 33.9739 18.4896 33.0571 19.1808Z" fill="white"/>
<rect x="1" y="1" width="46" height="46" rx="23" stroke="#6C707A" stroke-width="2"/>
</svg>
