<svg width="29" height="40" viewBox="0 0 29 40" fill="none" xmlns="http://www.w3.org/2000/svg">
<path d="M2.60145 18.5556C2.68007 18.3099 2.75294 18.0641 2.83924 17.8203C3.5277 15.8524 4.48656 14.0419 5.97087 12.5463C6.14767 12.3696 6.33533 12.2042 6.53276 12.051C7.78119 11.0757 8.8647 11.2177 9.81396 12.4734C10.1307 12.9332 10.4739 13.3743 10.8419 13.7943C11.538 14.5219 12.0443 14.4393 12.5851 13.585C12.778 13.2739 12.9927 12.9768 13.2275 12.6961C14.4433 11.2734 15.383 11.1352 16.9402 12.1777C17.0207 12.0011 17.107 11.8398 17.1665 11.6689C18.4283 8.05179 20.5282 4.95881 23.1459 2.2095C24.1048 1.20346 25.2094 0.349102 26.6323 0.0515157C27.4435 -0.119357 28.1435 0.12831 28.4522 0.892436C28.7456 1.60008 28.9249 2.34985 28.9834 3.11378C29.0268 4.05603 28.9819 5.00028 28.8492 5.93413C28.5654 8.20347 27.0983 9.69524 25.3647 10.9605C24.2294 11.7879 22.9925 12.481 21.8821 13.3354C21.0556 13.9709 20.3595 14.7772 20.4477 15.9561C20.5148 16.8508 21.092 17.2559 21.9493 17.0197C23.1248 16.6952 23.9897 15.887 24.8814 15.1228C25.0833 14.9247 25.311 14.7548 25.5584 14.6179C25.4069 15.0556 25.2688 15.4991 25.102 15.9311C24.3963 17.7685 23.4432 19.4484 21.9953 20.8135C21.3874 21.3894 20.7238 21.8157 19.8129 21.7984C19.7285 22.6067 19.6557 23.4053 19.556 24.2002C19.0842 27.9651 17.5654 31.3039 15.337 34.3277C14.202 35.8097 12.9646 37.2102 11.6339 38.5189C11.0873 39.0737 10.3126 39.4577 9.57809 39.7649C8.22035 40.3409 7.2193 39.8456 6.91055 38.421C6.43879 36.2188 6.45989 34.0052 7.4686 31.9298C8.0094 30.8162 8.91456 29.9887 9.85424 29.2112C11.8813 27.5389 13.6341 25.642 14.8115 23.2594C15.4721 21.9716 15.8673 20.5639 15.9737 19.1201C15.9669 18.6257 15.8119 18.1448 15.5288 17.7397C15.1759 17.1963 14.4452 17.1637 13.9121 17.6878C13.3521 18.239 12.8736 18.8674 12.4911 19.554C11.9695 20.514 11.5859 21.5507 11.1487 22.5548C9.99807 25.1697 7.97679 26.9303 5.44541 28.1226C4.63194 28.533 3.71009 28.6767 2.81048 28.5334C1.67519 28.3414 1.0155 27.7482 0.915775 26.6135C0.752769 24.78 1.08837 23.0329 2.20256 21.5161C3.19594 20.1722 4.62655 19.6173 6.22976 19.4407C6.34505 19.4472 6.46069 19.442 6.57495 19.4254C6.99876 19.291 7.66421 19.7133 7.84064 19.0836C8.07844 18.2369 8.20692 17.3154 7.58558 16.5436C7.24039 16.1116 6.73412 16.1596 6.24318 16.3151C5.0005 16.7125 4.03973 17.5573 3.04252 18.3444C2.92746 18.4366 2.80856 18.5249 2.69158 18.6152L2.60145 18.5556ZM12.2188 30.7317C10.6482 30.7836 9.05647 31.9163 8.63649 33.2276C8.49097 33.6828 8.44263 34.1636 8.49458 34.6388C8.57513 35.3414 8.97401 35.4835 9.45344 34.9632C10.2406 34.0996 10.9782 33.1919 11.6626 32.2446C11.9369 31.8434 12.0136 31.3019 12.2169 30.7317H12.2188ZM7.69106 20.6349L7.47052 20.4813C6.34291 20.7059 5.34378 21.1782 4.59395 22.1075C4.33878 22.4093 4.14905 22.7609 4.03681 23.14C3.92456 23.5191 3.89225 23.9174 3.94193 24.3096C3.97261 24.5496 4.11261 24.8856 4.29287 24.9643C4.47314 25.043 4.82216 24.8741 4.97366 24.7032C5.69645 23.9123 6.37691 23.0837 7.01219 22.2208C7.34395 21.7619 7.47244 21.1667 7.68914 20.6349H7.69106ZM23.144 9.28822C24.0057 9.23321 24.8318 8.92389 25.5181 8.3993C26.5403 7.65437 27.0887 6.67137 26.9008 5.37159C26.872 5.16424 26.755 4.8417 26.6189 4.80906C26.5018 4.79219 26.3823 4.80227 26.2697 4.83853C26.1571 4.8748 26.0541 4.93628 25.9688 5.01833C25.2179 5.83916 24.5093 6.69784 23.8459 7.59102C23.5256 8.03452 23.4067 8.63353 23.1421 9.28822H23.144Z" fill="#EB595A"/>
</svg>
