<svg width="19" height="29" viewBox="0 0 19 29" fill="none" xmlns="http://www.w3.org/2000/svg">
<path d="M17.1889 21.4574C16.8629 22.2676 16.5676 23.0932 16.2051 23.8861C15.5655 25.3594 14.6225 26.6809 13.4378 27.7643C12.0456 28.9969 10.8834 28.8587 9.79419 27.3535C9.50735 26.9203 9.18331 26.513 8.82574 26.1362C8.21974 25.5468 7.69813 25.6332 7.16884 26.2975C6.76351 26.8585 6.31121 27.3839 5.81685 27.868C4.50897 29.02 3.34492 28.8472 2.43208 27.3381C1.39334 25.6221 0.678313 23.7297 0.322598 21.755C-0.722556 16.0145 0.838463 10.8902 4.04105 6.17299C5.29907 4.31836 6.6453 2.51556 8.48055 1.18122C9.16153 0.716516 9.90549 0.351869 10.6898 0.098386C11.5105 -0.187681 12.2489 0.165583 12.594 0.956587C12.8299 1.49416 13.0505 2.09702 13.0485 2.66915C13.0694 4.03341 12.9803 5.39714 12.782 6.74705C12.5212 8.2945 11.4856 9.43492 10.3196 10.4237C8.60329 11.8713 6.97898 13.3957 5.75356 15.3022C4.65279 17.0167 3.93365 18.8694 3.77065 20.9026C3.77268 21.3611 3.90577 21.8095 4.15419 22.1947C4.21715 22.3166 4.306 22.4233 4.41452 22.5072C4.52303 22.5912 4.64858 22.6503 4.78235 22.6805C4.91612 22.7107 5.05487 22.7112 5.18886 22.682C5.32285 22.6528 5.44883 22.5946 5.55796 22.5115C6.02538 22.2098 6.42452 21.8134 6.72968 21.348C7.28838 20.4053 7.77311 19.4207 8.17947 18.4028C9.23786 15.5887 11.3447 13.295 14.0573 12.0038C14.959 11.5574 15.9668 11.3706 16.9684 11.4643C17.449 11.4875 17.9041 11.6874 18.2467 12.0257C18.5892 12.364 18.795 12.817 18.8247 13.2978C19.0337 15.3809 18.6464 17.3411 17.1697 18.9385C16.0037 20.198 14.4466 20.5397 12.8184 20.6261C11.9037 20.676 11.8864 20.6472 11.8155 21.5592C11.7745 21.9773 11.7835 22.3988 11.8423 22.8148C11.9593 23.5386 12.5365 23.9667 13.2269 23.7229C14.0132 23.4274 14.7669 23.0517 15.4764 22.6017C16.0517 22.258 16.5388 21.7953 17.0662 21.3845L17.1889 21.4574ZM12.0571 19.5567C13.3669 19.3167 14.3373 18.8502 15.0775 17.9805C15.3605 17.6621 15.5713 17.2862 15.6954 16.8786C15.8195 16.4709 15.8541 16.0412 15.7966 15.619C15.7084 14.9259 15.3441 14.7704 14.8378 15.2254C13.8789 16.0913 13.0102 17.0531 12.4617 18.2473C12.2988 18.6746 12.1636 19.112 12.0571 19.5567ZM7.56964 9.26789C9.13257 9.20261 10.7435 8.04107 11.1328 6.72977C11.2623 6.27123 11.2969 5.79103 11.2344 5.31863C11.1558 4.69466 10.7991 4.58138 10.3235 5.0076C9.30133 5.9234 8.40576 6.94288 7.86113 8.23114C7.74423 8.57085 7.64691 8.91701 7.56964 9.26789Z" fill="#EB595A"/>
</svg>
