<?xml version="1.0" encoding="utf-8"?>
<!-- Generator: Adobe Illustrator 25.3.0, SVG Export Plug-In . SVG Version: 6.00 Build 0)  -->
<svg version="1.1" id="Capa_1" xmlns="http://www.w3.org/2000/svg" xmlns:xlink="http://www.w3.org/1999/xlink" x="0px" y="0px"
	 viewBox="0 0 1080 1080" style="enable-background:new 0 0 1080 1080;" xml:space="preserve">
<style type="text/css">
	.st0{display:none;}
	.st1{display:inline;}
	.st2{fill:#EB595A;}
	.st3{display:inline;fill:#EB595A;}
	.st4{fill-rule:evenodd;clip-rule:evenodd;fill:#EB595A;}
</style>
<g class="st0">
	<g class="st1">
		<path class="st2" d="M683.57,377.77c11.54-16.92,15.84-34.89,18.52-54.03c4.32-30.86,15.37-59.43,37.04-82.81
			c15.64-16.88,35.41-27.7,56.12-36.88c22.94-10.18,46.9-17.28,71.48-22.26c10.94-2.22,18.86,4.78,16.74,15.25
			c-7.07,34.9-18.17,68.35-36.06,99.39c-21.98,38.15-56.94,56.46-98.29,65.23c-6.04,1.28-12.19,2.78-18.31,2.86
			c-8.78,0.12-13.83,3.82-17.57,11.77c-7.34,15.62-12.26,31.82-14.95,48.81c-1.01,6.36,0.82,9.14,7.74,8.74
			c8.39-0.49,16.84-0.26,25.26-0.05c8.36,0.21,12.6,4.61,12.98,13.01c0.08,1.73,0.04,3.47,0.04,5.2c0,142.69,0,285.37,0,428.06
			c0,15.6-2.95,18.52-18.72,18.52c-28.49,0.01-56.98,0.03-85.46-0.01c-11.77-0.02-15.76-3.91-15.77-15.49
			c-0.02-144.67-0.02-289.33,0-434c0-11.25,4.03-15.24,15.16-15.34c7.43-0.07,14.86,0,22.29-0.02c8.95-0.03,9.4-0.72,8.1-9.27
			c-3.67-24.12-12.48-46.3-25.28-66.93c-4.17-6.73-8.99-13.05-13.33-19.68c-3.3-5.05-7.85-7.05-13.76-7.2
			c-11.46-0.28-22.59-2.76-33.48-6.21c-24.86-7.88-43.27-23.31-54.95-46.81c-10.81-21.74-17.32-44.74-20.73-68.65
			c-1.69-11.82,4.59-17.84,16.51-16.14c21.43,3.06,42.01,9.1,61.94,17.65c34.19,14.68,51.79,41.54,57.69,77.21
			c0.84,5.11,1.31,10.3,1.66,15.48c0.57,8.51,2.66,15.99,8.22,23.12C666.45,341.75,676.02,358.84,683.57,377.77z M649.17,666.17
			c0,66.4,0.08,132.8-0.12,199.2c-0.02,6.41,1.67,8.69,8.34,8.54c18.08-0.41,36.17-0.29,54.26-0.05c5.48,0.07,7.96-1.12,7.96-7.37
			c-0.16-133.54-0.16-267.09,0-400.63c0.01-6.25-2.49-7.44-7.96-7.37c-17.59,0.24-35.18,0.08-52.77,0.09
			c-9.67,0.01-9.69,0.02-9.69,9.88C649.16,534.36,649.16,600.26,649.17,666.17z M741.15,337.29c4.29-0.86,6.44-1.2,8.55-1.73
			c26.2-6.58,50.2-16.97,67.14-39.34c17.97-23.72,27.73-51.16,35.75-79.37c1.55-5.46-1.43-5.21-5.22-4.13
			c-21.47,6.11-42.28,13.77-61.98,24.46c-27,14.65-43.87,37.1-52.49,66.18c-0.56,1.87-2.21,3.86-0.36,6.47
			c1.98-1.71,3.81-3.3,5.65-4.88c10.72-9.23,22.04-17.66,34.64-24.15c6.9-3.55,14.09-1.41,17.49,4.55
			c3.44,6.01,1.47,12.96-4.98,17.36c-1.43,0.97-2.99,1.74-4.47,2.65C766.88,313.86,753.98,323.72,741.15,337.29z M615.92,282.23
			c-3.94-16.26-10.42-30.81-24.57-40.19c-15.23-10.1-32.38-15.69-49.97-20.09c-3.68-0.92-5.04-0.36-4,3.78
			c4.67,18.55,10.34,36.68,21.79,52.36c9.15,12.54,22.63,18.23,37.63,23.9c-2.01-4.73-5.06-6.53-7.65-8.66
			c-6.67-5.51-13.68-10.61-20.15-16.34c-5.11-4.52-5.57-10.35-2.04-16.12c3.36-5.48,10.29-7.13,16.36-3.99
			c2.84,1.46,5.51,3.34,8.01,5.34C599.59,268.8,607.73,275.54,615.92,282.23z"/>
		<path class="st2" d="M481.62,724.81c0-51.75-0.01-103.5,0.01-155.25c0-13.29,3.53-16.88,16.59-16.89
			c29.22-0.03,58.43-0.04,87.65,0.01c11.72,0.02,15.7,3.93,15.7,15.54c0.03,104.98,0.03,209.97,0,314.95
			c0,11.49-4.06,15.39-15.84,15.41c-29.46,0.04-58.93,0.04-88.39,0c-11.73-0.02-15.68-3.92-15.69-15.55
			C481.6,830.29,481.63,777.55,481.62,724.81z M506.45,724.88c0,46.83,0.11,93.65-0.13,140.48c-0.03,6.41,1.67,8.69,8.34,8.54
			c18.08-0.41,36.17-0.29,54.26-0.05c5.47,0.07,7.97-1.11,7.96-7.37c-0.18-93.9-0.18-187.8,0-281.7c0.01-6.25-2.48-7.45-7.96-7.37
			c-17.84,0.24-35.69,0.42-53.51-0.07c-7.31-0.2-9.15,2.27-9.1,9.3C506.59,632.72,506.45,678.8,506.45,724.88z"/>
		<path class="st2" d="M458.88,785.45c0,32.18,0.02,64.36-0.01,96.54c-0.01,12.79-3.68,16.57-16.16,16.59
			c-29.46,0.04-58.92,0.04-88.37-0.01c-11.3-0.02-15.4-4-15.41-15.08c-0.04-65.6-0.04-131.2,0-196.8
			c0.01-11.1,4.09-15.07,15.39-15.09c29.71-0.05,59.41-0.05,89.12,0c11.51,0.02,15.41,4.03,15.42,15.81
			C458.91,720.1,458.88,752.77,458.88,785.45z M434.05,785.68c0-27.25-0.15-54.51,0.12-81.76c0.06-5.95-1.94-7.7-7.73-7.61
			c-18.33,0.29-36.67,0.28-55,0.01c-5.68-0.09-7.83,1.48-7.81,7.53c0.2,54.26,0.18,108.52,0.02,162.78
			c-0.02,5.57,1.89,7.3,7.34,7.23c18.08-0.25,36.18-0.35,54.25,0.04c6.67,0.14,9.07-1.61,8.96-8.68
			C433.81,838.71,434.05,812.19,434.05,785.68z"/>
		<path class="st2" d="M316.17,832.66c0,16.83,0.05,33.65-0.02,50.48c-0.04,11.29-4.01,15.41-15.06,15.43
			c-29.94,0.06-59.89,0.06-89.83,0c-11.04-0.02-15.03-4.13-15.04-15.43c-0.05-33.65-0.05-67.31,0-100.96
			c0.02-11.53,4.01-15.41,15.79-15.43c29.45-0.04,58.9-0.04,88.34,0c12.03,0.02,15.78,3.87,15.81,16.17
			C316.2,799.5,316.17,816.08,316.17,832.66z M221.03,832.11c0,11.64,0.12,23.29-0.06,34.93c-0.07,4.53,1.12,6.84,6.22,6.79
			c19.32-0.19,38.65-0.15,57.97-0.02c4.38,0.03,6.24-1.47,6.21-6.03c-0.13-23.29-0.15-46.58,0.02-69.87
			c0.03-4.91-1.88-6.46-6.61-6.42c-19.08,0.17-38.16,0.21-57.23-0.02c-5.48-0.07-6.7,2.33-6.61,7.18
			C221.19,809.8,221.03,820.96,221.03,832.11z"/>
	</g>
</g>
<g class="st0">
	<path class="st3" d="M930.18,643.4c-4.55,8.18-11.48,11.27-20.81,11.17c-29.18-0.3-58.37-0.09-87.55-0.12
		c-14.42-0.01-18.77-3.24-23.11-16.96c-2.92-9.22-2.92-9.22-10.73-3.96c-1.47,0.99-2.85,2.17-4.43,2.96
		c-8.53,4.24-11.73,10.42-11.63,20.5c0.24,25.18-22.08,47.44-49.11,50.57c-3.66,0.42-6.55,0.82-8.76,4.57
		c-12.65,21.49-32.2,30.89-56.55,30.56c-6.59-0.09-10.34,1.84-14.27,7.24c-15.39,21.11-35.84,30.75-62.24,24.87
		c-2.03-0.45-3.92-0.68-5.86,0.47c-23.49,13.91-47.22,9.78-71.07,1c-18.18-6.7-33.08-18.64-48.26-30.09
		c-43.16-32.54-86.03-65.45-126.96-100.81c-14.81-12.8-27.26-27.98-41.2-41.66c-0.9-0.88-1.83-1.71-2.79-2.6
		c-3.35,1.39-3.08,4.63-3.88,7.05c-3,9.12-9.31,13.9-18.69,13.95c-31.21,0.17-62.43,0.31-93.64-0.07
		c-12.75-0.16-18.8-7.08-18.8-19.85c-0.03-95.68-0.03-191.35,0-287.03c0-13.67,5.99-20.15,19.4-19.41
		c47.65,2.64,95.05,7.26,141.02,21.2c7.05,2.14,13.83,4.98,20.4,8.34c11.4,5.83,17.51,14.5,14.78,27.71
		c-1.16,5.6,0.95,7.04,6.27,7.02c38.83-0.15,77.66-0.14,116.49-0.02c4.71,0.01,8.17-2.09,11.71-4.66
		c17.26-12.49,35.72-22.04,57.31-24.79c23.49-2.99,45.38,2.79,66.66,11.56c30.02,12.37,59.66,25.65,90.01,37.22
		c5.21,1.99,9.07,4.2,9.28-4.78c0.2-8.47,7.33-12.08,14.42-14.94c23.87-9.61,48.67-16.02,73.86-20.78
		c38.95-7.37,78.3-10.82,117.95-11.19c9.35-0.09,16.26,2.95,20.79,11.15C930.18,440.32,930.18,541.86,930.18,643.4z M545.94,749.72
		c-2.72-2.57-3.62-3.43-4.52-4.29c-21.41-20.58-41.94-42.03-61.97-63.94c-7.27-7.95-6.45-17.93,0.86-24.42
		c6.94-6.17,16.51-5.68,24.02,1.4c2.95,2.78,5.59,5.88,8.4,8.82c22.27,23.29,44.29,46.86,68.52,68.16
		c12.06,10.6,25.85,7.95,34.72-5.61c2.46-3.75,2.02-6.14-1.25-9.06c-22.95-20.47-43.39-43.42-64.79-65.43
		c-2.47-2.54-4.92-5.17-6.94-8.07c-5.12-7.35-4.23-16.19,1.96-22.17c6.29-6.07,14.87-6.59,22.15-0.93c2.98,2.31,5.46,5.28,8.07,8.03
		c22.52,23.75,44.94,47.63,69.35,69.48c10.49,9.39,23.7,9.05,34.4,0.12c6.7-5.59,6.75-7.66,0.59-13.86
		c-26.48-26.64-52.95-53.28-79.36-79.98c-3.2-3.24-6.39-6.6-8.95-10.34c-4.58-6.67-3.48-15.19,2.16-20.93
		c5.6-5.7,13.21-6.93,20.16-2.75c2.99,1.8,5.6,4.34,8.08,6.85c24.95,25.28,49.81,50.66,74.78,75.93c4.63,4.69,9.62,9.02,14.46,13.5
		c4.03,3.73,8.54,3.84,13.44,1.94c12.75-4.96,17.35-17,10.75-29.1c-6.65-12.19-16.38-21.91-26.22-31.47
		c-48.15-46.75-103.33-85.23-153.1-130.08c-3.04-2.74-5.94-1.89-9.14-0.6c-6.58,2.65-13.05,5.8-19.87,7.57
		c-6.42,1.67-11.19,4.61-15.63,9.65c-24.68,28.07-57.8,37.14-90.7,25.03c-16.96-6.24-27.19-18.12-28.55-36.69
		c-1.43-19.61,5.96-36.75,15.18-53.32c7.63-13.72,17.12-26.15,28-38.12c-1.43-0.45-2.1-0.85-2.77-0.85
		c-29.18-0.04-58.37,0.02-87.55-0.1c-4.43-0.02-6.11,1.81-6.98,6.05c-10.89,52.96-25.38,104.98-40.9,156.73
		c-1.27,4.23-0.61,6.99,2.44,10.13c30.92,31.89,62.2,63.3,97.59,90.47c33.21,25.49,65.8,51.8,99.86,76.16
		C510.66,743.62,526.07,750.15,545.94,749.72z M426.02,481.57c-0.75,5.26,2.39,8.66,8.44,10.33c16.95,4.69,32.1,1.82,45.28-10.17
		c5.1-4.64,9.28-10.07,13.33-15.59c2.63-3.59,5.79-6.89,10.23-7.39c16.23-1.83,30.26-9.89,45.2-15.35
		c7.87-2.87,14.82-1.91,21.03,4.08c24.14,23.28,50.65,43.77,76.46,65.09c37.13,30.67,75.8,59.65,107.07,96.78
		c2.74,3.26,5.13,3.3,8.41,0.99c6.23-4.37,12.52-8.67,18.98-12.69c3.42-2.13,4.18-4.54,2.92-8.24
		c-18.02-53.07-36.9-105.82-57.64-157.9c-1.33-3.34-3.63-5.22-6.96-6.42c-43.66-15.77-86.5-33.59-129.16-51.87
		c-15.46-6.62-31.65-10.66-48.86-8.36c-10.25,1.37-19.97,4.37-28.49,9.97c-31.07,20.42-58.31,44.79-76.81,77.66
		C430.57,461.14,426.4,470.14,426.02,481.57z M896.52,490.89c0-39.59,0.01-79.18-0.01-118.78c0-10.02-0.63-10.6-10.2-9.79
		c-16.92,1.42-33.89,2.41-50.74,4.42c-28.98,3.47-57.6,8.9-85.52,17.73c-4.52,1.43-6.25,2.65-4.01,7.83
		c30.98,71.82,56.36,145.71,80.64,219.99c1.88,5.74,4.26,8.17,10.57,8c16.49-0.44,33-0.52,49.48,0.01c7.7,0.25,10.02-2.16,9.95-9.89
		C896.33,570.58,896.52,530.73,896.52,490.89z M184.02,459.19c0,40.07,0.12,80.14-0.12,120.2c-0.04,6.54,1.84,8.94,8.64,8.78
		c17.23-0.41,34.49-0.28,51.73-0.05c5.03,0.07,7.84-1.23,9.31-6.48c4.4-15.61,9.47-31.02,14.01-46.59
		c16.32-55.96,32.05-112.06,41.67-169.68c2.09-12.52,2.09-12.93-10.01-16.37c-34.52-9.81-69.98-14.05-105.57-17.33
		c-9.34-0.86-9.64-0.23-9.65,9.58C184.01,380.57,184.02,419.88,184.02,459.19z"/>
</g>
<g>
	<path class="st4" d="M486.45,698.98c11.36,11.41,21.34,24.3,24.29,41.38c0.19,1.12-0.57,3-1.5,3.62
		c-24.31,16.29-50.44,26.15-80.32,21.56c-22.17-3.41-40.75-14.32-56.81-29.38c-19.81-18.58-35.99-39.95-45.85-65.53
		c-9.64-25.01-9.36-50.81-3.66-76.41c4.33-19.44,10.51-38.47,16.02-57.64c0.73-2.55,0.87-4.41-1.72-5.65
		c-2.42-1.16-3.88-0.09-5.08,2.08c-14.95,27.12-25.92,55.52-27.66,86.82c-2.12,38.14,9.41,72.03,32.32,102.25
		c4.77,6.29,10.05,12.2,15.37,18.61c-24.1-15.86-46.14-33.45-63.15-56.47c-27.9-37.75-34.75-78.79-16.22-122.48
		c20.27-47.77,55.05-82.05,101.49-104.69c4.11-2,8.64-3.12,13.11-4.69c-0.52,12.66-1.28,24.64-1.45,36.63
		c-0.54,39.93,9.38,76.91,30.12,111.27c8.98,14.86,16.4,30.77,23.26,46.75c6.34,14.76,7.52,30.4,0.87,45.65
		c-5.45,12.52-14.41,22.4-24.87,31c-0.24,0.19-0.54,0.31-0.73,0.54c-1.88,2.29-6.84,3.29-5.13,6.9c1.22,2.58,4.91,4.63,7.93,5.62
		c20.51,6.76,37.66,0.06,51.9-14.71C475.44,715.31,480.36,707.12,486.45,698.98z"/>
	<path class="st4" d="M780.4,611.84c-1.18,2.24-2.33,4.62-3.64,6.89c-21.08,36.51-42.57,72.79-63.14,109.58
		c-13.25,23.71-33.16,34.79-59.67,35.15c-16.13,0.22-32.27,0.04-49.58,0.04c0,12.16,0,22.62,0,33.08c-0.69,0.17-1.37,0.33-2.05,0.49
		c-4.96-8.32-9.93-16.63-14.86-24.97c-14.34-24.27-28.77-48.5-42.84-72.93c-1.47-2.55-2.2-7.13-0.9-9.43
		c20.07-35.51,40.52-70.79,60.91-106.12c0.23-0.39,0.82-0.57,1.67-1.14c0,12.43,0.31,24.57-0.14,36.68
		c-0.21,5.54,1.39,7.39,6.97,8.31c54.32,8.97,107.45,5.02,159.3-13.91c2.3-0.84,4.6-1.71,6.91-2.51
		C779.48,611.01,779.77,611.36,780.4,611.84z"/>
	<path class="st4" d="M698.33,359.01c9.32-5.08,18.4-10.03,28.92-15.75c-1.35,3.17-1.96,5.07-2.92,6.78
		c-17.59,31.25-35.13,62.53-53.03,93.61c-1.56,2.7-5.54,5.67-8.42,5.69c-40.3,0.38-80.61,0.28-120.92,0.27
		c-0.52,0-1.05-0.28-3.42-0.95c13.28-7.52,25.42-14.4,38.52-21.81c-20.31-56.62-52.68-104.58-101.68-143.79c14.58,0,27.01,0,39.43,0
		c31.81,0,63.62,0.41,95.42-0.13c25.7-0.44,45.78,8.75,59.56,30.84C679.05,328.64,688.46,343.39,698.33,359.01z"/>
	<path class="st4" d="M354.11,378.21c17.63-25.56,34.29-50.32,51.61-74.61c12.4-17.4,36.13-23.15,55.76-10.93
		c15.55,9.68,28.72,23.34,42.37,35.86c5.98,5.49,13.86,12.1,14.79,19.02c0.91,6.76-5.75,14.66-9.4,21.89
		c-13.41,26.57-26.96,53.07-40.86,80.38C430.09,425.83,392.39,402.2,354.11,378.21z"/>
	<path class="st4" d="M641.39,520.5c39.6-21,78.93-41.85,118.77-62.98c13.56,28.8,27.53,56.68,39.86,85.26
		c8.05,18.66-1.78,42.95-22.46,52.42c-17.93,8.22-37.82,12.03-56.57,18.61c-13.47,4.73-20.65,0.09-27.72-11.83
		c-15.35-25.88-32.5-50.69-48.88-75.96C643.37,524.44,642.58,522.71,641.39,520.5z"/>
</g>
</svg>
