<?xml version="1.0" encoding="utf-8"?>
<!-- Generator: Adobe Illustrator 25.3.0, SVG Export Plug-In . SVG Version: 6.00 Build 0)  -->
<svg version="1.1" id="Capa_1" xmlns="http://www.w3.org/2000/svg" xmlns:xlink="http://www.w3.org/1999/xlink" x="0px" y="0px"
	 viewBox="0 0 1080 1080" style="enable-background:new 0 0 1080 1080;" xml:space="preserve">
<style type="text/css">
	.st0{fill:#EB595A;}
</style>
<g>
	<g>
		<path class="st0" d="M683.57,377.77c11.54-16.92,15.84-34.89,18.52-54.03c4.32-30.86,15.37-59.43,37.04-82.81
			c15.64-16.88,35.41-27.7,56.12-36.88c22.94-10.18,46.9-17.28,71.48-22.26c10.94-2.22,18.86,4.78,16.74,15.25
			c-7.07,34.9-18.17,68.35-36.06,99.39c-21.98,38.15-56.94,56.46-98.29,65.23c-6.04,1.28-12.19,2.78-18.31,2.86
			c-8.78,0.12-13.83,3.82-17.57,11.77c-7.34,15.62-12.26,31.82-14.95,48.81c-1.01,6.36,0.82,9.14,7.74,8.74
			c8.39-0.49,16.84-0.26,25.26-0.05c8.36,0.21,12.6,4.61,12.98,13.01c0.08,1.73,0.04,3.47,0.04,5.2c0,142.69,0,285.37,0,428.06
			c0,15.6-2.95,18.52-18.72,18.52c-28.49,0.01-56.98,0.03-85.46-0.01c-11.77-0.02-15.76-3.91-15.77-15.49
			c-0.02-144.67-0.02-289.33,0-434c0-11.25,4.03-15.24,15.16-15.34c7.43-0.07,14.86,0,22.29-0.02c8.95-0.03,9.4-0.72,8.1-9.27
			c-3.67-24.12-12.48-46.3-25.28-66.93c-4.17-6.73-8.99-13.05-13.33-19.68c-3.3-5.05-7.85-7.05-13.76-7.2
			c-11.46-0.28-22.59-2.76-33.48-6.21c-24.86-7.88-43.27-23.31-54.95-46.81c-10.81-21.74-17.32-44.74-20.73-68.65
			c-1.69-11.82,4.59-17.84,16.51-16.14c21.43,3.06,42.01,9.1,61.94,17.65c34.19,14.68,51.79,41.54,57.69,77.21
			c0.84,5.11,1.31,10.3,1.66,15.48c0.57,8.51,2.66,15.99,8.22,23.12C666.45,341.75,676.02,358.84,683.57,377.77z M649.17,666.17
			c0,66.4,0.08,132.8-0.12,199.2c-0.02,6.41,1.67,8.69,8.34,8.54c18.08-0.41,36.17-0.29,54.26-0.05c5.48,0.07,7.96-1.12,7.96-7.37
			c-0.16-133.54-0.16-267.09,0-400.63c0.01-6.25-2.49-7.44-7.96-7.37c-17.59,0.24-35.18,0.08-52.77,0.09
			c-9.67,0.01-9.69,0.02-9.69,9.88C649.16,534.36,649.16,600.26,649.17,666.17z M741.15,337.29c4.29-0.86,6.44-1.2,8.55-1.73
			c26.2-6.58,50.2-16.97,67.14-39.34c17.97-23.72,27.73-51.16,35.75-79.37c1.55-5.46-1.43-5.21-5.22-4.13
			c-21.47,6.11-42.28,13.77-61.98,24.46c-27,14.65-43.87,37.1-52.49,66.18c-0.56,1.87-2.21,3.86-0.36,6.47
			c1.98-1.71,3.81-3.3,5.65-4.88c10.72-9.23,22.04-17.66,34.64-24.15c6.9-3.55,14.09-1.41,17.49,4.55
			c3.44,6.01,1.47,12.96-4.98,17.36c-1.43,0.97-2.99,1.74-4.47,2.65C766.88,313.86,753.98,323.72,741.15,337.29z M615.92,282.23
			c-3.94-16.26-10.42-30.81-24.57-40.19c-15.23-10.1-32.38-15.69-49.97-20.09c-3.68-0.92-5.04-0.36-4,3.78
			c4.67,18.55,10.34,36.68,21.79,52.36c9.15,12.54,22.63,18.23,37.63,23.9c-2.01-4.73-5.06-6.53-7.65-8.66
			c-6.67-5.51-13.68-10.61-20.15-16.34c-5.11-4.52-5.57-10.35-2.04-16.12c3.36-5.48,10.29-7.13,16.36-3.99
			c2.84,1.46,5.51,3.34,8.01,5.34C599.59,268.8,607.73,275.54,615.92,282.23z"/>
		<path class="st0" d="M481.62,724.81c0-51.75-0.01-103.5,0.01-155.25c0-13.29,3.53-16.88,16.59-16.89
			c29.22-0.03,58.43-0.04,87.65,0.01c11.72,0.02,15.7,3.93,15.7,15.54c0.03,104.98,0.03,209.97,0,314.95
			c0,11.49-4.06,15.39-15.84,15.41c-29.46,0.04-58.93,0.04-88.39,0c-11.73-0.02-15.68-3.92-15.69-15.55
			C481.6,830.29,481.63,777.55,481.62,724.81z M506.45,724.88c0,46.83,0.11,93.65-0.13,140.48c-0.03,6.41,1.67,8.69,8.34,8.54
			c18.08-0.41,36.17-0.29,54.26-0.05c5.47,0.07,7.97-1.11,7.96-7.37c-0.18-93.9-0.18-187.8,0-281.7c0.01-6.25-2.48-7.45-7.96-7.37
			c-17.84,0.24-35.69,0.42-53.51-0.07c-7.31-0.2-9.15,2.27-9.1,9.3C506.59,632.72,506.45,678.8,506.45,724.88z"/>
		<path class="st0" d="M458.88,785.45c0,32.18,0.02,64.36-0.01,96.54c-0.01,12.79-3.68,16.57-16.16,16.59
			c-29.46,0.04-58.92,0.04-88.37-0.01c-11.3-0.02-15.4-4-15.41-15.08c-0.04-65.6-0.04-131.2,0-196.8
			c0.01-11.1,4.09-15.07,15.39-15.09c29.71-0.05,59.41-0.05,89.12,0c11.51,0.02,15.41,4.03,15.42,15.81
			C458.91,720.1,458.88,752.77,458.88,785.45z M434.05,785.68c0-27.25-0.15-54.51,0.12-81.76c0.06-5.95-1.94-7.7-7.73-7.61
			c-18.33,0.29-36.67,0.28-55,0.01c-5.68-0.09-7.83,1.48-7.81,7.53c0.2,54.26,0.18,108.52,0.02,162.78
			c-0.02,5.57,1.89,7.3,7.34,7.23c18.08-0.25,36.18-0.35,54.25,0.04c6.67,0.14,9.07-1.61,8.96-8.68
			C433.81,838.71,434.05,812.19,434.05,785.68z"/>
		<path class="st0" d="M316.17,832.66c0,16.83,0.05,33.65-0.02,50.48c-0.04,11.29-4.01,15.41-15.06,15.43
			c-29.94,0.06-59.89,0.06-89.83,0c-11.04-0.02-15.03-4.13-15.04-15.43c-0.05-33.65-0.05-67.31,0-100.96
			c0.02-11.53,4.01-15.41,15.79-15.43c29.45-0.04,58.9-0.04,88.34,0c12.03,0.02,15.78,3.87,15.81,16.17
			C316.2,799.5,316.17,816.08,316.17,832.66z M221.03,832.11c0,11.64,0.12,23.29-0.06,34.93c-0.07,4.53,1.12,6.84,6.22,6.79
			c19.32-0.19,38.65-0.15,57.97-0.02c4.38,0.03,6.24-1.47,6.21-6.03c-0.13-23.29-0.15-46.58,0.02-69.87
			c0.03-4.91-1.88-6.46-6.61-6.42c-19.08,0.17-38.16,0.21-57.23-0.02c-5.48-0.07-6.7,2.33-6.61,7.18
			C221.19,809.8,221.03,820.96,221.03,832.11z"/>
	</g>
</g>
</svg>
