<?xml version="1.0" standalone="no"?>
<!DOCTYPE svg PUBLIC "-//W3C//DTD SVG 20010904//EN"
 "http://www.w3.org/TR/2001/REC-SVG-20010904/DTD/svg10.dtd">
<svg version="1.0" xmlns="http://www.w3.org/2000/svg"
 width="301.000000pt" height="131.000000pt" viewBox="0 0 301.000000 131.000000"
 preserveAspectRatio="xMidYMid meet">

<g transform="translate(0.000000,131.000000) scale(0.100000,-0.100000)"
fill="#000000" stroke="none">
<path d="M1250 1237 c-22 -11 -150 -180 -150 -198 0 -4 57 -43 127 -87 l128
-80 57 111 c32 61 58 116 58 122 0 17 -114 123 -145 135 -34 13 -45 12 -75 -3z"/>
<path d="M1459 1174 c73 -78 161 -230 147 -253 -4 -6 -24 -20 -44 -31 l-37
-19 142 -1 c109 0 145 3 156 14 15 15 127 209 127 221 0 3 -10 -1 -22 -9 -12
-9 -26 -16 -30 -16 -4 0 -27 31 -52 69 -64 99 -70 101 -281 101 l-177 0 71
-76z"/>
<path d="M1903 777 c-73 -39 -133 -75 -133 -79 0 -14 129 -205 142 -210 7 -3
51 7 97 22 138 45 149 79 74 238 l-48 100 -132 -71z"/>
<path d="M1608 436 c-38 -65 -68 -127 -68 -136 0 -10 28 -66 63 -125 60 -103
62 -105 65 -72 l3 35 89 4 c70 2 94 7 117 24 23 17 117 164 188 295 l14 26
-65 -18 c-91 -25 -170 -33 -258 -24 l-75 7 -3 51 -3 52 -67 -119z"/>
</g>
</svg>
