<svg id="Layer_1" data-name="Layer 1" xmlns="http://www.w3.org/2000/svg" viewBox="0 0 453.46 466.67"><defs><style>.cls-1{fill-rule:evenodd;}</style></defs><path class="cls-1" d="M202,324.57c6.19,6.22,11.64,13.26,13.25,22.57a2.45,2.45,0,0,1-.82,2c-13.26,8.88-27.51,14.26-43.81,11.76-12.09-1.86-22.23-7.81-31-16-10.81-10.13-19.63-21.79-25-35.74-5.26-13.64-5.11-27.71-2-41.68,2.36-10.6,5.73-21,8.73-31.43.4-1.39.48-2.4-.94-3.08s-2.11,0-2.77,1.14c-8.15,14.79-14.13,30.27-15.08,47.35-1.16,20.8,5.13,39.28,17.63,55.76,2.6,3.44,5.48,6.66,8.38,10.16-13.15-8.65-25.17-18.25-34.44-30.8-15.22-20.59-19-43-8.85-66.8,11.06-26,30-44.75,55.36-57.1a67.57,67.57,0,0,1,7.14-2.56c-.28,6.9-.7,13.44-.79,20a112.14,112.14,0,0,0,16.43,60.69,205.94,205.94,0,0,1,12.69,25.5c3.46,8,4.1,16.58.48,24.9-3,6.83-7.86,12.22-13.56,16.91a2,2,0,0,0-.4.29c-1,1.25-3.73,1.79-2.8,3.76.67,1.41,2.68,2.53,4.33,3.07,11.18,3.69,20.54,0,28.3-8C196,333.48,198.7,329,202,324.57Z"/><path class="cls-1" d="M362.34,277c-.64,1.23-1.26,2.52-2,3.76-11.5,19.91-23.22,39.7-34.44,59.77-7.23,12.93-18.08,19-32.54,19.17-8.8.11-17.6,0-27,0v18l-1.12.27c-2.7-4.54-5.42-9.07-8.11-13.62-7.82-13.24-15.69-26.45-23.36-39.77-.8-1.39-1.2-3.89-.49-5.15,10.94-19.36,22.1-38.61,33.22-57.87.12-.22.44-.32.91-.63,0,6.78.17,13.41-.08,20-.11,3,.76,4,3.8,4.53,29.63,4.89,58.61,2.74,86.89-7.58,1.25-.46,2.5-.93,3.76-1.37C361.84,276.59,362,276.78,362.34,277Z"/><path class="cls-1" d="M317.58,139.15l15.77-8.59a40,40,0,0,1-1.59,3.7c-9.59,17-19.16,34.11-28.92,51.05-.85,1.48-3,3.1-4.59,3.11-22,.21-44,.15-65.95.15a15.66,15.66,0,0,1-1.87-.52l21-11.9c-11.08-30.88-28.73-57-55.45-78.42h21.5c17.35,0,34.7.22,52-.07,14-.24,25,4.77,32.48,16.82C307.06,122.58,312.2,130.63,317.58,139.15Z"/><path class="cls-1" d="M129.84,149.62c9.62-13.94,18.71-27.44,28.15-40.69a22.38,22.38,0,0,1,30.41-6c8.49,5.28,15.67,12.73,23.11,19.55,3.26,3,7.56,6.6,8.07,10.38s-3.14,8-5.13,11.94c-7.32,14.49-14.7,28.94-22.28,43.84Z"/><path class="cls-1" d="M286.52,227.22l64.78-34.35c7.4,15.71,15,30.92,21.74,46.5,4.39,10.18-1,23.43-12.25,28.59-9.78,4.49-20.63,6.57-30.85,10.15-7.35,2.58-11.26.05-15.12-6.45-8.37-14.12-17.73-27.65-26.66-41.43C287.6,229.37,287.18,228.43,286.52,227.22Z"/></svg>