<?xml version="1.0" encoding="utf-8"?>
<!-- Generator: Adobe Illustrator 25.3.0, SVG Export Plug-In . SVG Version: 6.00 Build 0)  -->
<svg version="1.1" id="Capa_1" xmlns="http://www.w3.org/2000/svg" xmlns:xlink="http://www.w3.org/1999/xlink" x="0px" y="0px"
	 viewBox="0 0 1080 1080" style="enable-background:new 0 0 1080 1080;" xml:space="preserve">
<style type="text/css">
	.st0{display:none;}
	.st1{display:inline;}
	.st2{fill:#EB595A;}
</style>
<g class="st0">
	<g class="st1">
		<path class="st2" d="M683.57,377.77c11.54-16.92,15.84-34.89,18.52-54.03c4.32-30.86,15.37-59.43,37.04-82.81
			c15.64-16.88,35.41-27.7,56.12-36.88c22.94-10.18,46.9-17.28,71.48-22.26c10.94-2.22,18.86,4.78,16.74,15.25
			c-7.07,34.9-18.17,68.35-36.06,99.39c-21.98,38.15-56.94,56.46-98.29,65.23c-6.04,1.28-12.19,2.78-18.31,2.86
			c-8.78,0.12-13.83,3.82-17.57,11.77c-7.34,15.62-12.26,31.82-14.95,48.81c-1.01,6.36,0.82,9.14,7.74,8.74
			c8.39-0.49,16.84-0.26,25.26-0.05c8.36,0.21,12.6,4.61,12.98,13.01c0.08,1.73,0.04,3.47,0.04,5.2c0,142.69,0,285.37,0,428.06
			c0,15.6-2.95,18.52-18.72,18.52c-28.49,0.01-56.98,0.03-85.46-0.01c-11.77-0.02-15.76-3.91-15.77-15.49
			c-0.02-144.67-0.02-289.33,0-434c0-11.25,4.03-15.24,15.16-15.34c7.43-0.07,14.86,0,22.29-0.02c8.95-0.03,9.4-0.72,8.1-9.27
			c-3.67-24.12-12.48-46.3-25.28-66.93c-4.17-6.73-8.99-13.05-13.33-19.68c-3.3-5.05-7.85-7.05-13.76-7.2
			c-11.46-0.28-22.59-2.76-33.48-6.21c-24.86-7.88-43.27-23.31-54.95-46.81c-10.81-21.74-17.32-44.74-20.73-68.65
			c-1.69-11.82,4.59-17.84,16.51-16.14c21.43,3.06,42.01,9.1,61.94,17.65c34.19,14.68,51.79,41.54,57.69,77.21
			c0.84,5.11,1.31,10.3,1.66,15.48c0.57,8.51,2.66,15.99,8.22,23.12C666.45,341.75,676.02,358.84,683.57,377.77z M649.17,666.17
			c0,66.4,0.08,132.8-0.12,199.2c-0.02,6.41,1.67,8.69,8.34,8.54c18.08-0.41,36.17-0.29,54.26-0.05c5.48,0.07,7.96-1.12,7.96-7.37
			c-0.16-133.54-0.16-267.09,0-400.63c0.01-6.25-2.49-7.44-7.96-7.37c-17.59,0.24-35.18,0.08-52.77,0.09
			c-9.67,0.01-9.69,0.02-9.69,9.88C649.16,534.36,649.16,600.26,649.17,666.17z M741.15,337.29c4.29-0.86,6.44-1.2,8.55-1.73
			c26.2-6.58,50.2-16.97,67.14-39.34c17.97-23.72,27.73-51.16,35.75-79.37c1.55-5.46-1.43-5.21-5.22-4.13
			c-21.47,6.11-42.28,13.77-61.98,24.46c-27,14.65-43.87,37.1-52.49,66.18c-0.56,1.87-2.21,3.86-0.36,6.47
			c1.98-1.71,3.81-3.3,5.65-4.88c10.72-9.23,22.04-17.66,34.64-24.15c6.9-3.55,14.09-1.41,17.49,4.55
			c3.44,6.01,1.47,12.96-4.98,17.36c-1.43,0.97-2.99,1.74-4.47,2.65C766.88,313.86,753.98,323.72,741.15,337.29z M615.92,282.23
			c-3.94-16.26-10.42-30.81-24.57-40.19c-15.23-10.1-32.38-15.69-49.97-20.09c-3.68-0.92-5.04-0.36-4,3.78
			c4.67,18.55,10.34,36.68,21.79,52.36c9.15,12.54,22.63,18.23,37.63,23.9c-2.01-4.73-5.06-6.53-7.65-8.66
			c-6.67-5.51-13.68-10.61-20.15-16.34c-5.11-4.52-5.57-10.35-2.04-16.12c3.36-5.48,10.29-7.13,16.36-3.99
			c2.84,1.46,5.51,3.34,8.01,5.34C599.59,268.8,607.73,275.54,615.92,282.23z"/>
		<path class="st2" d="M481.62,724.81c0-51.75-0.01-103.5,0.01-155.25c0-13.29,3.53-16.88,16.59-16.89
			c29.22-0.03,58.43-0.04,87.65,0.01c11.72,0.02,15.7,3.93,15.7,15.54c0.03,104.98,0.03,209.97,0,314.95
			c0,11.49-4.06,15.39-15.84,15.41c-29.46,0.04-58.93,0.04-88.39,0c-11.73-0.02-15.68-3.92-15.69-15.55
			C481.6,830.29,481.63,777.55,481.62,724.81z M506.45,724.88c0,46.83,0.11,93.65-0.13,140.48c-0.03,6.41,1.67,8.69,8.34,8.54
			c18.08-0.41,36.17-0.29,54.26-0.05c5.47,0.07,7.97-1.11,7.96-7.37c-0.18-93.9-0.18-187.8,0-281.7c0.01-6.25-2.48-7.45-7.96-7.37
			c-17.84,0.24-35.69,0.42-53.51-0.07c-7.31-0.2-9.15,2.27-9.1,9.3C506.59,632.72,506.45,678.8,506.45,724.88z"/>
		<path class="st2" d="M458.88,785.45c0,32.18,0.02,64.36-0.01,96.54c-0.01,12.79-3.68,16.57-16.16,16.59
			c-29.46,0.04-58.92,0.04-88.37-0.01c-11.3-0.02-15.4-4-15.41-15.08c-0.04-65.6-0.04-131.2,0-196.8
			c0.01-11.1,4.09-15.07,15.39-15.09c29.71-0.05,59.41-0.05,89.12,0c11.51,0.02,15.41,4.03,15.42,15.81
			C458.91,720.1,458.88,752.77,458.88,785.45z M434.05,785.68c0-27.25-0.15-54.51,0.12-81.76c0.06-5.95-1.94-7.7-7.73-7.61
			c-18.33,0.29-36.67,0.28-55,0.01c-5.68-0.09-7.83,1.48-7.81,7.53c0.2,54.26,0.18,108.52,0.02,162.78
			c-0.02,5.57,1.89,7.3,7.34,7.23c18.08-0.25,36.18-0.35,54.25,0.04c6.67,0.14,9.07-1.61,8.96-8.68
			C433.81,838.71,434.05,812.19,434.05,785.68z"/>
		<path class="st2" d="M316.17,832.66c0,16.83,0.05,33.65-0.02,50.48c-0.04,11.29-4.01,15.41-15.06,15.43
			c-29.94,0.06-59.89,0.06-89.83,0c-11.04-0.02-15.03-4.13-15.04-15.43c-0.05-33.65-0.05-67.31,0-100.96
			c0.02-11.53,4.01-15.41,15.79-15.43c29.45-0.04,58.9-0.04,88.34,0c12.03,0.02,15.78,3.87,15.81,16.17
			C316.2,799.5,316.17,816.08,316.17,832.66z M221.03,832.11c0,11.64,0.12,23.29-0.06,34.93c-0.07,4.53,1.12,6.84,6.22,6.79
			c19.32-0.19,38.65-0.15,57.97-0.02c4.38,0.03,6.24-1.47,6.21-6.03c-0.13-23.29-0.15-46.58,0.02-69.87
			c0.03-4.91-1.88-6.46-6.61-6.42c-19.08,0.17-38.16,0.21-57.23-0.02c-5.48-0.07-6.7,2.33-6.61,7.18
			C221.19,809.8,221.03,820.96,221.03,832.11z"/>
	</g>
</g>
<g>
	<path class="st2" d="M815.91,696.14c0.39,27.86-1.42,55.54-7.25,82.85c-2.27,10.63-5.21,21.09-9.71,31.02
		c-1.25,2.75-0.89,4.45,1.34,6.47c9.99,9.05,16.76,19.98,19.1,33.49c1.8,10.41-1.68,18.81-9.41,25.52
		c-9.21,8-20.61,10.39-32.28,11.94c-6.71,0.89-13.46,0.84-20.21,0.85c-27.8,0-55.51,1.87-83.23,3.68c-17.29,1.13-34.61,1.7-51.9,2.7
		c-42.86,2.47-85.75,1.73-128.63,1.29c-25.11-0.26-50.22-1.8-75.29-3.59c-15.56-1.11-31.17-1.64-46.74-2.63
		c-20.75-1.32-41.52-1.23-62.29-1.67c-11.95-0.25-23.74-2.41-34.27-8.71c-12.87-7.69-17.56-19.41-13.78-33.91
		c2.9-11.11,8.92-20.31,17.39-27.9c2.37-2.12,2.7-3.86,1.5-6.81c-8.72-21.41-12.56-43.9-14.63-66.8
		c-1.55-17.15-2.38-34.33-2.03-51.53c0.55-26.71,2.26-53.36,5.09-79.95c5.05-47.53,12.77-94.62,22.72-141.35
		c0.6-2.8-0.71-4.17-2.32-5.78c-12.39-12.44-20.51-27.14-23.67-44.51c-2.14-11.75-1.21-23.27,2.94-34.38
		c9.33-24.94,17.46-50.33,24.13-76.03c3.93-15.15,13.63-22.69,26.11-28.51c18.86-8.79,39.08-13.15,59.42-16.84
		c15.62-2.83,31.33-5.08,47.14-6.54c2.8-0.26,5.24-1.2,7.54-3.08c23.56-19.29,47.22-38.43,70.81-57.68
		c22.28-18.17,48.86-19.03,71.51-1.51c24.18,18.71,48.05,37.84,71.84,57.04c4.05,3.27,8.22,4.81,13.21,5.31
		c26.36,2.63,52.5,6.59,78.1,13.58c13.31,3.64,26.34,8.06,37.9,15.92c7.47,5.08,12.4,11.61,15.1,20.57
		c7.69,25.46,15.9,50.78,24.42,75.97c9.36,27.69,3.12,52.06-14.45,74.36c-2.87,3.64-5.95,7.13-9.66,9.96
		c-2.17,1.65-2.68,3.42-2.09,6.16c7.99,37.4,14.27,75.11,19.08,113.04c3.22,25.45,5.62,50.98,6.78,76.63
		C815.71,675.25,815.6,685.7,815.91,696.14z M789.28,698.97c0-9.52,0.32-19.06-0.08-28.57c-0.53-12.95-1.33-25.89-2.51-38.79
		c-1.99-21.73-4.61-43.39-7.77-64.99c-3.75-25.66-8.22-51.19-13.17-76.65c-0.59-3.04-1.57-3.68-4.47-2.51
		c-4.17,1.67-8.45,3.12-12.79,4.28c-61.11,16.32-123.34,25.02-186.53,26.83c-30.98,0.89-61.92-0.37-92.78-3.18
		c-30.05-2.73-59.91-7.01-89.42-13.38c-20.81-4.49-41.84-8.25-61.64-16.49c-2.84-1.18-3.17,0.58-3.53,2.51
		c-2.16,11.44-4.41,22.86-6.43,34.33c-5.72,32.44-10.4,65.02-13.76,97.8c-2.41,23.57-3.92,47.19-4.42,70.86
		c-0.44,20.52,0.49,41.01,3.15,61.38c2.18,16.71,5.43,33.19,12.45,48.66c6.14,13.54,3.53,25.15-8.03,34.76
		c-4.14,3.44-7.44,7.54-9.46,12.56c-2.62,6.52-1.94,7.9,4.57,10.29c9.39,3.44,19.25,3.58,29,3.61c14.02,0.05,28.02,0.22,42.03,0.87
		c23.12,1.07,46.21,2.59,69.31,3.98c29.45,1.77,58.95,2.76,88.45,3.15c37.72,0.49,75.43-0.56,113.11-2.3
		c10.04-0.46,20.07-1.11,30.11-1.71c20.46-1.23,40.91-2.66,61.38-3.67c15.05-0.74,30.15,0.04,45.21-0.93
		c6.36-0.41,12.61-1.31,18.51-4.01c3.29-1.5,4.11-3.7,2.86-7.05c-2.14-5.7-5.32-10.62-10.05-14.5c-11.73-9.64-14.4-20.82-8.36-34.68
		c2.91-6.68,5.33-13.55,7.16-20.61C788.34,753.99,789.59,726.52,789.28,698.97z M541.94,492.37c10.84-0.33,21.69-0.15,32.54-0.67
		c17.84-0.86,35.63-2.15,53.38-4.05c38.09-4.08,75.6-11.22,112.67-20.84c16.19-4.2,30.47-11.64,40.88-25.04
		c11.61-14.94,16.05-31.33,8.87-49.8c-2.97-7.64-5.51-15.46-8.05-23.26c-3.03-9.31-5.9-18.68-8.74-28.05
		c-0.69-2.26-1.44-3.12-3.86-1.77c-16.6,9.23-34.72,14.23-53.04,18.57c-27.07,6.42-54.56,10.21-82.24,12.94
		c-26.75,2.64-53.55,4.01-80.4,4.43c-31.37,0.48-62.68-1.01-93.95-3.72c-27.43-2.38-54.72-5.8-81.67-11.45
		c-21.54-4.52-42.86-9.88-62.36-20.57c-3.3-1.81-4.3-1.31-5.36,2.16c-5.45,17.98-10.86,35.97-17.47,53.59
		c-4.36,11.62-3.18,23.26,2.07,34.34c9.65,20.38,26.52,31.75,47.77,37.34C408.19,483.69,474.49,492.44,541.94,492.37z M704.1,333.86
		c0.05-0.49,0.11-0.98,0.16-1.47c-0.79-0.68-1.56-1.39-2.37-2.04c-9.74-7.75-19.48-15.48-29.22-23.23
		c-37.72-29.98-75.4-60.01-113.19-89.91c-12.64-10-26.61-9.61-39.21,0.64c-43.44,35.33-86.89,70.65-130.32,105.99
		c-3.52,2.86-6.97,5.81-10.46,8.72c0.13,0.44,0.26,0.89,0.39,1.33C487.96,353.66,596.04,353.7,704.1,333.86z M694.24,290.03
		c0.32,0.75,0.35,1.06,0.53,1.19c13.35,10.61,26.7,21.21,40.07,31.8c0.92,0.73,1.87,1.57,3.21,1.11c8.39-2.88,16.7-5.91,23.95-11.24
		c1.65-1.21,1.56-2.18-0.1-3.31c-2.75-1.86-5.68-3.36-8.73-4.65c-15.3-6.51-31.41-10.13-47.64-13.3
		C701.93,290.93,698.36,289.91,694.24,290.03z M388.93,290.81c-0.78-0.94-1.46-0.73-2.07-0.62c-11.18,2.03-22.35,4.16-33.3,7.23
		c-10.18,2.86-20.37,5.79-29.56,11.25c-4.36,2.59-4.39,3.76,0.04,6.41c6.49,3.9,13.51,6.63,20.68,9.01
		c2.28,0.76,3.78-0.21,5.37-1.51c8.39-6.86,16.82-13.68,25.22-20.53C379.87,298.34,384.39,294.56,388.93,290.81z"/>
	<path class="st2" d="M512.63,690.67c0.05,12.04-6.11,22.63-14.5,32.21c-4.37,4.99-9.47,9.22-14.72,13.27
		c-1.54,1.19-2.9,1.84-4.21-0.34c-7.55-12.58-13.98-25.52-14.11-40.7c-0.08-9.26,3.67-16.99,9.32-23.88
		c6.2-7.57,14-13.24,22.53-17.95c1.92-1.06,3.3-1.21,4.55,1C507.69,665.21,512.35,676.63,512.63,690.67z"/>
	<path class="st2" d="M536.7,717.63c12.56,0.25,24.68,6.47,36.14,14.41c1.19,0.83,1.98,1.8,0.99,3.3
		c-8.66,13.2-18.7,24.78-34.84,28.9c-7.98,2.04-15.77,0.57-23.37-2.07c-8.7-3.02-16.5-7.73-23.99-13c-1.61-1.13-2.6-2.19-1.07-4.14
		c8.94-11.43,19.14-21.2,33.35-25.82C527.49,718.06,531.16,717.74,536.7,717.63z"/>
	<path class="st2" d="M572.4,715.13c-11.91-0.1-21.92-5.29-31.47-11.74c-1.34-0.9-1.59-2.02-0.67-3.38
		c7.53-11.04,16.1-20.91,30.01-23.7c11.03-2.22,21.08,1.5,30.27,7.02c10.21,6.13,10.57,4.09,2.79,14.21
		c-3.49,4.54-7.61,8.46-12.32,11.73C585.16,713.33,579.57,715.07,572.4,715.13z"/>
	<path class="st2" d="M557.76,654.52c0.64,10.68-6.19,19.36-14.91,27.01c-3.49,3.06-7.34,5.64-11.4,7.89
		c-1.35,0.75-2.77,1.3-3.76-0.46c-7.06-12.46-12.44-25.42-7.77-39.98c4.11-12.79,14.32-20.23,25.44-26.56
		c1.69-0.96,2.75-0.07,3.53,1.37C553.75,632.82,557.66,642.15,557.76,654.52z"/>
	<path class="st2" d="M607.9,672.95c-9.2-0.27-17.11-4.12-24.65-8.97c-1.55-0.99-2.21-2.2-0.97-3.94
		c6.53-9.13,13.89-17.18,25.8-18.86c8.13-1.14,15.35,1.87,22.35,5.51c8.98,4.66,8.95,4.67,2.62,12.38
		c-5.15,6.27-11.12,11.29-19.25,13.25C611.85,672.78,609.9,672.98,607.9,672.95z"/>
	<path class="st2" d="M595.02,620.95c0.26,9.58-4.38,16.45-10.83,22.38c-3.03,2.78-6.42,5.1-9.96,7.2
		c-1.55,0.92-3.02,1.22-4.02-0.69c-4.86-9.25-9.03-18.76-6.48-29.54c2.75-11.63,11.37-18.39,21.11-24c2.07-1.2,2.87,0.61,3.59,1.97
		C592.23,605.47,595.18,612.93,595.02,620.95z"/>
	<path class="st2" d="M647.45,595.61c-0.38,5.8-1.51,11.76-4.08,17.36c-4.66,10.18-13.28,14.72-23.84,16.11
		c-3.38,0.44-6.81,1.14-10.27,0.65c-1.56-0.22-3.05-0.36-3.49-2.49c-2.12-10.46,5.28-27.01,14.75-32.33
		c7.39-4.15,15.53-4.96,23.82-4.82C648.11,590.16,647.31,593,647.45,595.61z"/>
	<path class="st2" d="M442.11,786.8c-4.11-0.08-6.57-4.4-4.41-7.94c0.74-1.21,1.84-2.24,2.9-3.23c8.96-8.41,18-16.74,26.89-25.21
		c2.46-2.34,4.41-3.22,6.47,0.29c0.52,0.89,1.38,1.6,2.18,2.29c1.82,1.59,1.69,2.83-0.13,4.5c-9.73,8.94-19.36,17.99-29.01,27.01
		C445.6,785.81,444.11,786.83,442.11,786.8z"/>
	<path class="st2" d="M591.46,268.14c0.02,5.24-4.68,9.88-9.96,9.83c-5.31-0.05-9.84-4.63-9.84-9.95c-0.01-5.07,4.49-9.71,9.55-9.85
		C586.69,258.01,591.44,262.63,591.46,268.14z"/>
	<path class="st2" d="M549.44,247.03c-5.5,0.01-9.83-4.25-9.87-9.73c-0.04-5.45,4.29-9.85,9.73-9.89c5.48-0.04,9.82,4.22,9.89,9.72
		C559.25,242.47,554.78,247.02,549.44,247.03z"/>
	<path class="st2" d="M497.2,284.56c0.02,5.26-4.54,9.89-9.82,9.97c-5.28,0.08-9.68-4.38-9.79-9.93c-0.1-5.39,4.29-9.88,9.73-9.92
		C492.53,274.63,497.18,279.28,497.2,284.56z"/>
	<path class="st2" d="M463.82,315.2c-0.17,5.35-4.75,9.75-10.07,9.66c-5.3-0.08-9.75-4.73-9.65-10.06c0.1-5.16,4.96-9.84,10.12-9.74
		C459.46,305.16,463.98,309.94,463.82,315.2z"/>
	<path class="st2" d="M656.92,315.22c-0.08,5.34-4.63,9.72-10.03,9.64c-5.4-0.08-9.57-4.5-9.5-10.08c0.07-5.19,4.47-9.64,9.57-9.65
		C652.6,305.11,657,309.58,656.92,315.22z"/>
	<path class="st2" d="M599.25,314.86c0.07-5.38,4.64-9.86,9.9-9.7c5.44,0.16,9.69,4.57,9.64,10.02c-0.05,5.23-4.71,9.76-9.99,9.71
		C603.42,324.83,599.17,320.37,599.25,314.86z"/>
	<path class="st2" d="M504.36,322.2c0.05,5.34-4.4,9.84-9.75,9.86c-5.5,0.02-9.85-4.23-9.89-9.68c-0.04-5.47,4.21-9.74,9.73-9.77
		C500.04,312.57,504.31,316.7,504.36,322.2z"/>
</g>
</svg>
